<svg width="919" height="124" viewBox="0 0 919 124" fill="none" xmlns="http://www.w3.org/2000/svg">
<g clip-path="url(#clip0_1004_14)">
<path d="M450.573 1C468.213 1.00008 482.997 6.94062 493.37 17.5791C503.739 28.213 509.535 43.3692 509.535 61.5C509.535 79.4917 503.657 94.6439 493.257 105.309C482.853 115.977 468.074 122 450.573 122C432.933 122 418.149 116.059 407.775 105.421C397.407 94.787 391.61 79.6307 391.61 61.5C391.61 43.5084 397.489 28.3561 407.889 17.6914C418.293 7.02252 433.073 1 450.573 1ZM868.586 1C885.567 1 900.142 5.6231 913.453 15.1748C913.885 15.4847 914.176 15.954 914.262 16.4785C914.347 17.0029 914.22 17.5399 913.909 17.9707L900.045 37.1709C899.722 37.6177 899.229 37.9119 898.683 37.9834C898.136 38.0548 897.584 37.8967 897.157 37.5479C889.087 30.9495 878.386 27.2002 867.682 27.2002C862.006 27.2002 857.55 28.2201 854.591 29.8418C851.668 31.4435 850.394 33.4928 850.394 35.7002C850.394 37.8738 851.738 39.8261 855.621 41.8828C859.501 43.938 865.316 45.7623 873.022 47.8682C882.459 50.4028 893.389 53.3943 901.94 58.7969C910.619 64.2797 917 72.3518 917 84.9004C917 96.5907 912.363 105.98 903.721 112.382C895.157 118.726 882.852 122 867.682 122C848.019 122 829.422 115.889 816.92 104.689C816.152 104.001 816.033 102.842 816.645 102.013L830.811 82.8125L830.947 82.6465C831.285 82.2795 831.749 82.0493 832.251 82.0068C832.825 81.9584 833.393 82.16 833.808 82.5596C842.764 91.1874 854.92 96.0996 868.285 96.0996C874.596 96.0996 879.334 95.0696 882.419 93.3525C885.407 91.6896 886.779 89.4482 886.779 86.7002C886.779 85.3539 886.388 84.346 885.663 83.4727C884.894 82.5466 883.669 81.6781 881.857 80.8203C878.172 79.0751 872.845 77.7117 865.938 75.7256L862.275 74.6943C853.587 72.2183 844.022 69.1913 836.311 64.2324C827.369 58.4824 820.776 50.0362 820.775 36.9004C820.775 25.7644 825.523 16.6907 833.984 10.4639C842.381 4.28483 854.295 1.00004 868.586 1ZM86.8818 2.5C87.9864 2.50005 88.8818 3.39546 88.8818 4.5V27C88.8818 28.1045 87.9864 29 86.8818 29H31.3164V47.2002H73.3193C74.4239 47.2002 75.3193 48.0956 75.3193 49.2002V70.7998C75.3193 71.9044 74.4239 72.7998 73.3193 72.7998H31.3164V94H88.3887C89.4932 94 90.3887 94.8954 90.3887 96V118.5C90.3887 119.605 89.4932 120.5 88.3887 120.5H4C2.89543 120.5 2 119.605 2 118.5V4.5C2 3.39543 2.89543 2.5 4 2.5H86.8818ZM150.849 2.5L151.004 2.50586C151.778 2.56593 152.453 3.07087 152.725 3.80762L181.279 81.1963L209.549 3.81348L209.608 3.66895C209.931 2.96129 210.64 2.5 211.428 2.5H249.101C250.205 2.5 251.101 3.39543 251.101 4.5V118.5C251.101 119.605 250.205 120.5 249.101 120.5H223.784C222.68 120.5 221.784 119.605 221.784 118.5V49.3457L196.126 119.189C195.837 119.977 195.087 120.5 194.248 120.5H167.727C166.888 120.5 166.138 119.977 165.849 119.189L140.19 49.3457V118.5C140.19 119.604 139.295 120.5 138.19 120.5H112.873C111.769 120.5 110.873 119.604 110.873 118.5V4.5C110.873 3.39557 111.769 2.50022 112.873 2.5H150.849ZM336.576 2.5C348.627 2.50006 358.47 5.42042 365.34 11.0117C372.263 16.6461 375.948 24.8184 375.948 34.7998C375.948 45.8951 371.307 54.5589 363.199 60.1699C372.765 65.8649 378.058 75.2091 378.058 87.2998C378.058 97.5907 374.215 105.993 366.984 111.774C359.812 117.51 349.521 120.5 336.877 120.5H282.929C281.824 120.5 280.929 119.605 280.929 118.5V4.5C280.929 3.39543 281.824 2.5 282.929 2.5H336.576ZM577.831 2.5C596.776 2.50001 611.8 8.2587 622.088 18.6562C632.371 29.0491 637.697 43.8494 637.697 61.5C637.697 78.735 632.124 93.5218 621.748 104.007C611.367 114.497 596.357 120.5 577.831 120.5H533.226C532.121 120.5 531.226 119.605 531.226 118.5V4.5C531.226 3.39543 532.121 2.5 533.226 2.5H577.831ZM687.308 2.5C688.412 2.5002 689.308 3.39555 689.308 4.5V118.5C689.308 119.604 688.412 120.5 687.308 120.5H661.388C660.283 120.5 659.388 119.605 659.388 118.5V4.5C659.388 3.39549 660.283 2.5001 661.388 2.5H687.308ZM804.017 2.5C805.121 2.5 806.017 3.39543 806.017 4.5V27C806.017 28.1046 805.121 29 804.017 29H748.452V47.2002H790.454C791.559 47.2002 792.454 48.0956 792.454 49.2002V70.7998C792.454 71.9044 791.559 72.7998 790.454 72.7998H748.452V94H805.523C806.628 94 807.523 94.8954 807.523 96V118.5C807.523 119.605 806.628 120.5 805.523 120.5H721.135C720.03 120.5 719.135 119.604 719.135 118.5V4.5C719.135 3.39553 720.03 2.50016 721.135 2.5H804.017ZM309.643 95.7998H332.658C338.336 95.7997 342.263 94.703 344.737 92.8018C347.111 90.9775 348.439 88.1823 348.439 84C348.439 79.8177 347.111 77.0225 344.737 75.1982C342.263 73.297 338.336 72.2003 332.658 72.2002H309.643V95.7998ZM450.573 27.2002C441.945 27.2002 434.906 30.5585 429.991 36.4219C425.048 42.3189 422.133 50.903 422.133 61.5C422.133 72.097 425.048 80.6811 429.991 86.5781C434.906 92.4415 441.945 95.7998 450.573 95.7998C459.201 95.7997 466.24 92.4414 471.154 86.5781C476.097 80.6811 479.013 72.097 479.013 61.5C479.013 50.903 476.097 42.3189 471.154 36.4219C466.24 30.5586 459.201 27.2003 450.573 27.2002ZM561.145 94.9004H577.229C587.186 94.9003 594.576 91.7557 599.504 86.1982C604.465 80.6037 607.176 72.2895 607.176 61.5C607.176 50.7105 604.465 42.3963 599.504 36.8018C594.576 31.2443 587.186 28.0997 577.229 28.0996H561.145V94.9004ZM309.643 48.4004H332.356C337.579 48.4004 341.128 47.3799 343.338 45.6689C345.451 44.033 346.632 41.5352 346.632 37.7998C346.632 34.0645 345.451 31.5675 343.338 29.9316C341.128 28.2206 337.579 27.2002 332.356 27.2002H309.643V48.4004Z" stroke="#9863E7" stroke-width="4" stroke-linejoin="round"/>
</g>
<defs>
<clipPath id="clip0_1004_14">
<rect width="919" height="124" fill="white"/>
</clipPath>
</defs>
</svg>
