<svg width="914" height="159" viewBox="0 0 914 159" fill="none" xmlns="http://www.w3.org/2000/svg">
<g clip-path="url(#clip0_1004_10)">
<mask id="path-1-outside-1_1004_10" maskUnits="userSpaceOnUse" x="0" y="0" width="914" height="161" fill="black">
<rect fill="white" width="914" height="161"/>
<path d="M103.75 79.2188C117.812 85.8594 125.625 97.9688 125.625 114.375C125.625 139.766 106.875 155 74.8438 155H4.92188V6.5625H74.4531C104.922 6.5625 122.891 21.4062 122.891 46.0156C122.891 61.25 115.859 72.5781 103.75 79.2188ZM68.9844 33.5156H36.9531V66.3281H68.9844C83.0469 66.3281 90.0781 60.8594 90.0781 49.9219C90.0781 38.9844 83.0469 33.5156 68.9844 33.5156ZM69.375 128.047C84.6094 128.047 92.4219 122.188 92.4219 110.078C92.4219 97.9688 84.6094 92.1094 69.375 92.1094H36.9531V128.047H69.375ZM274.156 6.5625V37.0312H224.156V155H190.562V37.0312H140.562V6.5625H274.156ZM301.984 155V6.5625H335.578V155H301.984ZM505.984 6.5625V155H472.391V37.0312H421.219V80.3906C421.219 134.688 414.188 156.172 382.938 156.172C379.031 156.172 375.516 156.172 365.359 155V124.141H373.562C384.891 124.141 388.016 122.969 388.016 77.2656V6.5625H505.984ZM678.344 4.60938C721.312 4.60938 749.047 34.6875 749.047 80.7812C749.047 126.484 720.531 156.953 678.344 156.953C639.672 156.953 613.5 132.734 608.422 94.0625H583.422V155H549.828V6.5625H583.422V63.5938H609.203C615.453 27.6562 641.625 4.60938 678.344 4.60938ZM677.953 128.828C700.609 128.828 714.281 110.469 714.281 80.7812C714.281 51.0938 700.609 32.7344 677.953 32.7344C655.688 32.7344 641.625 51.0938 641.625 80.7812C641.625 110.469 655.688 128.828 677.953 128.828ZM844.062 128.828C860.859 128.828 872.969 119.453 878.828 103.438L909.297 114.375C900.312 140.938 876.484 156.953 844.453 156.953C800.312 156.953 771.797 126.875 771.797 80.7812C771.797 35.0781 800.703 4.60938 844.453 4.60938C876.484 4.60938 900.312 19.8438 909.297 47.1875L878.828 58.125C872.969 42.1094 860.859 32.7344 844.062 32.7344C824.922 32.7344 811.25 44.4531 807.344 65.5469H859.688V92.1094H806.562C809.688 115.938 823.359 128.828 844.062 128.828Z"/>
</mask>
<path d="M103.75 79.2188L101.827 75.7115C100.508 76.4346 99.7064 77.8363 99.7518 79.3396C99.7973 80.8428 100.682 82.1936 102.042 82.8357L103.75 79.2188ZM4.92188 155H0.921875C0.921875 157.209 2.71274 159 4.92188 159V155ZM4.92188 6.5625V2.5625C2.71274 2.5625 0.921875 4.35336 0.921875 6.5625H4.92188ZM36.9531 33.5156V29.5156C34.744 29.5156 32.9531 31.3065 32.9531 33.5156H36.9531ZM36.9531 66.3281H32.9531C32.9531 68.5373 34.744 70.3281 36.9531 70.3281V66.3281ZM36.9531 92.1094V88.1094C34.744 88.1094 32.9531 89.9002 32.9531 92.1094H36.9531ZM36.9531 128.047H32.9531C32.9531 130.256 34.744 132.047 36.9531 132.047V128.047ZM103.75 79.2188L102.042 82.8357C114.682 88.8049 121.625 99.491 121.625 114.375H125.625H129.625C129.625 96.4465 120.943 82.9139 105.458 75.6018L103.75 79.2188ZM125.625 114.375H121.625C121.625 125.995 117.385 134.949 109.741 141.091C101.983 147.324 90.2822 151 74.8438 151V155V159C91.4365 159 105.127 155.059 114.751 147.327C124.49 139.504 129.625 128.145 129.625 114.375H125.625ZM74.8438 155V151H4.92188V155V159H74.8438V155ZM4.92188 155H8.92188V6.5625H4.92188H0.921875V155H4.92188ZM4.92188 6.5625V10.5625H74.4531V6.5625V2.5625H4.92188V6.5625ZM74.4531 6.5625V10.5625C89.0901 10.5625 100.196 14.1316 107.566 20.1572C114.831 26.098 118.891 34.7673 118.891 46.0156H122.891H126.891C126.891 32.6546 121.965 21.5973 112.63 13.9639C103.397 6.41529 90.2849 2.5625 74.4531 2.5625V6.5625ZM122.891 46.0156H118.891C118.891 59.8097 112.638 69.7828 101.827 75.7115L103.75 79.2188L105.673 82.726C119.081 75.3734 126.891 62.6903 126.891 46.0156H122.891ZM68.9844 33.5156V29.5156H36.9531V33.5156V37.5156H68.9844V33.5156ZM36.9531 33.5156H32.9531V66.3281H36.9531H40.9531V33.5156H36.9531ZM36.9531 66.3281V70.3281H68.9844V66.3281V62.3281H36.9531V66.3281ZM68.9844 66.3281V70.3281C76.4237 70.3281 82.7393 68.9004 87.2605 65.384C91.9726 61.719 94.0781 56.3132 94.0781 49.9219H90.0781H86.0781C86.0781 54.4681 84.668 57.2654 82.3489 59.0692C79.8388 61.0214 75.6075 62.3281 68.9844 62.3281V66.3281ZM90.0781 49.9219H94.0781C94.0781 43.5306 91.9726 38.1248 87.2605 34.4598C82.7393 30.9433 76.4237 29.5156 68.9844 29.5156V33.5156V37.5156C75.6075 37.5156 79.8388 38.8223 82.3489 40.7746C84.668 42.5783 86.0781 45.3757 86.0781 49.9219H90.0781ZM69.375 128.047V132.047C77.3924 132.047 84.1929 130.525 89.056 126.77C94.1165 122.862 96.4219 117.061 96.4219 110.078H92.4219H88.4219C88.4219 115.204 86.821 118.388 84.1667 120.437C81.3149 122.64 76.592 124.047 69.375 124.047V128.047ZM92.4219 110.078H96.4219C96.4219 103.095 94.1165 97.2942 89.056 93.3867C84.1929 89.6317 77.3924 88.1094 69.375 88.1094V92.1094V96.1094C76.592 96.1094 81.3149 97.5167 84.1667 99.7188C86.821 101.768 88.4219 104.952 88.4219 110.078H92.4219ZM69.375 92.1094V88.1094H36.9531V92.1094V96.1094H69.375V92.1094ZM36.9531 92.1094H32.9531V128.047H36.9531H40.9531V92.1094H36.9531ZM36.9531 128.047V132.047H69.375V128.047V124.047H36.9531V128.047ZM274.156 6.5625H278.156C278.156 4.35336 276.365 2.5625 274.156 2.5625V6.5625ZM274.156 37.0312V41.0312C276.365 41.0312 278.156 39.2404 278.156 37.0312H274.156ZM224.156 37.0312V33.0312C221.947 33.0312 220.156 34.8221 220.156 37.0312H224.156ZM224.156 155V159C226.365 159 228.156 157.209 228.156 155H224.156ZM190.562 155H186.562C186.562 157.209 188.353 159 190.562 159V155ZM190.562 37.0312H194.562C194.562 34.8221 192.772 33.0312 190.562 33.0312V37.0312ZM140.562 37.0312H136.562C136.562 39.2404 138.353 41.0312 140.562 41.0312V37.0312ZM140.562 6.5625V2.5625C138.353 2.5625 136.562 4.35336 136.562 6.5625H140.562ZM274.156 6.5625H270.156V37.0312H274.156H278.156V6.5625H274.156ZM274.156 37.0312V33.0312H224.156V37.0312V41.0312H274.156V37.0312ZM224.156 37.0312H220.156V155H224.156H228.156V37.0312H224.156ZM224.156 155V151H190.562V155V159H224.156V155ZM190.562 155H194.562V37.0312H190.562H186.562V155H190.562ZM190.562 37.0312V33.0312H140.562V37.0312V41.0312H190.562V37.0312ZM140.562 37.0312H144.562V6.5625H140.562H136.562V37.0312H140.562ZM140.562 6.5625V10.5625H274.156V6.5625V2.5625H140.562V6.5625ZM301.984 155H297.984C297.984 157.209 299.775 159 301.984 159V155ZM301.984 6.5625V2.5625C299.775 2.5625 297.984 4.35336 297.984 6.5625H301.984ZM335.578 6.5625H339.578C339.578 4.35336 337.787 2.5625 335.578 2.5625V6.5625ZM335.578 155V159C337.787 159 339.578 157.209 339.578 155H335.578ZM301.984 155H305.984V6.5625H301.984H297.984V155H301.984ZM301.984 6.5625V10.5625H335.578V6.5625V2.5625H301.984V6.5625ZM335.578 6.5625H331.578V155H335.578H339.578V6.5625H335.578ZM335.578 155V151H301.984V155V159H335.578V155ZM505.984 6.5625H509.984C509.984 4.35336 508.194 2.5625 505.984 2.5625V6.5625ZM505.984 155V159C508.194 159 509.984 157.209 509.984 155H505.984ZM472.391 155H468.391C468.391 157.209 470.181 159 472.391 159V155ZM472.391 37.0312H476.391C476.391 34.8221 474.6 33.0312 472.391 33.0312V37.0312ZM421.219 37.0312V33.0312C419.01 33.0312 417.219 34.8221 417.219 37.0312H421.219ZM365.359 155H361.359C361.359 157.032 362.883 158.741 364.901 158.974L365.359 155ZM365.359 124.141V120.141C363.15 120.141 361.359 121.931 361.359 124.141H365.359ZM388.016 6.5625V2.5625C385.806 2.5625 384.016 4.35336 384.016 6.5625H388.016ZM505.984 6.5625H501.984V155H505.984H509.984V6.5625H505.984ZM505.984 155V151H472.391V155V159H505.984V155ZM472.391 155H476.391V37.0312H472.391H468.391V155H472.391ZM472.391 37.0312V33.0312H421.219V37.0312V41.0312H472.391V37.0312ZM421.219 37.0312H417.219V80.3906H421.219H425.219V37.0312H421.219ZM421.219 80.3906H417.219C417.219 107.621 415.411 125.706 410.171 136.953C407.625 142.418 404.336 146.104 400.131 148.486C395.869 150.9 390.316 152.172 382.938 152.172V156.172V160.172C391.184 160.172 398.229 158.758 404.074 155.447C409.976 152.104 414.304 147.025 417.423 140.332C423.511 127.263 425.219 107.457 425.219 80.3906H421.219ZM382.938 156.172V152.172C379.174 152.172 375.812 152.18 365.818 151.026L365.359 155L364.901 158.974C375.219 160.164 378.889 160.172 382.938 160.172V156.172ZM365.359 155H369.359V124.141H365.359H361.359V155H365.359ZM365.359 124.141V128.141H373.562V124.141V120.141H365.359V124.141ZM373.562 124.141V128.141C376.25 128.141 379.425 128.122 382.201 126.909C385.355 125.531 387.433 122.935 388.794 119.216C390.092 115.667 390.864 110.774 391.34 104.158C391.821 97.474 392.016 88.7161 392.016 77.2656H388.016H384.016C384.016 88.6667 383.82 97.1939 383.361 103.584C382.896 110.041 382.179 114.011 381.281 116.467C380.444 118.755 379.616 119.308 378.998 119.578C378.003 120.013 376.539 120.141 373.562 120.141V124.141ZM388.016 77.2656H392.016V6.5625H388.016H384.016V77.2656H388.016ZM388.016 6.5625V10.5625H505.984V6.5625V2.5625H388.016V6.5625ZM608.422 94.0625L612.388 93.5417C612.126 91.551 610.43 90.0625 608.422 90.0625V94.0625ZM583.422 94.0625V90.0625C581.213 90.0625 579.422 91.8534 579.422 94.0625H583.422ZM583.422 155V159C585.631 159 587.422 157.209 587.422 155H583.422ZM549.828 155H545.828C545.828 157.209 547.619 159 549.828 159V155ZM549.828 6.5625V2.5625C547.619 2.5625 545.828 4.35336 545.828 6.5625H549.828ZM583.422 6.5625H587.422C587.422 4.35336 585.631 2.5625 583.422 2.5625V6.5625ZM583.422 63.5938H579.422C579.422 65.8029 581.213 67.5938 583.422 67.5938V63.5938ZM609.203 63.5938V67.5938C611.148 67.5938 612.811 66.1951 613.144 64.2791L609.203 63.5938ZM678.344 4.60938V8.60938C698.852 8.60938 715.415 15.7601 726.874 28.1286C738.362 40.5283 745.047 58.5304 745.047 80.7812H749.047H753.047C753.047 56.9384 745.864 36.8545 732.743 22.6917C719.593 8.49768 700.805 0.609375 678.344 0.609375V4.60938ZM749.047 80.7812H745.047C745.047 102.8 738.188 120.812 726.587 133.281C715.009 145.725 698.43 152.953 678.344 152.953V156.953V160.953C700.445 160.953 719.217 152.947 732.444 138.731C745.648 124.539 753.047 104.465 753.047 80.7812H749.047ZM678.344 156.953V152.953C659.871 152.953 644.657 147.186 633.472 137.046C622.274 126.895 614.824 112.098 612.388 93.5417L608.422 94.0625L604.456 94.5833C607.097 114.699 615.273 131.347 628.099 142.973C640.937 154.611 658.144 160.953 678.344 160.953V156.953ZM608.422 94.0625V90.0625H583.422V94.0625V98.0625H608.422V94.0625ZM583.422 94.0625H579.422V155H583.422H587.422V94.0625H583.422ZM583.422 155V151H549.828V155V159H583.422V155ZM549.828 155H553.828V6.5625H549.828H545.828V155H549.828ZM549.828 6.5625V10.5625H583.422V6.5625V2.5625H549.828V6.5625ZM583.422 6.5625H579.422V63.5938H583.422H587.422V6.5625H583.422ZM583.422 63.5938V67.5938H609.203V63.5938V59.5938H583.422V63.5938ZM609.203 63.5938L613.144 64.2791C616.13 47.1089 623.828 33.2348 634.957 23.6568C646.077 14.086 660.848 8.60938 678.344 8.60938V4.60938V0.609375C659.12 0.609375 642.446 6.65616 629.738 17.5932C617.039 28.523 608.526 44.1411 605.262 62.9084L609.203 63.5938ZM677.953 128.828V132.828C690.491 132.828 700.775 127.685 707.809 118.344C714.743 109.134 718.281 96.1776 718.281 80.7812H714.281H710.281C710.281 95.0724 706.983 106.14 701.418 113.531C695.951 120.792 688.072 124.828 677.953 124.828V128.828ZM714.281 80.7812H718.281C718.281 65.3849 714.743 52.4288 707.809 43.219C700.775 33.8775 690.491 28.7344 677.953 28.7344V32.7344V36.7344C688.072 36.7344 695.951 40.771 701.418 48.031C706.983 55.4227 710.281 66.4901 710.281 80.7812H714.281ZM677.953 32.7344V28.7344C665.595 28.7344 655.324 33.8891 648.253 43.207C641.271 52.4075 637.625 65.3609 637.625 80.7812H641.625H645.625C645.625 66.5141 649.01 55.4441 654.626 48.043C660.153 40.7594 668.045 36.7344 677.953 36.7344V32.7344ZM641.625 80.7812H637.625C637.625 96.2016 641.271 109.155 648.253 118.355C655.324 127.673 665.595 132.828 677.953 132.828V128.828V124.828C668.045 124.828 660.153 120.803 654.626 113.52C649.01 106.118 645.625 95.0484 645.625 80.7812H641.625ZM878.828 103.438L880.18 99.6727C878.109 98.9295 875.827 99.9974 875.072 102.063L878.828 103.438ZM909.297 114.375L913.086 115.657C913.785 113.591 912.7 111.347 910.648 110.61L909.297 114.375ZM909.297 47.1875L910.648 50.9523C912.688 50.2202 913.773 47.9974 913.097 45.9389L909.297 47.1875ZM878.828 58.125L875.072 59.4993C875.827 61.5651 878.109 62.633 880.18 61.8898L878.828 58.125ZM807.344 65.5469L803.411 64.8185C803.194 65.987 803.509 67.1912 804.269 68.1049C805.029 69.0185 806.155 69.5469 807.344 69.5469V65.5469ZM859.688 65.5469H863.688C863.688 63.3377 861.897 61.5469 859.688 61.5469V65.5469ZM859.688 92.1094V96.1094C861.897 96.1094 863.688 94.3185 863.688 92.1094H859.688ZM806.562 92.1094V88.1094C805.411 88.1094 804.315 88.6057 803.556 89.4712C802.796 90.3368 802.447 91.4877 802.596 92.6295L806.562 92.1094ZM844.062 128.828V132.828C853.237 132.828 861.318 130.255 867.93 125.351C874.522 120.462 879.435 113.42 882.585 104.812L878.828 103.438L875.072 102.063C872.362 109.471 868.29 115.124 863.164 118.926C858.057 122.714 851.685 124.828 844.062 124.828V128.828ZM878.828 103.438L877.477 107.202L907.945 118.14L909.297 114.375L910.648 110.61L880.18 99.6727L878.828 103.438ZM909.297 114.375L905.508 113.093C897.151 137.799 875.028 152.953 844.453 152.953V156.953V160.953C877.941 160.953 903.474 144.076 913.086 115.657L909.297 114.375ZM844.453 156.953V152.953C823.325 152.953 806.261 145.778 794.469 133.394C782.658 120.99 775.797 103.002 775.797 80.7812H771.797H767.797C767.797 104.654 775.194 124.752 788.675 138.911C802.176 153.089 821.441 160.953 844.453 160.953V156.953ZM771.797 80.7812H775.797C775.797 58.7777 782.743 40.7813 794.615 28.3153C806.47 15.8675 823.543 8.60938 844.453 8.60938V4.60938V0.609375C821.614 0.609375 802.358 8.58558 788.822 22.798C775.304 36.9921 767.797 57.0816 767.797 80.7812H771.797ZM844.453 4.60938V8.60938C875.089 8.60938 897.149 23.0295 905.497 48.4361L909.297 47.1875L913.097 45.9389C903.476 16.658 877.88 0.609375 844.453 0.609375V4.60938ZM909.297 47.1875L907.945 43.4227L877.477 54.3602L878.828 58.125L880.18 61.8898L910.648 50.9523L909.297 47.1875ZM878.828 58.125L882.585 56.7507C879.435 48.1428 874.522 41.1004 867.93 36.211C861.318 31.3075 853.237 28.7344 844.062 28.7344V32.7344V36.7344C851.685 36.7344 858.057 38.8488 863.164 42.6366C868.29 46.4387 872.362 52.0916 875.072 59.4993L878.828 58.125ZM844.062 32.7344V28.7344C833.643 28.7344 824.461 31.9413 817.341 38.2332C810.243 44.5065 805.492 53.5812 803.411 64.8185L807.344 65.5469L811.277 66.2752C813.102 56.4188 817.14 49.0872 822.639 44.2278C828.117 39.3868 835.341 36.7344 844.062 36.7344V32.7344ZM807.344 65.5469V69.5469H859.688V65.5469V61.5469H807.344V65.5469ZM859.688 65.5469H855.688V92.1094H859.688H863.688V65.5469H859.688ZM859.688 92.1094V88.1094H806.562V92.1094V96.1094H859.688V92.1094ZM806.562 92.1094L802.596 92.6295C804.242 105.176 808.725 115.285 815.936 122.276C823.192 129.31 832.84 132.828 844.062 132.828V128.828V124.828C834.582 124.828 827.043 121.901 821.505 116.532C815.924 111.122 812.008 102.871 810.529 91.5892L806.562 92.1094Z" fill="#9863E7" mask="url(#path-1-outside-1_1004_10)"/>
</g>
<defs>
<clipPath id="clip0_1004_10">
<rect width="914" height="159" fill="white"/>
</clipPath>
</defs>
</svg>
