<svg width="45" height="45" viewBox="0 0 45 45" fill="none" xmlns="http://www.w3.org/2000/svg">
<path d="M23.6231 38.8148C24.5033 39.5956 25.574 40.1305 26.7269 40.3654C27.8799 40.6002 29.0744 40.5268 30.19 40.1525C31.3055 39.7783 32.3026 39.1164 33.0806 38.2336C33.8586 37.3509 34.39 36.2785 34.6211 35.1248L34.7044 34.7063C36.1897 34.3921 37.5404 33.6231 38.5687 32.5062C39.597 31.3892 40.2519 29.9797 40.4424 28.4735C40.6329 26.9672 40.3495 25.4391 39.6317 24.1012C38.9139 22.7634 37.7972 21.6824 36.4369 21.0083C37.0078 20.4817 37.4634 19.8426 37.7752 19.1313C38.0869 18.4199 38.2479 17.6517 38.2481 16.875V16.4295C38.2475 15.0262 37.761 13.6664 36.8713 12.5811C35.9817 11.4958 34.7438 10.752 33.3679 10.476L32.4544 10.296L32.1709 8.88304C31.9917 7.98686 31.59 7.15011 31.0029 6.44972C30.4158 5.74933 29.662 5.20777 28.8109 4.87485C27.9598 4.54193 27.0386 4.42832 26.1321 4.54447C25.2256 4.66061 24.3628 5.00279 23.6231 5.53954V38.8148ZM21.3731 5.53729C20.6334 5.00002 19.7704 4.65741 18.8636 4.54097C17.9568 4.42454 17.0353 4.53803 16.1838 4.871C15.3324 5.20396 14.5783 5.74572 13.991 6.44641C13.4038 7.14711 13.0021 7.98424 12.8231 8.88079L12.5419 10.2938L11.6284 10.476C10.2525 10.752 9.01453 11.4958 8.12489 12.5811C7.23525 13.6664 6.74878 15.0262 6.74812 16.4295V16.875C6.74812 18.5085 7.44562 19.98 8.55937 21.0083C7.19899 21.6824 6.08233 22.7634 5.36451 24.1012C4.64669 25.4391 4.36336 26.9672 4.55386 28.4735C4.74437 29.9797 5.39926 31.3892 6.42755 32.5062C7.45585 33.6231 8.8065 34.3921 10.2919 34.7063L10.3751 35.1225C10.606 36.2765 11.1371 37.3491 11.915 38.2321C12.6928 39.1151 13.6899 39.7773 14.8055 40.1518C15.9211 40.5263 17.1157 40.5999 18.2688 40.3652C19.422 40.1304 20.4927 39.5956 21.3731 38.8148V5.53729Z" fill="#BB8EFF"/>
</svg>
