<svg width="22" height="22" viewBox="0 0 22 22" fill="none" xmlns="http://www.w3.org/2000/svg">
<path d="M9.42857 1.5625V4.6875C9.42857 5.55176 10.1308 6.25 11 6.25H14.1429C15.0121 6.25 15.7143 5.55176 15.7143 4.6875V1.5625C15.7143 0.698242 15.0121 0 14.1429 0H11C10.1308 0 9.42857 0.698242 9.42857 1.5625ZM4.06116 8.54492C3.30982 8.97461 3.05446 9.93164 3.48661 10.6787L5.05804 13.3838C5.49018 14.1309 6.45268 14.3848 7.20402 13.9551L9.92455 12.3926C10.6759 11.9629 10.9312 11.0059 10.4991 10.2588L8.92768 7.55371C8.49554 6.80664 7.53304 6.55273 6.7817 6.98242L4.06116 8.54492ZM14.1429 7.8125C13.2737 7.8125 12.5714 8.51074 12.5714 9.375V12.5C12.5714 13.3643 13.2737 14.0625 14.1429 14.0625H17.2857C18.1549 14.0625 18.8571 13.3643 18.8571 12.5V9.375C18.8571 8.51074 18.1549 7.8125 17.2857 7.8125H14.1429ZM17.2857 15.625C16.4165 15.625 15.7143 16.3232 15.7143 17.1875V20.3125C15.7143 21.1768 16.4165 21.875 17.2857 21.875H20.4286C21.2978 21.875 22 21.1768 22 20.3125V17.1875C22 16.3232 21.2978 15.625 20.4286 15.625H17.2857ZM7.85714 17.1875V20.3125C7.85714 21.1768 8.55937 21.875 9.42857 21.875H12.5714C13.4406 21.875 14.1429 21.1768 14.1429 20.3125V17.1875C14.1429 16.3232 13.4406 15.625 12.5714 15.625H9.42857C8.55937 15.625 7.85714 16.3232 7.85714 17.1875ZM1.57143 15.625C0.702232 15.625 0 16.3232 0 17.1875V20.3125C0 21.1768 0.702232 21.875 1.57143 21.875H4.71429C5.58348 21.875 6.28571 21.1768 6.28571 20.3125V17.1875C6.28571 16.3232 5.58348 15.625 4.71429 15.625H1.57143Z" fill="#1C152E"/>
</svg>
