<svg width="42" height="41" viewBox="0 0 42 41" fill="none" xmlns="http://www.w3.org/2000/svg">
<path fill-rule="evenodd" clip-rule="evenodd" d="M39.8917 11.0565C39.4906 11.2004 39.0569 11.2275 38.641 11.1345C38.2252 11.0416 37.8443 10.8325 37.5427 10.5315L35.8867 8.8725L23.2957 21.4635C23.0867 21.6726 22.8386 21.8384 22.5655 21.9516C22.2924 22.0648 21.9997 22.123 21.7042 22.123C21.4086 22.123 21.1159 22.0648 20.8428 21.9516C20.5697 21.8384 20.3216 21.6726 20.1127 21.4635L15.3097 16.6605L3.86765 28.1025C3.65999 28.3173 3.41164 28.4886 3.13707 28.6064C2.86251 28.7242 2.56724 28.7861 2.26848 28.7885C1.96973 28.791 1.67348 28.7339 1.39702 28.6207C1.12055 28.5074 0.869418 28.3402 0.65826 28.1289C0.447102 27.9175 0.280151 27.6662 0.16715 27.3896C0.054148 27.1131 -0.00264162 26.8168 9.43555e-05 26.518C0.00283033 26.2193 0.0650371 25.9241 0.183085 25.6496C0.301133 25.3751 0.472658 25.127 0.687651 24.9195L13.7137 11.8845C13.9226 11.6754 14.1707 11.5096 14.4438 11.3964C14.7169 11.2832 15.0096 11.225 15.3052 11.225C15.6007 11.225 15.8934 11.2832 16.1665 11.3964C16.4396 11.5096 16.6877 11.6754 16.8967 11.8845L21.7027 16.6905L32.7037 5.6895L31.0477 4.0335C30.7461 3.73231 30.5363 3.35167 30.4426 2.93588C30.349 2.52009 30.3754 2.08625 30.5187 1.68487C30.662 1.28349 30.9164 0.931067 31.2522 0.668635C31.5881 0.406203 31.9915 0.244553 32.4156 0.2025C35.1547 -0.0675 36.7297 -0.0675 39.3667 0.2025C39.8813 0.255712 40.3619 0.484654 40.7274 0.850767C41.093 1.21688 41.3212 1.69779 41.3736 2.2125C41.6467 4.8465 41.6437 6.4245 41.3736 9.1605C41.3315 9.58441 41.1698 9.98764 40.9074 10.3233C40.6451 10.6589 40.2928 10.9132 39.8917 11.0565ZM35.0227 15.5805C35.3626 15.2509 35.7978 15.0369 36.2665 14.969C36.7351 14.9012 37.2132 14.9829 37.6327 15.2025L40.5487 16.7325C40.926 16.9311 41.2391 17.2328 41.4515 17.6024C41.664 17.9721 41.767 18.3945 41.7486 18.8205L40.9207 38.5845C40.8966 39.165 40.649 39.7137 40.2296 40.1157C39.8103 40.5177 39.2516 40.742 38.6707 40.7415H32.7547C32.5557 40.7415 32.365 40.6625 32.2243 40.5218C32.0837 40.3812 32.0047 40.1904 32.0047 39.9915V18.8235C32.0045 18.7228 32.0245 18.6231 32.0637 18.5303C32.1029 18.4375 32.1603 18.3536 32.2327 18.2835L35.0227 15.5805ZM28.2547 39.9915C28.2547 40.1904 28.1756 40.3812 28.035 40.5218C27.8943 40.6625 27.7036 40.7415 27.5047 40.7415H16.2547C16.0557 40.7415 15.865 40.6625 15.7243 40.5218C15.5837 40.3812 15.5047 40.1904 15.5047 39.9915V22.5495C15.5047 22.4895 15.5497 22.4415 15.6097 22.4475C16.0987 22.4715 16.5787 22.6575 16.9747 23.0025L21.9097 27.3345C22.0512 27.459 22.2344 27.5257 22.4228 27.5213C22.6113 27.5168 22.7912 27.4416 22.9267 27.3105L26.9827 23.3745C27.0885 23.2719 27.2223 23.2027 27.3673 23.1757C27.5123 23.1487 27.662 23.165 27.7977 23.2227C27.9335 23.2803 28.0492 23.3767 28.1305 23.4997C28.2118 23.6228 28.2549 23.767 28.2547 23.9145V39.9915ZM10.4677 26.6025L1.13765 36.1305C0.724724 36.5508 0.493138 37.1163 0.492651 37.7055V38.4915C0.492651 39.7335 1.50065 40.7415 2.74265 40.7415H11.0047C11.2036 40.7415 11.3943 40.6625 11.535 40.5218C11.6756 40.3812 11.7547 40.1904 11.7547 39.9915V27.1275C11.7549 26.9782 11.7107 26.8323 11.6275 26.7083C11.5444 26.5843 11.4261 26.488 11.2879 26.4316C11.1497 26.3752 10.9978 26.3614 10.8517 26.3918C10.7056 26.4223 10.5719 26.4956 10.4677 26.6025Z" fill="#BB8EFF"/>
</svg>
