<svg width="23" height="32" viewBox="0 0 23 32" fill="none" xmlns="http://www.w3.org/2000/svg">
<path d="M7.93575 22.0066L7.9335 21.9998L7.506 21.8603C5.4728 21.1417 3.68899 19.8538 2.367 18.1501C1.29799 16.7735 0.563454 15.1673 0.221327 13.4583C-0.1208 11.7493 -0.0611581 9.98415 0.395548 8.30212C0.852254 6.62009 1.69353 5.06718 2.85302 3.76589C4.01252 2.46459 5.45851 1.45049 7.07694 0.80359C8.69537 0.156689 10.442 -0.105323 12.179 0.0382198C13.916 0.181763 15.5959 0.726936 17.0862 1.63074C18.5765 2.53454 19.8364 3.77224 20.7665 5.24622C21.6967 6.72021 22.2716 8.39015 22.446 10.1243C22.5068 10.7431 21.996 11.2471 21.375 11.2471C20.754 11.2471 20.2568 10.7408 20.1825 10.1243C19.9817 8.5332 19.3594 7.02463 18.3799 5.75471C17.4005 4.4848 16.0995 3.49966 14.6115 2.90125C13.1236 2.30283 11.5028 2.11287 9.91685 2.35103C8.33088 2.58918 6.83736 3.24679 5.59081 4.25582C4.34427 5.26485 3.38998 6.58864 2.82671 8.09022C2.26343 9.5918 2.11162 11.2166 2.38699 12.7965C2.66235 14.3765 3.35489 15.8541 4.39294 17.0766C5.43099 18.2991 6.77685 19.222 8.29125 19.7498C8.67325 19.0531 9.28881 18.5135 10.0296 18.226C10.7703 17.9386 11.5887 17.9216 12.3407 18.1783C13.0927 18.4349 13.73 18.9486 14.1405 19.629C14.5509 20.3093 14.7082 21.1127 14.5845 21.8976C14.4609 22.6825 14.0643 23.3986 13.4645 23.9198C12.8648 24.441 12.1004 24.7339 11.306 24.7469C10.5115 24.76 9.73791 24.4923 9.12141 23.991C8.50492 23.4897 8.08506 22.787 7.93575 22.0066ZM6.1515 23.7503C3.94787 22.8507 2.02127 21.3844 0.567 19.5001C0.19736 20.0544 7.26071e-05 20.7058 0 21.3721V22.4971C0 26.9318 4.185 31.4971 11.25 31.4971C18.315 31.4971 22.5 26.9318 22.5 22.4971V21.3721C22.5 20.477 22.1444 19.6185 21.5115 18.9856C20.8785 18.3527 20.0201 17.9971 19.125 17.9971H15.75C16.2219 18.6273 16.5563 19.3496 16.7314 20.1172C16.9066 20.8849 16.9186 21.6807 16.7668 22.4533C16.615 23.2258 16.3026 23.9579 15.85 24.6022C15.3974 25.2464 14.8146 25.7885 14.1392 26.1933C13.4639 26.598 12.7111 26.8565 11.9296 26.952C11.1481 27.0475 10.3552 26.9779 9.60226 26.7476C8.84934 26.5173 8.15314 26.1316 7.55872 25.6153C6.9643 25.099 6.48488 24.4636 6.1515 23.7503ZM18 11.2471C18 9.19058 17.0798 7.34783 15.6285 6.11033C14.9199 5.51014 14.0951 5.06261 13.2057 4.79573C12.3163 4.52885 11.3813 4.44836 10.4594 4.55929C9.5374 4.67023 8.64825 4.9702 7.84751 5.44045C7.04678 5.91071 6.35168 6.54112 5.8057 7.29227C5.25972 8.04342 4.87461 8.89914 4.67443 9.80592C4.47426 10.7127 4.46334 11.651 4.64236 12.5622C4.82138 13.4734 5.18648 14.3379 5.71483 15.1015C6.24319 15.8652 6.92342 16.5116 7.713 17.0003C8.71349 16.1892 9.96203 15.7461 11.25 15.7448C12.5374 15.7448 13.7859 16.1864 14.787 16.9958C15.7689 16.3917 16.5797 15.5462 17.1422 14.5399C17.7046 13.5336 17.9999 12.3999 18 11.2471Z" fill="white"/>
</svg>
