<svg width="314" height="175" viewBox="0 0 314 175" fill="none" xmlns="http://www.w3.org/2000/svg">
<g clip-path="url(#clip0_426_1450)">
<rect width="314" height="175" rx="20" fill="#1C152E"/>
<path d="M127.188 108.125C131 108.125 133.125 110.469 133.125 114.062C133.125 117.562 130.906 120 127.188 120H122.656V108.125H127.188ZM127.125 117.969C129.406 117.969 130.656 116.469 130.656 114.062C130.656 111.656 129.406 110.156 127.125 110.156H125.062V117.969H127.125ZM139.469 120.156C136.531 120.156 134.625 118.25 134.625 115.312C134.625 112.406 136.594 110.469 139.469 110.469C142.406 110.469 144.312 112.375 144.312 115.312C144.312 118.219 142.344 120.156 139.469 120.156ZM139.469 118.281C141.031 118.281 142 117.156 142 115.312C142 113.469 141.031 112.344 139.469 112.344C137.906 112.344 136.938 113.469 136.938 115.312C136.938 117.156 137.906 118.281 139.469 118.281ZM149.5 120.156C147.812 120.156 146.312 119.625 145.312 118.719L146.5 117.125C147.25 117.812 148.281 118.25 149.562 118.25C150.531 118.25 151.281 117.969 151.281 117.375C151.281 116.906 150.875 116.625 149.219 116.25C146.781 115.656 145.75 114.781 145.75 113.312C145.75 111.594 147.25 110.469 149.594 110.469C150.938 110.469 152.188 110.875 153.281 111.625L152.094 113.281C151.281 112.656 150.438 112.344 149.406 112.344C148.5 112.344 147.906 112.656 147.906 113.188C147.906 113.688 148.312 113.969 149.75 114.312C152.438 114.969 153.438 115.75 153.438 117.281C153.438 119.094 151.969 120.156 149.5 120.156ZM155.375 109.375V107.375H157.812V109.375H155.375ZM155.469 120V110.625H157.719V120H155.469ZM160.75 109.375V107.375H163.188V109.375H160.75ZM160.25 123.188C159.938 123.188 159.562 123.156 159.25 123.125V121.125C159.5 121.156 159.75 121.156 160 121.156C160.5 121.156 160.844 120.875 160.844 120.312V110.625H163.094V120.281C163.094 122.375 162.062 123.188 160.25 123.188ZM167.375 116.031C167.594 117.438 168.531 118.281 170 118.281C171.219 118.281 172.094 117.812 172.656 117.156L174.062 118.5C173.219 119.469 171.875 120.156 170 120.156C166.781 120.156 165.125 118.094 165.125 115.312C165.125 112.438 167 110.469 169.844 110.469C172.625 110.469 174.438 112.375 174.438 115.312C174.438 115.531 174.438 115.719 174.344 116.031H167.375ZM169.844 112.281C168.531 112.281 167.656 113.062 167.406 114.375H172.156C171.906 113.031 171.062 112.281 169.844 112.281ZM187.844 110.469C189.812 110.469 191.125 111.906 191.125 114.062V120H188.875V114.594C188.875 113.156 188.281 112.344 187.156 112.344C185.844 112.344 184.906 113.281 184.906 114.625V120H182.656V114.594C182.656 113.156 182.062 112.344 180.938 112.344C179.625 112.344 178.688 113.281 178.688 114.625V120H176.438V110.625H178.438L178.562 111.938C179.219 111.031 180.312 110.469 181.656 110.469C183 110.469 184.031 111.125 184.531 112.25C185.188 111.156 186.375 110.469 187.844 110.469Z" fill="white"/>
<rect x="130" y="30" width="54" height="54" rx="15" fill="#291F44"/>
<path d="M165.016 62C165.589 62 166.073 62.2 166.466 62.6C166.859 63 167.053 63.4667 167.046 64L159.016 67L152.016 65V56H153.966L161.236 58.69C161.756 58.8967 162.016 59.27 162.016 59.81C162.016 60.1233 161.903 60.3967 161.676 60.63C161.449 60.8633 161.163 60.9867 160.816 61H158.016L156.266 60.33L155.936 61.27L158.016 62H165.016ZM161.016 48.23C161.723 47.41 162.623 47 163.716 47C164.623 47 165.389 47.3333 166.016 48C166.643 48.6667 166.976 49.4333 167.016 50.3C167.016 50.9867 166.683 51.8067 166.016 52.76C165.349 53.7133 164.693 54.51 164.046 55.15C163.399 55.79 162.389 56.74 161.016 58C159.629 56.74 158.609 55.79 157.956 55.15C157.303 54.51 156.646 53.7133 155.986 52.76C155.326 51.8067 155.003 50.9867 155.016 50.3C155.016 49.3933 155.339 48.6267 155.986 48C156.633 47.3733 157.413 47.04 158.326 47C159.393 47 160.289 47.41 161.016 48.23ZM146 56H150.016V67H146V56Z" fill="#BB8EFF"/>
<path d="M28.7305 142.137C27.1172 142.137 25.6133 141.617 24.5469 140.633L25.5586 139.32C26.4336 140.168 27.6367 140.633 28.8672 140.633C30.2891 140.633 31.1367 140.086 31.1367 139.184C31.1367 138.418 30.5078 138.09 28.7852 137.598C26.8164 137.023 24.9297 136.422 24.9297 134.426C24.9297 132.621 26.4883 131.473 28.8672 131.473C30.3164 131.473 31.5469 131.883 32.6133 132.703L31.6562 134.016C30.8906 133.387 29.9062 132.977 28.7578 132.977C27.4727 132.977 26.6523 133.523 26.6523 134.344C26.6523 135.109 27.3359 135.492 29.1133 135.957C31.4922 136.559 32.8594 137.297 32.8594 139.02C32.8594 140.934 31.3008 142.137 28.7305 142.137ZM38.3555 142.137C35.8398 142.137 34.1992 140.469 34.1992 137.898C34.1992 135.383 35.8945 133.66 38.3555 133.66C40.8711 133.66 42.5117 135.328 42.5117 137.898C42.5117 140.414 40.8164 142.137 38.3555 142.137ZM38.3555 140.742C39.8594 140.742 40.8438 139.621 40.8438 137.898C40.8438 136.176 39.8594 135.055 38.3555 135.055C36.8516 135.055 35.8672 136.176 35.8672 137.898C35.8672 139.621 36.8516 140.742 38.3555 140.742ZM54.2969 133.66C56.0742 133.66 57.2227 134.918 57.2227 136.805V142H55.582V137.242C55.582 135.848 54.9805 135.055 53.8594 135.055C52.6016 135.055 51.6719 135.984 51.6719 137.297V142H50.0312V137.242C50.0312 135.848 49.457 135.055 48.3086 135.055C47.0508 135.055 46.1211 135.984 46.1211 137.297V142H44.4805V133.797H45.9023L46.0117 135.027C46.5859 134.18 47.5703 133.66 48.7734 133.66C50.0039 133.66 50.9062 134.262 51.3711 135.246C51.9453 134.289 53.0117 133.66 54.2969 133.66ZM60.6953 138.418C60.8867 139.84 61.7891 140.742 63.2383 140.742C64.4414 140.742 65.207 140.277 65.6719 139.676L66.793 140.66C66.1094 141.48 64.9609 142.137 63.2383 142.137C60.5312 142.137 59.0547 140.332 59.0547 137.898C59.0547 135.383 60.6953 133.66 63.1016 133.66C65.5078 133.66 67.0664 135.328 67.0664 137.898C67.0664 138.09 67.0664 138.227 67.0117 138.418H60.6953ZM63.1016 135.027C61.8164 135.027 60.9688 135.848 60.7227 137.16H65.3984C65.1797 135.82 64.332 135.027 63.1016 135.027ZM74.668 131.062H76.3086V142H74.8867L74.7773 140.715C74.1211 141.617 73.1367 142.137 71.9609 142.137C69.8008 142.137 68.3789 140.469 68.3789 137.898C68.3789 135.383 69.8555 133.66 71.9609 133.66C73.082 133.66 74.0391 134.098 74.668 134.891V131.062ZM72.3984 140.742C73.8477 140.742 74.7773 139.621 74.7773 137.898C74.7773 136.176 73.8477 135.055 72.3984 135.055C70.9492 135.055 70.0469 136.176 70.0469 137.898C70.0469 139.621 70.9492 140.742 72.3984 140.742ZM85.5508 140.578H85.8516V142C85.7695 142.027 85.5508 142.055 85.2773 142.055C84.2656 142.055 83.8008 141.699 83.6914 140.742C83.1172 141.59 82.0234 142.137 80.8203 142.137C79.207 142.137 78.1406 141.152 78.1406 139.73C78.1406 137.707 80.082 137.27 81.668 137.023C82.8984 136.859 83.5 136.75 83.5 136.121C83.5 135.465 82.8164 135.027 81.7773 135.027C80.8477 135.027 79.9727 135.438 79.3164 136.121L78.3047 135.055C79.2617 134.152 80.4375 133.66 81.8594 133.66C83.8281 133.66 85.0312 134.672 85.0312 136.367V140.059C85.0312 140.414 85.1953 140.578 85.5508 140.578ZM81.0938 140.797C82.3516 140.797 83.4453 139.922 83.4453 138.883V137.816C83.1445 138.008 82.6523 138.09 81.8594 138.227C80.8203 138.391 79.7539 138.555 79.7539 139.621C79.7539 140.387 80.2461 140.797 81.0938 140.797ZM93.2344 133.797H94.9297L91.8945 142.301C91.375 143.777 90.4727 144.871 89.0781 144.871C87.4375 144.871 86.7266 143.723 86.7266 142.465L88.2305 142.219C88.2031 142.848 88.3945 143.395 89.1055 143.395C89.543 143.395 89.8711 143.094 90.1719 142.547L86.3164 133.797H88.1211L90.9922 140.66L93.2344 133.797ZM106.578 133.797H108.273L105.238 142.301C104.719 143.777 103.816 144.871 102.422 144.871C100.781 144.871 100.07 143.723 100.07 142.465L101.574 142.219C101.547 142.848 101.738 143.395 102.449 143.395C102.887 143.395 103.215 143.094 103.516 142.547L99.6602 133.797H101.465L104.336 140.66L106.578 133.797ZM113.059 142.137C110.543 142.137 108.902 140.469 108.902 137.898C108.902 135.383 110.598 133.66 113.059 133.66C115.574 133.66 117.215 135.328 117.215 137.898C117.215 140.414 115.52 142.137 113.059 142.137ZM113.059 140.742C114.562 140.742 115.547 139.621 115.547 137.898C115.547 136.176 114.562 135.055 113.059 135.055C111.555 135.055 110.57 136.176 110.57 137.898C110.57 139.621 111.555 140.742 113.059 140.742ZM124.816 133.797H126.457V142H125.035L124.926 140.715C124.297 141.59 123.258 142.137 122.027 142.137C120.277 142.137 119.047 140.879 119.047 138.992V133.797H120.688V138.555C120.688 139.949 121.371 140.742 122.492 140.742C123.777 140.742 124.816 139.812 124.816 138.5V133.797ZM133.43 133.66C133.648 133.66 133.84 133.688 134.059 133.742V135.301C133.703 135.273 133.32 135.246 132.965 135.246C131.652 135.246 130.668 136.094 130.668 137.406V142H129.027V133.797H130.449L130.559 135.109C131.16 134.234 132.199 133.66 133.43 133.66ZM144.395 133.66C144.613 133.66 144.805 133.688 145.023 133.742V135.301C144.668 135.273 144.285 135.246 143.93 135.246C142.617 135.246 141.633 136.094 141.633 137.406V142H139.992V133.797H141.414L141.523 135.109C142.125 134.234 143.164 133.66 144.395 133.66ZM147.211 138.418C147.402 139.84 148.305 140.742 149.754 140.742C150.957 140.742 151.723 140.277 152.188 139.676L153.309 140.66C152.625 141.48 151.477 142.137 149.754 142.137C147.047 142.137 145.57 140.332 145.57 137.898C145.57 135.383 147.211 133.66 149.617 133.66C152.023 133.66 153.582 135.328 153.582 137.898C153.582 138.09 153.582 138.227 153.527 138.418H147.211ZM149.617 135.027C148.332 135.027 147.484 135.848 147.238 137.16H151.914C151.695 135.82 150.848 135.027 149.617 135.027ZM160.883 133.797H162.605L159.379 142H157.465L154.238 133.797H156.043L158.449 140.332L160.883 133.797ZM164.191 132.648V131.008H165.996V132.648H164.191ZM164.273 142V133.797H165.914V142H164.273ZM169.66 138.418C169.852 139.84 170.754 140.742 172.203 140.742C173.406 140.742 174.172 140.277 174.637 139.676L175.758 140.66C175.074 141.48 173.926 142.137 172.203 142.137C169.496 142.137 168.02 140.332 168.02 137.898C168.02 135.383 169.66 133.66 172.066 133.66C174.473 133.66 176.031 135.328 176.031 137.898C176.031 138.09 176.031 138.227 175.977 138.418H169.66ZM172.066 135.027C170.781 135.027 169.934 135.848 169.688 137.16H174.363C174.145 135.82 173.297 135.027 172.066 135.027ZM187.406 133.797H189.02L186.504 142H184.727L182.922 135.984L181.145 142H179.34L176.824 133.797H178.52L180.297 140.141L182.129 133.797H183.742L185.602 140.141L187.406 133.797ZM204.742 133.797H206.355L203.84 142H202.062L200.258 135.984L198.48 142H196.676L194.16 133.797H195.855L197.633 140.141L199.465 133.797H201.078L202.938 140.141L204.742 133.797ZM208.078 132.648V131.008H209.883V132.648H208.078ZM208.16 142V133.797H209.801V142H208.16ZM212.508 142V131.062H214.148V142H212.508ZM216.719 142V131.062H218.359V142H216.719ZM229.652 133.66C231.812 133.66 233.234 135.328 233.234 137.898C233.234 140.414 231.758 142.137 229.652 142.137C228.449 142.137 227.465 141.645 226.836 140.742L226.727 142H225.305V131.062H226.945V134.945C227.602 134.125 228.531 133.66 229.652 133.66ZM229.215 140.742C230.664 140.742 231.566 139.621 231.566 137.898C231.566 136.176 230.664 135.055 229.215 135.055C227.766 135.055 226.836 136.176 226.836 137.898C226.836 139.621 227.766 140.742 229.215 140.742ZM236.242 138.418C236.434 139.84 237.336 140.742 238.785 140.742C239.988 140.742 240.754 140.277 241.219 139.676L242.34 140.66C241.656 141.48 240.508 142.137 238.785 142.137C236.078 142.137 234.602 140.332 234.602 137.898C234.602 135.383 236.242 133.66 238.648 133.66C241.055 133.66 242.613 135.328 242.613 137.898C242.613 138.09 242.613 138.227 242.559 138.418H236.242ZM238.648 135.027C237.363 135.027 236.516 135.848 236.27 137.16H240.945C240.727 135.82 239.879 135.027 238.648 135.027ZM253.305 133.66C255.082 133.66 256.285 134.918 256.285 136.805V142H254.645V137.242C254.645 135.848 253.961 135.055 252.84 135.055C251.582 135.055 250.543 135.984 250.543 137.297V142H248.902V131.062H250.543V134.945C251.172 134.152 252.156 133.66 253.305 133.66ZM259.758 138.418C259.949 139.84 260.852 140.742 262.301 140.742C263.504 140.742 264.27 140.277 264.734 139.676L265.855 140.66C265.172 141.48 264.023 142.137 262.301 142.137C259.594 142.137 258.117 140.332 258.117 137.898C258.117 135.383 259.758 133.66 262.164 133.66C264.57 133.66 266.129 135.328 266.129 137.898C266.129 138.09 266.129 138.227 266.074 138.418H259.758ZM262.164 135.027C260.879 135.027 260.031 135.848 259.785 137.16H264.461C264.242 135.82 263.395 135.027 262.164 135.027ZM272.445 133.66C272.664 133.66 272.855 133.688 273.074 133.742V135.301C272.719 135.273 272.336 135.246 271.98 135.246C270.668 135.246 269.684 136.094 269.684 137.406V142H268.043V133.797H269.465L269.574 135.109C270.176 134.234 271.215 133.66 272.445 133.66ZM275.262 138.418C275.453 139.84 276.355 140.742 277.805 140.742C279.008 140.742 279.773 140.277 280.238 139.676L281.359 140.66C280.676 141.48 279.527 142.137 277.805 142.137C275.098 142.137 273.621 140.332 273.621 137.898C273.621 135.383 275.262 133.66 277.668 133.66C280.074 133.66 281.633 135.328 281.633 137.898C281.633 138.09 281.633 138.227 281.578 138.418H275.262ZM277.668 135.027C276.383 135.027 275.535 135.848 275.289 137.16H279.965C279.746 135.82 278.898 135.027 277.668 135.027ZM283.984 144.023L283.328 143.176C285.051 141.836 286.062 139.73 286.062 137.352C286.062 134.945 285.051 132.84 283.328 131.527L283.984 130.652C286.309 131.883 287.758 134.426 287.758 137.352C287.758 140.25 286.309 142.793 283.984 144.023Z" fill="#C2C2C2"/>
</g>
<defs>
<clipPath id="clip0_426_1450">
<rect width="314" height="175" rx="22" fill="white"/>
</clipPath>
</defs>
</svg>
