<svg width="314" height="175" viewBox="0 0 314 175" fill="none" xmlns="http://www.w3.org/2000/svg">
<g clip-path="url(#clip0_315_5509)">
<rect width="314" height="175" rx="20" fill="#1C152E"/>
<path d="M127.188 108.125C131 108.125 133.125 110.469 133.125 114.062C133.125 117.562 130.906 120 127.188 120H122.656V108.125H127.188ZM127.125 117.969C129.406 117.969 130.656 116.469 130.656 114.062C130.656 111.656 129.406 110.156 127.125 110.156H125.062V117.969H127.125ZM139.469 120.156C136.531 120.156 134.625 118.25 134.625 115.312C134.625 112.406 136.594 110.469 139.469 110.469C142.406 110.469 144.312 112.375 144.312 115.312C144.312 118.219 142.344 120.156 139.469 120.156ZM139.469 118.281C141.031 118.281 142 117.156 142 115.312C142 113.469 141.031 112.344 139.469 112.344C137.906 112.344 136.938 113.469 136.938 115.312C136.938 117.156 137.906 118.281 139.469 118.281ZM149.5 120.156C147.812 120.156 146.312 119.625 145.312 118.719L146.5 117.125C147.25 117.812 148.281 118.25 149.562 118.25C150.531 118.25 151.281 117.969 151.281 117.375C151.281 116.906 150.875 116.625 149.219 116.25C146.781 115.656 145.75 114.781 145.75 113.312C145.75 111.594 147.25 110.469 149.594 110.469C150.938 110.469 152.188 110.875 153.281 111.625L152.094 113.281C151.281 112.656 150.438 112.344 149.406 112.344C148.5 112.344 147.906 112.656 147.906 113.188C147.906 113.688 148.312 113.969 149.75 114.312C152.438 114.969 153.438 115.75 153.438 117.281C153.438 119.094 151.969 120.156 149.5 120.156ZM155.375 109.375V107.375H157.812V109.375H155.375ZM155.469 120V110.625H157.719V120H155.469ZM160.75 109.375V107.375H163.188V109.375H160.75ZM160.25 123.188C159.938 123.188 159.562 123.156 159.25 123.125V121.125C159.5 121.156 159.75 121.156 160 121.156C160.5 121.156 160.844 120.875 160.844 120.312V110.625H163.094V120.281C163.094 122.375 162.062 123.188 160.25 123.188ZM167.375 116.031C167.594 117.438 168.531 118.281 170 118.281C171.219 118.281 172.094 117.812 172.656 117.156L174.062 118.5C173.219 119.469 171.875 120.156 170 120.156C166.781 120.156 165.125 118.094 165.125 115.312C165.125 112.438 167 110.469 169.844 110.469C172.625 110.469 174.438 112.375 174.438 115.312C174.438 115.531 174.438 115.719 174.344 116.031H167.375ZM169.844 112.281C168.531 112.281 167.656 113.062 167.406 114.375H172.156C171.906 113.031 171.062 112.281 169.844 112.281ZM187.844 110.469C189.812 110.469 191.125 111.906 191.125 114.062V120H188.875V114.594C188.875 113.156 188.281 112.344 187.156 112.344C185.844 112.344 184.906 113.281 184.906 114.625V120H182.656V114.594C182.656 113.156 182.062 112.344 180.938 112.344C179.625 112.344 178.688 113.281 178.688 114.625V120H176.438V110.625H178.438L178.562 111.938C179.219 111.031 180.312 110.469 181.656 110.469C183 110.469 184.031 111.125 184.531 112.25C185.188 111.156 186.375 110.469 187.844 110.469Z" fill="white"/>
<rect x="130" y="30" width="54" height="54" rx="15" fill="#291F44"/>
<path d="M165.016 62C165.589 62 166.073 62.2 166.466 62.6C166.859 63 167.053 63.4667 167.046 64L159.016 67L152.016 65V56H153.966L161.236 58.69C161.756 58.8967 162.016 59.27 162.016 59.81C162.016 60.1233 161.903 60.3967 161.676 60.63C161.449 60.8633 161.163 60.9867 160.816 61H158.016L156.266 60.33L155.936 61.27L158.016 62H165.016ZM161.016 48.23C161.723 47.41 162.623 47 163.716 47C164.623 47 165.389 47.3333 166.016 48C166.643 48.6667 166.976 49.4333 167.016 50.3C167.016 50.9867 166.683 51.8067 166.016 52.76C165.349 53.7133 164.693 54.51 164.046 55.15C163.399 55.79 162.389 56.74 161.016 58C159.629 56.74 158.609 55.79 157.956 55.15C157.303 54.51 156.646 53.7133 155.986 52.76C155.326 51.8067 155.003 50.9867 155.016 50.3C155.016 49.3933 155.339 48.6267 155.986 48C156.633 47.3733 157.413 47.04 158.326 47C159.393 47 160.289 47.41 161.016 48.23ZM146 56H150.016V67H146V56Z" fill="#BB8EFF"/>
<path d="M48.4492 142L44.8398 137.023L43.2812 138.555V142H41.5586V131.609H43.2812V136.559L48.1484 131.609H50.3086L46.043 135.82L50.5547 142H48.4492ZM55.6406 142.137C53.125 142.137 51.4844 140.469 51.4844 137.898C51.4844 135.383 53.1797 133.66 55.6406 133.66C58.1562 133.66 59.7969 135.328 59.7969 137.898C59.7969 140.414 58.1016 142.137 55.6406 142.137ZM55.6406 140.742C57.1445 140.742 58.1289 139.621 58.1289 137.898C58.1289 136.176 57.1445 135.055 55.6406 135.055C54.1367 135.055 53.1523 136.176 53.1523 137.898C53.1523 139.621 54.1367 140.742 55.6406 140.742ZM68.6289 133.797V142H66.9883V135.246H63.5977V138.199C63.5977 141.18 62.9688 142.055 61.3828 142.055C61.082 142.055 60.8086 142.027 60.6172 142V140.496H61.0547C61.7656 140.496 61.9844 140.305 61.9844 138.035V133.797H68.6289ZM76.8047 133.797H78.5V142H76.8867V136.039L72.8945 142H71.1992V133.797H72.8125V139.703L76.8047 133.797ZM84.5703 142.137C82.1367 142.137 80.4688 140.414 80.4688 137.898C80.4688 135.383 82.1367 133.66 84.5703 133.66C86.3477 133.66 87.7695 134.562 88.2344 136.121L86.6758 136.613C86.3203 135.656 85.582 135.055 84.5703 135.055C83.0664 135.055 82.1367 136.176 82.1367 137.898C82.1367 139.621 83.0664 140.742 84.5703 140.742C85.5547 140.742 86.3203 140.141 86.6758 139.184L88.2344 139.676C87.7695 141.234 86.3203 142.137 84.5703 142.137ZM93.8672 136.887C95.6992 136.887 96.8203 137.871 96.8203 139.43C96.8203 140.988 95.6719 142 93.8672 142H89.9844V133.797H91.625V136.887H93.8672ZM93.7031 140.633C94.6602 140.633 95.1523 140.195 95.1523 139.43C95.1523 138.664 94.6602 138.227 93.7031 138.227H91.625V140.633H93.7031ZM109.535 133.797V135.246H106.582V142H104.941V135.246H101.988V133.797H109.535ZM116.918 133.797H118.613L115.578 142.301C115.059 143.777 114.156 144.871 112.762 144.871C111.121 144.871 110.41 143.723 110.41 142.465L111.914 142.219C111.887 142.848 112.078 143.395 112.789 143.395C113.227 143.395 113.555 143.094 113.855 142.547L110 133.797H111.805L114.676 140.66L116.918 133.797ZM126.598 133.797V135.246H123.645V142H122.004V135.246H119.051V133.797H126.598ZM140.023 138.336C140.051 140.551 138.41 142.137 136.059 142.137C133.598 142.137 132.039 140.305 132.039 137.434C132.039 134.262 133.188 132.594 135.703 132.074L137.645 131.664C137.945 131.609 138.109 131.445 138.164 131.117L138.219 130.871L139.777 131.145L139.75 131.418C139.668 132.348 139.121 132.895 138.164 133.113L135.785 133.605C134.336 133.906 133.652 134.645 133.516 135.984C134.117 135.137 135.156 134.645 136.496 134.645C138.52 134.645 139.996 136.176 140.023 138.336ZM136.059 140.742C137.453 140.742 138.328 139.812 138.328 138.363C138.328 136.859 137.453 135.93 136.059 135.93C134.664 135.93 133.762 136.832 133.762 138.281C133.762 139.73 134.691 140.742 136.059 140.742ZM147.516 133.797H149.211L146.176 142.301C145.656 143.777 144.754 144.871 143.359 144.871C141.719 144.871 141.008 143.723 141.008 142.465L142.512 142.219C142.484 142.848 142.676 143.395 143.387 143.395C143.824 143.395 144.152 143.094 144.453 142.547L140.598 133.797H142.402L145.273 140.66L147.516 133.797ZM157.496 140.551H158.59V143.914H157.031V142H151.125V143.914H149.566V140.551H150.523C150.688 139.895 150.77 138.828 150.77 137.215V133.797H157.496V140.551ZM152.109 140.551H155.883V135.246H152.355V137.297C152.355 138.609 152.273 139.73 152.109 140.551ZM161.215 138.418C161.406 139.84 162.309 140.742 163.758 140.742C164.961 140.742 165.727 140.277 166.191 139.676L167.312 140.66C166.629 141.48 165.48 142.137 163.758 142.137C161.051 142.137 159.574 140.332 159.574 137.898C159.574 135.383 161.215 133.66 163.621 133.66C166.027 133.66 167.586 135.328 167.586 137.898C167.586 138.09 167.586 138.227 167.531 138.418H161.215ZM163.621 135.027C162.336 135.027 161.488 135.848 161.242 137.16H165.918C165.699 135.82 164.852 135.027 163.621 135.027ZM173.93 132.648V131.008H175.734V132.648H173.93ZM174.012 142V133.797H175.652V142H174.012ZM189.27 133.797V135.246H186.316V142H184.676V135.246H181.723V133.797H189.27ZM196.242 137.789C197.145 138.117 197.637 138.773 197.637 139.758C197.637 141.234 196.57 142 194.793 142H190.828V133.797H194.492C196.297 133.797 197.418 134.453 197.418 135.93C197.418 136.832 196.98 137.461 196.242 137.789ZM192.414 135.109V137.188H194.492C195.422 137.188 195.805 136.887 195.805 136.121C195.805 135.465 195.34 135.109 194.574 135.109H192.414ZM194.629 140.688C195.504 140.688 195.996 140.277 195.996 139.566C195.996 138.855 195.449 138.418 194.52 138.418H192.414V140.688H194.629ZM199.715 132.648V131.008H201.52V132.648H199.715ZM199.797 142V133.797H201.438V142H199.797ZM207.781 133.031C206.359 133.031 205.43 132.32 205.293 131.09L206.578 130.871C206.66 131.555 207.098 131.938 207.781 131.938C208.465 131.938 208.902 131.555 208.984 130.871L210.27 131.09C210.133 132.32 209.203 133.031 207.781 133.031ZM209.75 133.797H211.445V142H209.832V136.039L205.84 142H204.145V133.797H205.758V139.703L209.75 133.797ZM223.805 137.789C224.707 138.117 225.199 138.773 225.199 139.758C225.199 141.234 224.133 142 222.355 142H218.391V133.797H222.055C223.859 133.797 224.98 134.453 224.98 135.93C224.98 136.832 224.543 137.461 223.805 137.789ZM219.977 135.109V137.188H222.055C222.984 137.188 223.367 136.887 223.367 136.121C223.367 135.465 222.902 135.109 222.137 135.109H219.977ZM222.191 140.688C223.066 140.688 223.559 140.277 223.559 139.566C223.559 138.855 223.012 138.418 222.082 138.418H219.977V140.688H222.191ZM227.277 132.648V131.008H229.082V132.648H227.277ZM227.359 142V133.797H229V142H227.359ZM238.816 140.551H239.91V143.914H238.352V142H232.445V143.914H230.887V140.551H231.844C232.008 139.895 232.09 138.828 232.09 137.215V133.797H238.816V140.551ZM233.43 140.551H237.203V135.246H233.676V137.297C233.676 138.609 233.594 139.73 233.43 140.551ZM247.621 133.797V135.301H243.355V142H241.715V133.797H247.621ZM255.004 133.797H256.699L253.664 142.301C253.145 143.777 252.242 144.871 250.848 144.871C249.207 144.871 248.496 143.723 248.496 142.465L250 142.219C249.973 142.848 250.164 143.395 250.875 143.395C251.312 143.395 251.641 143.094 251.941 142.547L248.086 133.797H249.891L252.762 140.66L255.004 133.797ZM263.727 142L260.965 138.199L259.789 139.32V142H258.148V133.797H259.789V137.461L263.48 133.797H265.559L262.141 137.078L265.723 142H263.727ZM267.473 144.023L266.816 143.176C268.539 141.836 269.551 139.73 269.551 137.352C269.551 134.945 268.539 132.84 266.816 131.527L267.473 130.652C269.797 131.883 271.246 134.426 271.246 137.352C271.246 140.25 269.797 142.793 267.473 144.023Z" fill="#C2C2C2"/>
</g>
<defs>
<clipPath id="clip0_315_5509">
<rect width="314" height="175" rx="22" fill="white"/>
</clipPath>
</defs>
</svg>
