<svg width="19" height="25" viewBox="0 0 19 25" fill="none" xmlns="http://www.w3.org/2000/svg">
<path d="M8.03542 0.292969C7.9612 0.117188 7.78802 0 7.59505 0H6.65495C6.46198 0 6.28385 0.117188 6.21458 0.292969L5.19036 2.81738C5.03203 3.20801 4.46797 3.20801 4.30964 2.81738L3.28542 0.292969C3.2112 0.117188 3.03802 0 2.84505 0H2.375C1.0638 0 0 1.0498 0 2.34375V12.5H19V2.34375C19 1.0498 17.9362 0 16.625 0H11.4049C11.212 0 11.0339 0.117188 10.9646 0.292969L9.94036 2.81738C9.78203 3.20801 9.21797 3.20801 9.05964 2.81738L8.03542 0.292969ZM0 14.0625V15.625C0 17.3486 1.42005 18.75 3.16667 18.75H6.33333V21.875C6.33333 23.5986 7.75339 25 9.5 25C11.2466 25 12.6667 23.5986 12.6667 21.875V18.75H15.8333C17.5799 18.75 19 17.3486 19 15.625V14.0625H0ZM9.5 21.0938C9.70996 21.0938 9.91133 21.1761 10.0598 21.3226C10.2083 21.4691 10.2917 21.6678 10.2917 21.875C10.2917 22.0822 10.2083 22.2809 10.0598 22.4274C9.91133 22.5739 9.70996 22.6562 9.5 22.6562C9.29004 22.6562 9.08867 22.5739 8.94021 22.4274C8.79174 22.2809 8.70833 22.0822 8.70833 21.875C8.70833 21.6678 8.79174 21.4691 8.94021 21.3226C9.08867 21.1761 9.29004 21.0938 9.5 21.0938Z" fill="white"/>
</svg>
