<svg width="19" height="13" viewBox="0 0 19 13" fill="none" xmlns="http://www.w3.org/2000/svg">
<path d="M6.16987 9.87187L16.0574 0.3375C16.2907 0.1125 16.5629 0 16.874 0C17.1852 0 17.4574 0.1125 17.6907 0.3375C17.924 0.5625 18.0407 0.829875 18.0407 1.13963C18.0407 1.44938 17.924 1.71638 17.6907 1.94063L6.98654 12.2906C6.7532 12.5156 6.48098 12.6281 6.16987 12.6281C5.85876 12.6281 5.58654 12.5156 5.35321 12.2906L0.336539 7.45312C0.103205 7.22813 -0.00879487 6.96112 0.000538461 6.65213C0.00987179 6.34313 0.131594 6.07575 0.365705 5.85C0.599816 5.62425 0.877094 5.51175 1.19754 5.5125C1.51798 5.51325 1.79487 5.62575 2.0282 5.85L6.16987 9.87187Z" fill="#BB8EFF"/>
</svg>
