<svg width="51" height="51" viewBox="0 0 51 51" fill="none" xmlns="http://www.w3.org/2000/svg">
<path d="M0 25.5C0 11.4167 11.4167 0 25.5 0C39.5833 0 51 11.4167 51 25.5C51 39.5833 39.5833 51 25.5 51C11.4167 51 0 39.5833 0 25.5Z" fill="#1C152E"/>
<path d="M44.7513 21.1365C45.5435 20.939 46.3512 21.4206 46.4924 22.2247C47.2059 26.2877 46.706 30.4832 45.0379 34.2799C43.171 38.529 39.9465 42.0383 35.8703 44.2573C31.794 46.4764 27.0964 47.2797 22.5144 46.5412C17.9324 45.8027 13.7251 43.5642 10.5524 40.1769C7.3797 36.7895 5.42107 32.4449 4.98371 27.8244C4.54634 23.2039 5.65499 18.5689 8.13576 14.6464C10.6165 10.7239 14.3291 7.73578 18.6912 6.15068C22.5888 4.73434 26.808 4.50976 30.8156 5.48729C31.6088 5.68075 32.0366 6.51827 31.7877 7.29582C31.5388 8.07337 30.7076 8.4956 29.9123 8.31134C26.5307 7.52789 22.9831 7.7367 19.7009 8.92938C15.9541 10.2909 12.7653 12.8575 10.6344 16.2267C8.50361 19.5959 7.55135 23.5771 7.92702 27.5458C8.30269 31.5145 9.98504 35.2463 12.7102 38.1558C15.4354 41.0654 19.0492 42.9881 22.9849 43.6224C26.9205 44.2567 30.9554 43.5667 34.4567 41.6607C37.958 39.7547 40.7276 36.7404 42.3311 33.0907C43.7358 29.8935 44.1761 26.3671 43.6154 22.9415C43.4835 22.1359 43.9592 21.334 44.7513 21.1365Z" fill="white"/>
<path d="M35.9186 23.3387C36.3406 23.2335 36.7709 23.4901 36.8461 23.9185C37.2262 26.0828 36.9599 28.3178 36.0713 30.3404C35.0768 32.6039 33.3591 34.4733 31.1876 35.6554C29.0161 36.8376 26.5137 37.2655 24.0728 36.8721C21.6319 36.4787 19.3906 35.2862 17.7005 33.4817C16.0104 31.6773 14.967 29.3628 14.734 26.9015C14.501 24.4401 15.0916 21.971 16.4131 19.8814C17.7347 17.7919 19.7124 16.2 22.0361 15.3556C24.1124 14.6011 26.36 14.4815 28.4949 15.0022C28.9174 15.1053 29.1453 15.5515 29.0128 15.9657C28.8802 16.3799 28.4374 16.6048 28.0137 16.5066C26.2123 16.0893 24.3224 16.2005 22.574 16.8359C20.5781 17.5612 18.8793 18.9284 17.7442 20.7232C16.6091 22.518 16.1018 24.6389 16.3019 26.753C16.5021 28.8672 17.3983 30.8552 18.85 32.4051C20.3017 33.955 22.2268 34.9793 24.3234 35.3172C26.42 35.6551 28.5694 35.2875 30.4346 34.2722C32.2997 33.2568 33.7751 31.6511 34.6293 29.7069C35.3776 28.0037 35.6122 26.1251 35.3135 24.3003C35.2432 23.8711 35.4966 23.444 35.9186 23.3387Z" fill="#9863E7"/>
<path d="M38.7108 10.9528C39.2462 10.4173 40.1144 10.4173 40.6498 10.9528C41.1853 11.4882 41.1853 12.3564 40.6498 12.8919L26.7992 26.7425C26.2638 27.278 25.3956 27.278 24.8601 26.7425C24.3247 26.207 24.3247 25.3389 24.8601 24.8034L38.7108 10.9528Z" fill="white"/>
</svg>
