<svg width="6931" height="1397" viewBox="0 0 6931 1397" fill="none" xmlns="http://www.w3.org/2000/svg">
<path d="M0 1316.71V160.575H356.438C368.212 160.575 388.817 160.842 418.253 161.378C447.688 161.913 475.786 164.054 502.546 167.8C591.923 179.576 666.582 212.226 726.524 265.751C787 318.741 832.492 386.182 862.998 468.075C893.504 549.968 908.757 640.158 908.757 738.644C908.757 837.129 893.504 927.319 862.998 1009.21C832.492 1091.11 787 1158.81 726.524 1212.34C666.582 1265.33 591.923 1297.71 502.546 1309.49C475.786 1312.7 447.421 1314.84 417.45 1315.91C388.014 1316.44 367.677 1316.71 356.438 1316.71H0ZM146.91 1180.22H356.438C376.775 1180.22 399.521 1179.69 424.675 1178.62C449.829 1177.01 471.772 1174.6 490.504 1171.39C553.656 1159.62 604.767 1133.12 643.836 1091.91C682.905 1050.69 711.538 999.31 729.735 937.756C747.931 876.203 757.03 809.832 757.03 738.644C757.03 665.85 747.664 598.676 728.932 537.122C710.735 475.569 682.103 424.452 643.034 383.773C603.965 343.095 553.121 317.135 490.504 305.895C471.772 302.148 449.562 299.739 423.872 298.669C398.183 297.598 375.705 297.063 356.438 297.063H146.91V1180.22Z" fill="white"/>
<path d="M3110.23 1340.8C3028.34 1340.8 2954.49 1326.88 2888.66 1299.05C2823.37 1271.22 2769.31 1231.61 2726.5 1180.22C2684.22 1128.3 2656.65 1067.02 2643.81 996.366L2791.52 973.083C2810.25 1045.88 2849.05 1102.88 2907.93 1144.09C2967.33 1184.77 3037.17 1205.11 3117.45 1205.11C3169.37 1205.11 3216.2 1197.08 3257.94 1181.03C3300.22 1164.43 3333.67 1140.88 3358.29 1110.37C3382.91 1079.86 3395.22 1043.74 3395.22 1001.99C3395.22 976.294 3390.67 954.349 3381.57 936.151C3373.01 917.417 3360.97 901.627 3345.45 888.781C3330.46 875.4 3313.33 864.159 3294.07 855.06C3274.8 845.961 3254.73 838.468 3233.86 832.58L2939.23 745.067C2907.12 735.432 2876.08 723.389 2846.11 708.937C2816.14 693.95 2789.38 675.484 2765.83 653.539C2742.28 631.059 2723.55 604.296 2709.64 573.252C2695.72 541.672 2688.76 504.472 2688.76 461.652C2688.76 393.14 2706.43 334.798 2741.75 286.626C2777.61 237.918 2826.04 200.718 2887.05 175.026C2948.06 149.334 3016.84 136.756 3093.37 137.291C3170.97 137.827 3240.28 151.743 3301.29 179.041C3362.84 205.803 3413.68 244.341 3453.82 294.655C3494.5 344.968 3521.79 405.183 3535.71 475.301L3383.98 501.796C3375.95 454.694 3358.02 414.283 3330.19 380.562C3302.9 346.306 3268.65 320.079 3227.44 301.88C3186.23 283.147 3141 273.512 3091.76 272.977C3044.67 272.442 3002.12 279.935 2964.12 295.457C2926.12 310.98 2895.88 332.657 2873.41 360.49C2850.93 387.788 2839.69 419.368 2839.69 455.229C2839.69 490.556 2849.86 519.192 2870.19 541.137C2890.53 562.547 2915.42 579.675 2944.85 592.521C2974.82 604.831 3003.99 615.001 3032.36 623.03L3252.32 686.457C3277.48 693.415 3306.38 703.05 3339.02 715.36C3372.2 727.671 3404.32 745.067 3435.36 767.547C3466.4 789.492 3492.09 818.931 3512.43 855.863C3532.76 892.26 3542.93 938.291 3542.93 993.957C3542.93 1049.62 3531.69 1099.13 3509.21 1142.49C3487.27 1185.84 3456.5 1222.24 3416.89 1251.68C3377.29 1280.58 3331.26 1302.53 3278.81 1317.52C3226.36 1333.04 3170.17 1340.8 3110.23 1340.8Z" fill="white"/>
<path d="M3727.38 1316.71V160.575H3870.28V1316.71H3727.38Z" fill="white"/>
<path d="M4319.88 1340C4239.07 1340 4170.56 1318.05 4114.37 1274.16C4058.17 1230.27 4019.64 1171.39 3998.76 1097.53L4140.86 1063.81C4149.42 1102.88 4170.03 1136.07 4202.67 1163.36C4235.85 1190.66 4273.85 1204.31 4316.67 1204.31C4344.5 1204.31 4372.86 1197.62 4401.76 1184.24C4430.67 1170.32 4452.88 1147.84 4468.4 1116.8C4479.1 1095.39 4485.25 1071.84 4486.86 1046.14C4488.47 1019.92 4489.27 989.14 4489.27 953.814V160.575H4633.77V953.814C4633.77 986.999 4633.5 1016.71 4632.97 1042.93C4632.97 1069.16 4630.29 1094.32 4624.94 1118.4C4620.12 1141.95 4610.49 1166.04 4596.04 1190.66C4567.14 1241.51 4528.34 1279.25 4479.63 1303.87C4431.47 1327.95 4378.22 1340 4319.88 1340Z" fill="white"/>
<path d="M4874.74 1316.71V160.575H5605.28V296.26H5017.64V658.356H5508.95V794.042H5017.64V1181.03H5605.28V1316.71H4874.74Z" fill="white"/>
<path d="M5798.27 1316.71V160.575H5928.32L6365.03 1081.47L6799.34 160.575H6931V1315.91H6795.33V474.498L6402.76 1316.71H6326.5L5933.94 474.498V1316.71H5798.27Z" fill="white"/>
<path d="M2452.21 541.436C2478.61 534.853 2505.53 550.904 2510.23 577.703C2534.01 713.109 2517.35 852.933 2461.76 979.467C2399.55 1121.08 2292.1 1238.03 2156.26 1311.99C2020.43 1385.94 1863.89 1412.71 1711.2 1388.1C1558.51 1363.49 1418.31 1288.89 1312.58 1176C1206.86 1063.11 1141.59 918.311 1127.01 764.324C1112.44 610.336 1149.38 455.865 1232.05 325.14C1314.72 194.414 1438.43 94.828 1583.79 42.001C1713.68 -5.20149 1854.28 -12.686 1987.83 19.8921C2014.26 26.3397 2028.51 54.2519 2020.22 80.1655C2011.92 106.079 1984.23 120.151 1957.72 114.01C1845.04 87.8997 1726.82 94.8585 1617.44 134.607C1492.59 179.982 1386.32 265.521 1315.32 377.806C1244.31 490.091 1212.58 622.772 1225.09 755.038C1237.61 887.304 1293.68 1011.67 1384.49 1108.64C1475.3 1205.61 1595.72 1269.68 1726.88 1290.82C1858.03 1311.96 1992.48 1288.97 2109.16 1225.45C2225.83 1161.93 2318.13 1061.47 2371.56 939.833C2418.37 833.281 2433.04 715.757 2414.36 601.592C2409.96 574.741 2425.81 548.018 2452.21 541.436Z" fill="white"/>
<path d="M2157.87 614.83C2171.94 611.323 2186.28 619.874 2188.78 634.15C2201.45 706.282 2192.57 780.768 2162.96 848.174C2129.82 923.611 2072.58 985.914 2000.22 1025.31C1927.86 1064.71 1844.47 1078.97 1763.13 1065.86C1681.79 1052.75 1607.1 1013.01 1550.78 952.867C1494.46 892.729 1459.69 815.595 1451.93 733.565C1444.16 651.534 1463.84 569.246 1507.88 499.607C1551.92 429.968 1617.82 376.918 1695.26 348.776C1764.45 323.631 1839.35 319.644 1910.49 336.998C1924.57 340.433 1932.16 355.302 1927.75 369.107C1923.33 382.911 1908.57 390.407 1894.45 387.136C1834.43 373.227 1771.45 376.934 1713.18 398.108C1646.67 422.28 1590.06 467.847 1552.24 527.663C1514.41 587.478 1497.51 658.159 1504.18 728.618C1510.85 799.078 1540.71 865.331 1589.09 916.986C1637.46 968.641 1701.62 1002.78 1771.48 1014.04C1841.35 1025.3 1912.97 1013.05 1975.13 979.21C2037.28 945.371 2086.45 891.857 2114.91 827.06C2139.85 770.299 2147.66 707.693 2137.71 646.876C2135.37 632.572 2143.81 618.336 2157.87 614.83Z" fill="#9863E7"/>
<path d="M2250.92 202.041C2268.76 184.195 2297.69 184.195 2315.54 202.041C2333.38 219.886 2333.38 248.82 2315.54 266.665L1853.98 728.267C1836.14 746.112 1807.21 746.112 1789.37 728.267C1771.52 710.421 1771.52 681.488 1789.37 663.643L2250.92 202.041Z" fill="white"/>
</svg>
