<svg width="1400" height="1400" viewBox="0 0 1400 1400" fill="none" xmlns="http://www.w3.org/2000/svg">
<path d="M1331.3 542.598C1357.76 536.002 1384.74 552.087 1389.45 578.943C1413.28 714.641 1396.58 854.765 1340.87 981.57C1278.52 1123.49 1170.83 1240.69 1034.69 1314.8C898.544 1388.92 741.653 1415.75 588.619 1391.08C435.586 1366.42 295.067 1291.66 189.103 1178.52C83.1392 1065.39 17.7234 920.283 3.11595 765.965C-11.4915 611.647 25.5358 456.844 108.39 325.838C191.245 194.832 315.24 95.0317 460.927 42.0912C591.103 -5.21266 732.019 -12.7132 865.868 19.9348C892.359 26.3963 906.646 54.3684 898.334 80.3376C890.022 106.307 862.26 120.409 835.697 114.254C722.756 88.0885 604.271 95.0622 494.651 134.896C369.514 180.369 263.01 266.091 191.843 378.617C120.676 491.144 88.872 624.11 101.419 756.66C113.966 889.21 170.154 1013.85 261.171 1111.02C352.188 1208.2 472.884 1272.41 604.331 1293.6C735.777 1314.78 870.537 1291.74 987.475 1228.08C1104.41 1164.42 1196.91 1063.75 1250.47 941.852C1297.39 835.07 1312.09 717.294 1293.36 602.884C1288.96 575.975 1304.84 549.195 1331.3 542.598Z" fill="white"/>
<path d="M1036.3 616.15C1050.4 612.636 1064.77 621.205 1067.28 635.512C1079.97 707.799 1071.08 782.445 1041.4 849.995C1008.18 925.595 950.816 988.031 878.291 1027.51C805.767 1066.99 722.189 1081.28 640.666 1068.15C559.144 1055.01 484.288 1015.18 427.84 954.913C371.392 894.646 336.544 817.347 328.763 735.14C320.981 652.933 340.706 570.468 384.844 500.68C428.981 430.891 495.034 377.727 572.643 349.525C641.99 324.326 717.057 320.33 788.36 337.722C802.471 341.164 810.082 356.065 805.655 369.899C801.227 383.733 786.438 391.246 772.287 387.967C712.123 374.028 649.004 377.743 590.609 398.963C523.947 423.187 467.211 468.852 429.3 528.796C391.388 588.74 374.446 659.572 381.13 730.183C387.814 800.794 417.746 867.189 466.231 918.955C514.717 970.721 579.013 1004.93 649.036 1016.21C719.059 1027.5 790.847 1015.22 853.141 981.313C915.435 947.401 964.712 893.772 993.241 828.837C1018.23 771.953 1026.07 709.212 1016.09 648.265C1013.74 633.931 1022.21 619.664 1036.3 616.15Z" fill="#9863E7"/>
<path d="M1129.56 202.475C1147.44 184.591 1176.43 184.591 1194.32 202.475C1212.2 220.359 1212.2 249.354 1194.32 267.238L731.725 729.831C713.842 747.715 684.846 747.715 666.962 729.831C649.079 711.947 649.079 682.952 666.962 665.068L1129.56 202.475Z" fill="white"/>
</svg>
