<svg width="40" height="40" viewBox="0 0 40 40" fill="none" xmlns="http://www.w3.org/2000/svg">
<g clip-path="url(#clip0_315_9123)">
<path d="M32.8914 10.4493C33.9121 5.64738 31.455 1.05651 27.4034 0.195316C23.3518 -0.665882 19.2399 2.5287 18.2192 7.33062C17.1985 12.1325 19.6556 16.7234 23.7072 17.5846C27.7588 18.4458 31.8707 15.2512 32.8914 10.4493Z" fill="#9863E7"/>
<path d="M10.8035 16.3189V18.0734C8.12128 18.6567 4.82462 20.13 4.32684 22.23C2.76906 28.7989 3.18795 38.9789 3.18795 39.1245V39.2734C3.18795 40 3.92462 40 4.65017 40H22.5357C23.2613 40 23.9968 40 23.9968 39.2734V22.23C23.9968 20.32 22.4268 18.41 18.8502 17.97V16.3189H10.8035Z" fill="#BB8EFF"/>
<path d="M29.1972 14.7811V18.0734C31.8795 18.6567 35.1761 20.13 35.6739 22.23C37.2306 28.8 36.8128 38.98 36.8128 39.1245V39.2733C36.8128 40 36.0761 40 35.3506 40H17.465C16.7395 40 16.0039 40 16.0039 39.2733V22.23C16.0039 20.32 17.5739 18.41 21.1506 17.97V16.3189L29.1972 14.7811Z" fill="#9863E7"/>
<path d="M16.2823 17.5836C20.3339 16.7224 22.791 12.1315 21.7703 7.32957C20.7496 2.52765 16.6377 -0.666935 12.5861 0.194263C8.53449 1.05546 6.07742 5.64633 7.0981 10.4482C8.11878 15.2502 12.2307 18.4448 16.2823 17.5836Z" fill="#BB8EFF"/>
<path d="M21.2119 17.8756C19.7564 18.2989 17.3886 18.4822 14.6586 17.4511C11.7775 16.3622 9.12748 15.2911 8.09415 14.9311C7.15415 14.6034 4.75526 14.8945 4.22082 15.8734C3.68637 16.8522 3.38415 18.6345 4.70637 19.9389C6.02859 21.2434 12.993 23.8178 14.9619 24.9756C15.993 25.5822 15.933 29.2234 15.993 32.1967C16.0853 36.6889 24.1964 17.0078 21.2119 17.8756Z" fill="#9863E7"/>
<path d="M13.5916 28.0922C15.0705 28.4233 17.596 28.9933 20.2571 27.7933C23.0649 26.5266 25.4927 24.7578 26.5005 24.3344C27.4182 23.9489 29.3571 23.5755 30.4249 25.0333C31.0849 25.9333 31.4327 27.7378 30.1949 29.1211C28.956 30.5055 24.0871 33.4755 20.4849 34.3455C17.4305 35.0833 12.7438 35.0122 11.2482 33.4644C8.91378 31.0478 11.5605 27.6366 13.5916 28.0922ZM27.7671 19.15C27.7671 16.9811 29.6827 15.7989 31.9216 14.9311C32.8493 14.5711 35.2605 14.8944 35.7949 15.8733C36.3293 16.8522 36.6316 18.6344 35.3093 19.9389C33.9871 21.2433 27.7671 22.4878 27.7671 19.15Z" fill="#BB8EFF"/>
</g>
<defs>
<clipPath id="clip0_315_9123">
<rect width="40" height="40" fill="white"/>
</clipPath>
</defs>
</svg>
