<svg width="35" height="35" viewBox="0 0 35 35" fill="none" xmlns="http://www.w3.org/2000/svg">
<path d="M14.5861 13.1257C15.2457 12.6638 15.3936 11.7608 15.0025 11.057C14.4637 10.0874 14.2297 9.32481 14.1646 8.72374C14.0786 7.93624 14.2711 7.30916 14.6532 6.70687C15.0659 6.05499 15.6857 5.44979 16.4732 4.73374C16.9012 4.34559 17.3917 3.91458 17.8695 3.44502C18.4438 2.88065 18.3458 1.96232 17.7181 1.45795C17.0909 0.953876 16.1694 1.05244 15.5839 1.60447C15.2337 1.93467 14.8702 2.25178 14.5146 2.57395C13.7359 3.28124 12.839 4.1227 12.1915 5.14645C11.5119 6.21833 11.0978 7.49583 11.2655 9.0402C11.391 10.1905 11.8303 11.4097 12.6032 12.7356C13.0087 13.4313 13.9265 13.5876 14.5861 13.1257ZM17.6034 7.87062C17.894 7.17079 18.3948 6.46953 19.1307 5.71749C19.6938 5.14204 20.6236 5.22197 21.1473 5.83349C21.6709 6.44487 21.5845 7.35125 21.0387 7.9429C20.5983 8.42035 20.391 8.75962 20.294 8.99208C20.1423 9.35666 20.243 9.71979 20.3451 10.0815C20.4676 10.5131 20.6703 11.2335 20.6571 12.0094C20.6458 12.6779 20.493 13.3711 20.1564 14.1216C19.8269 14.8565 18.9003 15.0302 18.2303 14.5832C17.5604 14.1363 17.4482 13.2489 17.6628 12.4727C17.7208 12.2627 17.7382 12.0955 17.7405 11.9612C17.7478 11.531 17.6355 11.2904 17.4532 10.5612C17.2782 9.86416 17.1484 8.96145 17.6034 7.87062ZM8.95693 14.5833C9.24226 14.3927 9.5554 14.241 9.88076 14.1152C10.6321 13.8246 11.1262 13.0675 10.9382 12.2842C10.7501 11.5004 9.95727 11.0064 9.1958 11.2707C8.56745 11.4889 7.99799 11.7443 7.51755 12.0415C6.7738 12.5023 5.83464 13.3233 5.83464 14.5833C5.83464 15.3497 6.20596 16.0045 6.73127 16.5178C7.09277 16.8711 7.29184 17.3708 7.29297 17.8762C7.29297 19.0823 7.72707 20.1294 8.498 20.9642C8.75883 21.2467 8.86599 21.6357 8.80309 22.015C8.72825 22.4662 8.42241 22.8789 7.97774 22.9859C7.12166 23.192 6.30243 23.4589 5.59109 23.7854C4.96109 24.0742 4.33984 24.4431 3.85568 24.9185C3.36859 25.3983 2.91797 26.091 2.91797 26.9792C2.91797 27.6019 3.19359 28.105 3.46339 28.4521C3.73901 28.805 4.09339 29.1069 4.46089 29.3621C5.1988 29.874 6.18755 30.3377 7.31776 30.7271C9.58985 31.5117 12.6684 32.0833 16.043 32.0833C20.8948 32.0833 24.3015 31.5233 26.5284 30.9429C27.3746 30.7278 28.2049 30.4544 29.0134 30.1248C29.3196 29.9965 29.6259 29.8608 29.9117 29.6917C29.9135 29.6906 29.8916 29.6509 29.8518 29.5822C29.7113 29.3398 26.0645 28.0487 25.7934 28.1196C23.8261 28.6329 20.6703 29.1667 16.043 29.1667C12.9746 29.1667 10.2198 28.6446 8.27005 27.9708C7.77663 27.8002 7.26905 27.6118 6.79495 27.369C6.38649 27.1598 6.38973 26.6269 6.80734 26.4367C7.26932 26.2247 7.82859 26.0344 8.44379 25.8761C9.36262 25.6397 10.2964 26.029 11.1153 26.5081C12.5226 27.3277 14.4578 27.7083 16.7721 27.7083C18.6826 27.7083 20.0651 27.5158 20.9984 27.3087C21.5176 27.195 22.0396 27.0652 22.518 26.8304C22.5207 26.8286 22.0093 25.7884 21.6309 25.02C21.4044 24.56 20.8696 24.3527 20.3684 24.4606C19.6553 24.6196 18.4871 24.7917 16.7721 24.7917C14.7115 24.7917 13.3655 24.4417 12.5853 23.9881C11.9404 23.6127 12.4707 23.0068 13.2077 23.1231C14.1017 23.2643 15.0804 23.3333 16.1348 23.3333C18.2684 23.3333 19.8069 23.1248 20.8423 22.9002C21.4053 22.7792 21.9726 22.6392 22.4961 22.3956C22.5133 22.387 22.0728 21.4664 21.7101 20.7158C21.448 20.1735 20.8166 19.9337 20.2255 20.0492C19.4088 20.2256 18.0773 20.4167 16.1334 20.4167C13.7957 20.4167 12.2396 20.0317 11.318 19.5081C10.6152 19.1083 11.1473 18.4388 11.9444 18.5744C13.3997 18.8221 15.0459 18.9583 16.7721 18.9583C18.7971 18.9583 20.7095 18.771 22.3326 18.4366C23.1214 18.2741 23.5626 17.4601 23.3346 16.6877C23.1067 15.9153 22.2953 15.4762 21.5044 15.6279C20.1608 15.8856 18.5392 16.0417 16.7721 16.0417C14.258 16.0417 12.0398 15.7267 10.4984 15.2512C9.76922 15.0281 9.26464 14.7904 8.95839 14.5833M25.5214 14.2188C25.5943 15.021 26.3111 15.5708 27.1087 15.684C27.8182 15.7847 28.1464 16.0226 28.2842 16.17C28.5015 16.4033 28.5773 16.765 28.4826 17.1471C28.3134 17.8237 27.8365 18.48 27.0636 19.0837C26.651 19.4059 26.1792 19.6921 25.6794 19.9389C24.9576 20.2953 24.5383 21.1097 24.7927 21.8734C25.0473 22.6378 25.878 23.0588 26.611 22.7244C27.3907 22.3688 28.1639 21.9241 28.8573 21.3835C29.9511 20.529 30.934 19.3637 31.3117 17.8544C31.5815 16.7752 31.4751 15.3154 30.4163 14.1794C29.5956 13.3002 28.3856 12.8153 26.8466 12.7329C26.0423 12.6899 25.4485 13.4165 25.5214 14.2188Z" fill="#BB8EFF"/>
</svg>
