<svg width="162" height="884" viewBox="0 0 162 884" fill="none" xmlns="http://www.w3.org/2000/svg">
<g clip-path="url(#clip0_883_7)">
<path d="M21.1592 931.784C21.1592 933.008 20.1724 934 18.9551 934H16.3102C15.0929 934 14.1061 933.008 14.1061 931.784V926.909H21.1592V931.784Z" fill="#9863E7"/>
<path d="M77.5837 903.42C77.5837 904.643 76.5969 905.635 75.3796 905.635H72.7347C71.5174 905.635 70.5306 906.628 70.5306 907.852V910.511C70.5306 911.735 69.5438 912.727 68.3265 912.727H65.6816C64.4643 912.727 63.4776 913.719 63.4776 914.943V917.602C63.4776 918.826 62.4907 919.818 61.2735 919.818H58.6286C57.4113 919.818 56.4245 920.81 56.4245 922.034V924.693C56.4245 925.917 55.4377 926.909 54.2204 926.909H51.5755C50.3582 926.909 49.3714 927.901 49.3714 929.125V931.784C49.3714 933.008 48.3846 934 47.1673 934H44.5224C43.3052 934 42.3184 933.008 42.3184 931.784V891.453H47.1673C48.3846 891.453 49.3714 890.461 49.3714 889.237V884.362H54.2204C55.4377 884.362 56.4245 883.37 56.4245 882.146V877.271H61.2735C62.4907 877.271 63.4776 876.279 63.4776 875.055V870.18H68.3265C69.5438 870.18 70.5306 869.188 70.5306 867.964V863.089H75.3796C76.5969 863.089 77.5837 864.081 77.5837 865.305V903.42Z" fill="#9863E7"/>
<path d="M84.6367 931.784C84.6367 933.008 83.6499 934 82.4327 934H79.7878C78.5705 934 77.5837 933.008 77.5837 931.784V926.909H84.6367V931.784Z" fill="#9863E7"/>
<path fill-rule="evenodd" clip-rule="evenodd" d="M133.788 860.873C133.788 862.097 134.775 863.089 135.992 863.089H138.637C139.854 863.089 140.841 864.081 140.841 865.305V867.964C140.841 869.188 141.828 870.18 143.045 870.18H145.69C146.907 870.18 147.894 871.172 147.894 872.396V875.055C147.894 876.279 148.881 877.271 150.098 877.271H152.743C153.96 877.271 154.947 878.263 154.947 879.487V882.146C154.947 883.37 155.934 884.362 157.151 884.362H159.796C161.013 884.362 162 885.354 162 886.578V889.237C162 890.461 161.013 891.453 159.796 891.453H122.106C120.889 891.453 119.902 892.445 119.902 893.669V931.784C119.902 933.008 118.915 934 117.698 934H115.053C113.836 934 112.849 933.008 112.849 931.784V929.125C112.849 927.901 111.862 926.909 110.645 926.909H108C106.783 926.909 105.796 925.917 105.796 924.693V922.034C105.796 920.81 104.809 919.818 103.592 919.818H100.947C99.7297 919.818 98.7429 918.826 98.7429 917.602V914.943C98.7429 913.719 97.7561 912.727 96.5388 912.727H93.8939C92.6766 912.727 91.6898 911.735 91.6898 910.511V907.852C91.6898 906.628 90.703 905.635 89.4857 905.635H86.8408C85.6235 905.635 84.6367 904.643 84.6367 903.42V865.305C84.6367 864.081 85.6235 863.089 86.8408 863.089H89.2653C90.4826 863.089 91.4694 862.097 91.4694 860.873V858.214C91.4694 856.99 92.4562 855.998 93.6735 855.998H131.584C132.801 855.998 133.788 856.99 133.788 858.214V860.873ZM112.849 889.237C112.849 890.461 113.836 891.453 115.053 891.453H117.478C118.695 891.453 119.682 890.461 119.682 889.237V886.578C119.682 885.354 118.695 884.362 117.478 884.362H115.053C113.836 884.362 112.849 885.354 112.849 886.578V889.237ZM105.796 882.146C105.796 883.37 106.783 884.362 108 884.362H110.424C111.642 884.362 112.629 883.37 112.629 882.146V879.487C112.629 878.263 111.642 877.271 110.424 877.271H108C106.783 877.271 105.796 878.263 105.796 879.487V882.146ZM98.7429 875.055C98.7429 876.279 99.7297 877.271 100.947 877.271H103.371C104.589 877.271 105.576 876.279 105.576 875.055V872.396C105.576 871.172 104.589 870.18 103.371 870.18H100.947C99.7297 870.18 98.7429 871.172 98.7429 872.396V875.055ZM91.6898 867.964C91.6898 869.188 92.6766 870.18 93.8939 870.18H96.3184C97.5356 870.18 98.5225 869.188 98.5225 867.964V865.305C98.5225 864.081 97.5356 863.089 96.3184 863.089H93.8939C92.6766 863.089 91.6898 864.081 91.6898 865.305V867.964Z" fill="#9863E7"/>
<path d="M147.894 931.784C147.894 933.008 146.907 934 145.69 934H143.045C141.828 934 140.841 933.008 140.841 931.784V926.909H147.894V931.784Z" fill="#9863E7"/>
<path d="M14.1061 926.909H9.25714C8.03986 926.909 7.05306 925.917 7.05306 924.693V919.818H11.902C13.1193 919.818 14.1061 920.81 14.1061 922.034V926.909Z" fill="#9863E7"/>
<path d="M28.2122 924.693C28.2122 925.917 27.2254 926.909 26.0082 926.909H21.1592V922.034C21.1592 920.81 22.146 919.818 23.3633 919.818H28.2122V924.693Z" fill="#9863E7"/>
<path d="M77.5837 926.909H72.7347C71.5174 926.909 70.5306 925.917 70.5306 924.693V922.034C70.5306 920.81 71.5174 919.818 72.7347 919.818H77.5837V926.909Z" fill="#9863E7"/>
<path d="M91.6898 924.693C91.6898 925.917 90.703 926.909 89.4857 926.909H84.6367V919.818H89.4857C90.703 919.818 91.6898 920.81 91.6898 922.034V924.693Z" fill="#9863E7"/>
<path d="M140.841 926.909H135.992C134.775 926.909 133.788 925.917 133.788 924.693V919.818H138.637C139.854 919.818 140.841 920.81 140.841 922.034V926.909Z" fill="#9863E7"/>
<path d="M154.947 924.693C154.947 925.917 153.96 926.909 152.743 926.909H147.894V922.034C147.894 920.81 148.881 919.818 150.098 919.818H154.947V924.693Z" fill="#9863E7"/>
<path d="M7.05306 919.818H2.20408C0.986801 919.818 0 918.826 0 917.602V914.943C0 913.719 0.986801 912.727 2.20408 912.727H7.05306V919.818Z" fill="#9863E7"/>
<path d="M35.2653 917.602C35.2653 918.826 34.2785 919.818 33.0612 919.818H28.2122V912.727H33.0612C34.2785 912.727 35.2653 913.719 35.2653 914.943V917.602Z" fill="#9863E7"/>
<path d="M84.6367 919.818H77.5837V914.943C77.5837 913.719 78.5705 912.727 79.7878 912.727H82.4327C83.6499 912.727 84.6367 913.719 84.6367 914.943V919.818Z" fill="#9863E7"/>
<path d="M133.788 919.818H128.939C127.721 919.818 126.735 918.826 126.735 917.602V914.943C126.735 913.719 127.721 912.727 128.939 912.727H133.788V919.818Z" fill="#9863E7"/>
<path d="M162 917.602C162 918.826 161.013 919.818 159.796 919.818H154.947V912.727H159.796C161.013 912.727 162 913.719 162 914.943V917.602Z" fill="#9863E7"/>
<path d="M14.1061 910.511C14.1061 911.735 13.1193 912.727 11.902 912.727H7.05306V907.852C7.05306 906.628 8.03986 905.635 9.25714 905.635H14.1061V910.511Z" fill="#9863E7"/>
<path d="M28.2122 912.727H23.3633C22.146 912.727 21.1592 911.735 21.1592 910.511V905.635H26.0082C27.2254 905.635 28.2122 906.628 28.2122 907.852V912.727Z" fill="#9863E7"/>
<path d="M140.841 910.511C140.841 911.735 139.854 912.727 138.637 912.727H133.788V907.852C133.788 906.628 134.775 905.635 135.992 905.635H140.841V910.511Z" fill="#9863E7"/>
<path d="M154.947 912.727H150.098C148.881 912.727 147.894 911.735 147.894 910.511V905.635H152.743C153.96 905.635 154.947 906.628 154.947 907.852V912.727Z" fill="#9863E7"/>
<path d="M21.1592 905.635H14.1061V900.76C14.1061 899.537 15.0929 898.544 16.3102 898.544H18.9551C20.1724 898.544 21.1592 899.537 21.1592 900.76V905.635Z" fill="#9863E7"/>
<path d="M147.894 905.635H140.841V900.76C140.841 899.537 141.828 898.544 143.045 898.544H145.69C146.907 898.544 147.894 899.537 147.894 900.76V905.635Z" fill="#9863E7"/>
<path d="M70.5306 863.089H65.6816C64.4643 863.089 63.4776 864.081 63.4776 865.305V870.18H58.6286C57.4113 870.18 56.4245 871.172 56.4245 872.396V877.271H51.5755C50.3582 877.271 49.3714 878.263 49.3714 879.487V884.362H44.5224C43.3052 884.362 42.3184 885.354 42.3184 886.578V891.453H2.20408C0.9868 891.453 0 890.461 0 889.237V886.578C0 885.354 0.986801 884.362 2.20408 884.362H4.84898C6.06626 884.362 7.05306 883.37 7.05306 882.146V879.487C7.05306 878.263 8.03986 877.271 9.25714 877.271H11.902C13.1193 877.271 14.1061 876.279 14.1061 875.055V872.396C14.1061 871.172 15.0929 870.18 16.3102 870.18H18.9551C20.1724 870.18 21.1592 869.188 21.1592 867.964V865.305C21.1592 864.081 22.146 863.089 23.3633 863.089H26.0082C27.2254 863.089 28.2122 862.097 28.2122 860.873V858.214C28.2122 856.99 29.199 855.998 30.4163 855.998H68.3265C69.5438 855.998 70.5306 856.99 70.5306 858.214V863.089Z" fill="#9863E7"/>
<path d="M14.1061 860.873C14.1061 862.097 13.1193 863.089 11.902 863.089H9.25714C8.03986 863.089 7.05306 862.097 7.05306 860.873V855.998H14.1061V860.873Z" fill="#9863E7"/>
<path d="M154.947 860.873C154.947 862.097 153.96 863.089 152.743 863.089H150.098C148.881 863.089 147.894 862.097 147.894 860.873V855.998H154.947V860.873Z" fill="#9863E7"/>
<path d="M7.05306 855.998H2.20408C0.986801 855.998 0 855.006 0 853.782V851.123C0 849.899 0.986801 848.907 2.20408 848.907H7.05306V855.998Z" fill="#9863E7"/>
<path d="M21.1592 853.782C21.1592 855.006 20.1724 855.998 18.9551 855.998H14.1061V848.907H18.9551C20.1724 848.907 21.1592 849.899 21.1592 851.123V853.782Z" fill="#9863E7"/>
<path d="M82.4327 848.907C83.6499 848.907 84.6367 849.899 84.6367 851.123V853.782C84.6367 855.006 83.6499 855.998 82.4327 855.998H79.7878C78.5705 855.998 77.5837 855.006 77.5837 853.782V851.123C77.5837 849.899 78.5705 848.907 79.7878 848.907H82.4327Z" fill="#9863E7"/>
<path d="M147.894 855.998H143.045C141.828 855.998 140.841 855.006 140.841 853.782V851.123C140.841 849.899 141.828 848.907 143.045 848.907H147.894V855.998Z" fill="#9863E7"/>
<path d="M162 853.782C162 855.006 161.013 855.998 159.796 855.998H154.947V848.907H159.796C161.013 848.907 162 849.899 162 851.123V853.782Z" fill="#9863E7"/>
<path d="M14.1061 848.907H7.05306V844.032C7.05306 842.808 8.03986 841.816 9.25714 841.816H11.902C13.1193 841.816 14.1061 842.808 14.1061 844.032V848.907Z" fill="#9863E7"/>
<path fill-rule="evenodd" clip-rule="evenodd" d="M49.3714 775.78C49.3714 777.004 50.3582 777.996 51.5755 777.996H54.2204C55.4377 777.996 56.4245 778.988 56.4245 780.212V782.871C56.4245 784.095 57.4113 785.087 58.6286 785.087H61.2735C62.4907 785.087 63.4776 786.079 63.4776 787.303V789.962C63.4776 791.186 64.4643 792.178 65.6816 792.178H68.3265C69.5438 792.178 70.5306 793.17 70.5306 794.394V797.053C70.5306 798.277 71.5174 799.269 72.7347 799.269H75.3796C76.5969 799.269 77.5837 800.261 77.5837 801.485V839.6C77.5837 840.823 76.5969 841.816 75.3796 841.816H70.5306V836.941C70.5306 835.717 69.5438 834.725 68.3265 834.725H63.4776V839.6C63.4776 840.823 64.4643 841.816 65.6816 841.816H70.5306V846.691C70.5306 847.915 69.5438 848.907 68.3265 848.907H30.4163C29.199 848.907 28.2122 847.915 28.2122 846.691V844.032C28.2122 842.808 27.2254 841.816 26.0082 841.816H23.3633C22.146 841.816 21.1592 840.823 21.1592 839.6V836.941C21.1592 835.717 20.1724 834.725 18.9551 834.725H16.3102C15.0929 834.725 14.1061 833.732 14.1061 832.509V829.849C14.1061 828.626 13.1193 827.633 11.902 827.633H9.25714C8.03986 827.633 7.05306 826.641 7.05306 825.417V822.758C7.05306 821.535 6.06626 820.542 4.84898 820.542H2.20408C0.986801 820.542 0 819.55 0 818.326V815.667C0 814.443 0.986801 813.451 2.20408 813.451H42.3184V818.326C42.3184 819.55 43.3052 820.542 44.5224 820.542H49.3714V815.667C49.3714 814.443 48.3846 813.451 47.1673 813.451H42.3184V773.121C42.3184 771.897 43.3052 770.905 44.5224 770.905H47.1673C48.3846 770.905 49.3714 771.897 49.3714 773.121V775.78ZM56.4245 832.509C56.4245 833.732 57.4113 834.725 58.6286 834.725H63.4776V829.849C63.4776 828.626 62.4907 827.633 61.2735 827.633H56.4245V832.509ZM49.3714 825.417C49.3714 826.641 50.3582 827.633 51.5755 827.633H56.4245V822.758C56.4245 821.535 55.4377 820.542 54.2204 820.542H49.3714V825.417Z" fill="#9863E7"/>
<path fill-rule="evenodd" clip-rule="evenodd" d="M119.902 811.235C119.902 812.459 120.889 813.451 122.106 813.451H159.796C161.013 813.451 162 814.443 162 815.667V818.326C162 819.55 161.013 820.542 159.796 820.542H157.151C155.934 820.542 154.947 821.535 154.947 822.758V825.417C154.947 826.641 153.96 827.633 152.743 827.633H150.098C148.881 827.633 147.894 828.626 147.894 829.849V832.509C147.894 833.732 146.907 834.725 145.69 834.725H143.045C141.828 834.725 140.841 835.717 140.841 836.941V839.6C140.841 840.823 139.854 841.816 138.637 841.816H135.992C134.775 841.816 133.788 842.808 133.788 844.032V846.691C133.788 847.915 132.801 848.907 131.584 848.907H93.6735C92.4562 848.907 91.4694 847.915 91.4694 846.691V844.032C91.4694 842.808 90.4826 841.816 89.2653 841.816H86.8408C85.6235 841.816 84.6367 840.823 84.6367 839.6V801.485C84.6367 800.261 85.6235 799.269 86.8408 799.269H89.4857C90.703 799.269 91.6898 798.277 91.6898 797.053V794.394C91.6898 793.17 92.6766 792.178 93.8939 792.178H96.5388C97.7561 792.178 98.7429 791.186 98.7429 789.962V787.303C98.7429 786.079 99.7297 785.087 100.947 785.087H103.592C104.809 785.087 105.796 784.095 105.796 782.871V780.212C105.796 778.988 106.783 777.996 108 777.996H110.645C111.862 777.996 112.849 777.004 112.849 775.78V773.121C112.849 771.897 113.836 770.905 115.053 770.905H117.698C118.915 770.905 119.902 771.897 119.902 773.121V811.235ZM91.6898 839.6C91.6898 840.823 92.6766 841.816 93.8939 841.816H96.3184C97.5356 841.816 98.5225 840.823 98.5225 839.6V836.941C98.5225 835.717 97.5356 834.725 96.3184 834.725H93.8939C92.6766 834.725 91.6898 835.717 91.6898 836.941V839.6ZM98.7429 832.509C98.7429 833.732 99.7297 834.725 100.947 834.725H103.371C104.589 834.725 105.576 833.732 105.576 832.509V829.849C105.576 828.626 104.589 827.633 103.371 827.633H100.947C99.7297 827.633 98.7429 828.626 98.7429 829.849V832.509ZM105.796 825.417C105.796 826.641 106.783 827.633 108 827.633H110.424C111.642 827.633 112.629 826.641 112.629 825.417V822.758C112.629 821.535 111.642 820.542 110.424 820.542H108C106.783 820.542 105.796 821.535 105.796 822.758V825.417ZM112.849 818.326C112.849 819.55 113.836 820.542 115.053 820.542H117.478C118.695 820.542 119.682 819.55 119.682 818.326V815.667C119.682 814.443 118.695 813.451 117.478 813.451H115.053C113.836 813.451 112.849 814.443 112.849 815.667V818.326Z" fill="#9863E7"/>
<path d="M154.947 848.907H147.894V844.032C147.894 842.808 148.881 841.816 150.098 841.816H152.743C153.96 841.816 154.947 842.808 154.947 844.032V848.907Z" fill="#9863E7"/>
<path d="M21.1592 805.252C21.1592 805.864 20.6658 806.36 20.0571 806.36H15.2082C14.5995 806.36 14.1061 805.864 14.1061 805.252V799.269H21.1592V805.252Z" fill="#9863E7"/>
<path d="M147.894 804.144C147.894 805.368 146.907 806.36 145.69 806.36H143.045C141.828 806.36 140.841 805.368 140.841 804.144V799.269H147.894V804.144Z" fill="#9863E7"/>
<path d="M13.0041 792.178C13.6127 792.178 14.1061 792.674 14.1061 793.286V799.269H8.1551C7.54646 799.269 7.05306 798.773 7.05306 798.161V792.178H13.0041Z" fill="#9863E7"/>
<path d="M28.2122 798.161C28.2122 798.773 27.7188 799.269 27.1102 799.269H21.1592V793.286C21.1592 792.674 21.6526 792.178 22.2612 792.178H28.2122V798.161Z" fill="#9863E7"/>
<path d="M140.841 799.269H135.992C134.775 799.269 133.788 798.277 133.788 797.053V792.178H138.637C139.854 792.178 140.841 793.17 140.841 794.394V799.269Z" fill="#9863E7"/>
<path d="M154.947 797.053C154.947 798.277 153.96 799.269 152.743 799.269H147.894V794.394C147.894 793.17 148.881 792.178 150.098 792.178H154.947V797.053Z" fill="#9863E7"/>
<path d="M84.6367 790.184C84.6367 791.407 83.6499 792.4 82.4327 792.4H79.7878C78.5705 792.4 77.5837 791.407 77.5837 790.184V785.308H84.6367V790.184Z" fill="#9863E7"/>
<path d="M7.05306 792.178H1.10204C0.493401 792.178 0 791.682 0 791.07V786.195C0 785.583 0.493401 785.087 1.10204 785.087H7.05306V792.178Z" fill="#9863E7"/>
<path d="M34.1633 785.087C34.7719 785.087 35.2653 785.583 35.2653 786.195V791.07C35.2653 791.682 34.7719 792.178 34.1633 792.178H28.2122V785.087H34.1633Z" fill="#9863E7"/>
<path d="M133.788 792.178H128.939C127.721 792.178 126.735 791.186 126.735 789.962V787.303C126.735 786.079 127.721 785.087 128.939 785.087H133.788V792.178Z" fill="#9863E7"/>
<path d="M162 789.962C162 791.186 161.013 792.178 159.796 792.178H154.947V785.087H159.796C161.013 785.087 162 786.079 162 787.303V789.962Z" fill="#9863E7"/>
<path d="M77.5837 785.308H72.7347C71.5174 785.308 70.5306 784.316 70.5306 783.093V780.433C70.5306 779.209 71.5174 778.217 72.7347 778.217H77.5837V785.308Z" fill="#9863E7"/>
<path d="M91.6898 783.093C91.6898 784.316 90.703 785.308 89.4857 785.308H84.6367V778.217H89.4857C90.703 778.217 91.6898 779.209 91.6898 780.433V783.093Z" fill="#9863E7"/>
<path d="M14.1061 783.979C14.1061 784.591 13.6127 785.087 13.0041 785.087H7.05306V779.104C7.05306 778.492 7.54646 777.996 8.1551 777.996H14.1061V783.979Z" fill="#9863E7"/>
<path d="M27.1102 777.996C27.7188 777.996 28.2122 778.492 28.2122 779.104V785.087H22.2612C21.6526 785.087 21.1592 784.591 21.1592 783.979V777.996H27.1102Z" fill="#9863E7"/>
<path d="M140.841 782.871C140.841 784.095 139.854 785.087 138.637 785.087H133.788V780.212C133.788 778.988 134.775 777.996 135.992 777.996H140.841V782.871Z" fill="#9863E7"/>
<path d="M154.947 785.087H150.098C148.881 785.087 147.894 784.095 147.894 782.871V777.996H152.743C153.96 777.996 154.947 778.988 154.947 780.212V785.087Z" fill="#9863E7"/>
<path d="M84.6367 778.217H77.5837V773.342C77.5837 772.118 78.5705 771.126 79.7878 771.126H82.4327C83.6499 771.126 84.6367 772.118 84.6367 773.342V778.217Z" fill="#9863E7"/>
<path d="M20.0571 770.905C20.6658 770.905 21.1592 771.401 21.1592 772.013V777.996H14.1061V772.013C14.1061 771.401 14.5995 770.905 15.2082 770.905H20.0571Z" fill="#9863E7"/>
<path d="M147.894 777.996H140.841V773.121C140.841 771.897 141.828 770.905 143.045 770.905H145.69C146.907 770.905 147.894 771.897 147.894 773.121V777.996Z" fill="#9863E7"/>
<path d="M21.1592 740.098C21.1592 741.322 20.1724 742.314 18.9551 742.314H16.3102C15.0929 742.314 14.1061 741.322 14.1061 740.098V735.223H21.1592V740.098Z" fill="#9863E7"/>
<path d="M77.5837 711.734C77.5837 712.958 76.5969 713.95 75.3796 713.95H72.7347C71.5174 713.95 70.5306 714.942 70.5306 716.166V718.825C70.5306 720.049 69.5438 721.041 68.3265 721.041H65.6816C64.4643 721.041 63.4776 722.033 63.4776 723.257V725.916C63.4776 727.14 62.4907 728.132 61.2735 728.132H58.6286C57.4113 728.132 56.4245 729.124 56.4245 730.348V733.007C56.4245 734.231 55.4377 735.223 54.2204 735.223H51.5755C50.3582 735.223 49.3714 736.215 49.3714 737.439V740.098C49.3714 741.322 48.3846 742.314 47.1673 742.314H44.5224C43.3052 742.314 42.3184 741.322 42.3184 740.098V699.768H47.1673C48.3846 699.768 49.3714 698.776 49.3714 697.552V692.677H54.2204C55.4377 692.677 56.4245 691.684 56.4245 690.461V685.585H61.2735C62.4907 685.585 63.4776 684.593 63.4776 683.369V678.494H68.3265C69.5438 678.494 70.5306 677.502 70.5306 676.278V671.403H75.3796C76.5969 671.403 77.5837 672.395 77.5837 673.619V711.734Z" fill="#9863E7"/>
<path d="M84.6367 740.098C84.6367 741.322 83.6499 742.314 82.4327 742.314H79.7878C78.5705 742.314 77.5837 741.322 77.5837 740.098V735.223H84.6367V740.098Z" fill="#9863E7"/>
<path fill-rule="evenodd" clip-rule="evenodd" d="M133.788 669.187C133.788 670.411 134.775 671.403 135.992 671.403H138.637C139.854 671.403 140.841 672.395 140.841 673.619V676.278C140.841 677.502 141.828 678.494 143.045 678.494H145.69C146.907 678.494 147.894 679.486 147.894 680.71V683.369C147.894 684.593 148.881 685.585 150.098 685.585H152.743C153.96 685.585 154.947 686.578 154.947 687.801V690.461C154.947 691.684 155.934 692.677 157.151 692.677H159.796C161.013 692.677 162 693.669 162 694.893V697.552C162 698.776 161.013 699.768 159.796 699.768H122.106C120.889 699.768 119.902 700.76 119.902 701.984V740.098C119.902 741.322 118.915 742.314 117.698 742.314H115.053C113.836 742.314 112.849 741.322 112.849 740.098V737.439C112.849 736.215 111.862 735.223 110.645 735.223H108C106.783 735.223 105.796 734.231 105.796 733.007V730.348C105.796 729.124 104.809 728.132 103.592 728.132H100.947C99.7297 728.132 98.7429 727.14 98.7429 725.916V723.257C98.7429 722.033 97.7561 721.041 96.5388 721.041H93.8939C92.6766 721.041 91.6898 720.049 91.6898 718.825V716.166C91.6898 714.942 90.703 713.95 89.4857 713.95H86.8408C85.6235 713.95 84.6367 712.958 84.6367 711.734V673.619C84.6367 672.395 85.6235 671.403 86.8408 671.403H89.2653C90.4826 671.403 91.4694 670.411 91.4694 669.187V666.528C91.4694 665.304 92.4562 664.312 93.6735 664.312H131.584C132.801 664.312 133.788 665.304 133.788 666.528V669.187ZM112.849 697.552C112.849 698.776 113.836 699.768 115.053 699.768H117.478C118.695 699.768 119.682 698.776 119.682 697.552V694.893C119.682 693.669 118.695 692.677 117.478 692.677H115.053C113.836 692.677 112.849 693.669 112.849 694.893V697.552ZM105.796 690.461C105.796 691.684 106.783 692.677 108 692.677H110.424C111.642 692.677 112.629 691.684 112.629 690.461V687.801C112.629 686.578 111.642 685.585 110.424 685.585H108C106.783 685.585 105.796 686.578 105.796 687.801V690.461ZM98.7429 683.369C98.7429 684.593 99.7297 685.585 100.947 685.585H103.371C104.589 685.585 105.576 684.593 105.576 683.369V680.71C105.576 679.486 104.589 678.494 103.371 678.494H100.947C99.7297 678.494 98.7429 679.486 98.7429 680.71V683.369ZM91.6898 676.278C91.6898 677.502 92.6766 678.494 93.8939 678.494H96.3184C97.5356 678.494 98.5225 677.502 98.5225 676.278V673.619C98.5225 672.395 97.5356 671.403 96.3184 671.403H93.8939C92.6766 671.403 91.6898 672.395 91.6898 673.619V676.278Z" fill="#9863E7"/>
<path d="M147.894 740.098C147.894 741.322 146.907 742.314 145.69 742.314H143.045C141.828 742.314 140.841 741.322 140.841 740.098V735.223H147.894V740.098Z" fill="#9863E7"/>
<path d="M14.1061 735.223H9.25714C8.03986 735.223 7.05306 734.231 7.05306 733.007V728.132H11.902C13.1193 728.132 14.1061 729.124 14.1061 730.348V735.223Z" fill="#9863E7"/>
<path d="M28.2122 733.007C28.2122 734.231 27.2254 735.223 26.0082 735.223H21.1592V730.348C21.1592 729.124 22.146 728.132 23.3633 728.132H28.2122V733.007Z" fill="#9863E7"/>
<path d="M77.5837 735.223H72.7347C71.5174 735.223 70.5306 734.231 70.5306 733.007V730.348C70.5306 729.124 71.5174 728.132 72.7347 728.132H77.5837V735.223Z" fill="#9863E7"/>
<path d="M91.6898 733.007C91.6898 734.231 90.703 735.223 89.4857 735.223H84.6367V728.132H89.4857C90.703 728.132 91.6898 729.124 91.6898 730.348V733.007Z" fill="#9863E7"/>
<path d="M140.841 735.223H135.992C134.775 735.223 133.788 734.231 133.788 733.007V728.132H138.637C139.854 728.132 140.841 729.124 140.841 730.348V735.223Z" fill="#9863E7"/>
<path d="M154.947 733.007C154.947 734.231 153.96 735.223 152.743 735.223H147.894V730.348C147.894 729.124 148.881 728.132 150.098 728.132H154.947V733.007Z" fill="#9863E7"/>
<path d="M7.05306 728.132H2.20408C0.986801 728.132 0 727.14 0 725.916V723.257C0 722.033 0.986801 721.041 2.20408 721.041H7.05306V728.132Z" fill="#9863E7"/>
<path d="M35.2653 725.916C35.2653 727.14 34.2785 728.132 33.0612 728.132H28.2122V721.041H33.0612C34.2785 721.041 35.2653 722.033 35.2653 723.257V725.916Z" fill="#9863E7"/>
<path d="M84.6367 728.132H77.5837V723.257C77.5837 722.033 78.5705 721.041 79.7878 721.041H82.4327C83.6499 721.041 84.6367 722.033 84.6367 723.257V728.132Z" fill="#9863E7"/>
<path d="M133.788 728.132H128.939C127.721 728.132 126.735 727.14 126.735 725.916V723.257C126.735 722.033 127.721 721.041 128.939 721.041H133.788V728.132Z" fill="#9863E7"/>
<path d="M162 725.916C162 727.14 161.013 728.132 159.796 728.132H154.947V721.041H159.796C161.013 721.041 162 722.033 162 723.257V725.916Z" fill="#9863E7"/>
<path d="M14.1061 718.825C14.1061 720.049 13.1193 721.041 11.902 721.041H7.05306V716.166C7.05306 714.942 8.03986 713.95 9.25714 713.95H14.1061V718.825Z" fill="#9863E7"/>
<path d="M28.2122 721.041H23.3633C22.146 721.041 21.1592 720.049 21.1592 718.825V713.95H26.0082C27.2254 713.95 28.2122 714.942 28.2122 716.166V721.041Z" fill="#9863E7"/>
<path d="M140.841 718.825C140.841 720.049 139.854 721.041 138.637 721.041H133.788V716.166C133.788 714.942 134.775 713.95 135.992 713.95H140.841V718.825Z" fill="#9863E7"/>
<path d="M154.947 721.041H150.098C148.881 721.041 147.894 720.049 147.894 718.825V713.95H152.743C153.96 713.95 154.947 714.942 154.947 716.166V721.041Z" fill="#9863E7"/>
<path d="M21.1592 713.95H14.1061V709.075C14.1061 707.851 15.0929 706.859 16.3102 706.859H18.9551C20.1724 706.859 21.1592 707.851 21.1592 709.075V713.95Z" fill="#9863E7"/>
<path d="M147.894 713.95H140.841V709.075C140.841 707.851 141.828 706.859 143.045 706.859H145.69C146.907 706.859 147.894 707.851 147.894 709.075V713.95Z" fill="#9863E7"/>
<path d="M70.5306 671.403H65.6816C64.4643 671.403 63.4776 672.395 63.4776 673.619V678.494H58.6286C57.4113 678.494 56.4245 679.486 56.4245 680.71V685.585H51.5755C50.3582 685.585 49.3714 686.578 49.3714 687.801V692.677H44.5224C43.3052 692.677 42.3184 693.669 42.3184 694.893V699.768H2.20408C0.9868 699.768 0 698.776 0 697.552V694.893C0 693.669 0.986801 692.677 2.20408 692.677H4.84898C6.06626 692.677 7.05306 691.684 7.05306 690.461V687.801C7.05306 686.578 8.03986 685.585 9.25714 685.585H11.902C13.1193 685.585 14.1061 684.593 14.1061 683.369V680.71C14.1061 679.486 15.0929 678.494 16.3102 678.494H18.9551C20.1724 678.494 21.1592 677.502 21.1592 676.278V673.619C21.1592 672.395 22.146 671.403 23.3633 671.403H26.0082C27.2254 671.403 28.2122 670.411 28.2122 669.187V666.528C28.2122 665.304 29.199 664.312 30.4163 664.312H68.3265C69.5438 664.312 70.5306 665.304 70.5306 666.528V671.403Z" fill="#9863E7"/>
<path d="M14.1061 669.187C14.1061 670.411 13.1193 671.403 11.902 671.403H9.25714C8.03986 671.403 7.05306 670.411 7.05306 669.187V664.312H14.1061V669.187Z" fill="#9863E7"/>
<path d="M154.947 669.187C154.947 670.411 153.96 671.403 152.743 671.403H150.098C148.881 671.403 147.894 670.411 147.894 669.187V664.312H154.947V669.187Z" fill="#9863E7"/>
<path d="M7.05306 664.312H2.20408C0.986801 664.312 0 663.32 0 662.096V659.437C0 658.213 0.986801 657.221 2.20408 657.221H7.05306V664.312Z" fill="#9863E7"/>
<path d="M21.1592 662.096C21.1592 663.32 20.1724 664.312 18.9551 664.312H14.1061V657.221H18.9551C20.1724 657.221 21.1592 658.213 21.1592 659.437V662.096Z" fill="#9863E7"/>
<path d="M82.4327 657.221C83.6499 657.221 84.6367 658.213 84.6367 659.437V662.096C84.6367 663.32 83.6499 664.312 82.4327 664.312H79.7878C78.5705 664.312 77.5837 663.32 77.5837 662.096V659.437C77.5837 658.213 78.5705 657.221 79.7878 657.221H82.4327Z" fill="#9863E7"/>
<path d="M147.894 664.312H143.045C141.828 664.312 140.841 663.32 140.841 662.096V659.437C140.841 658.213 141.828 657.221 143.045 657.221H147.894V664.312Z" fill="#9863E7"/>
<path d="M162 662.096C162 663.32 161.013 664.312 159.796 664.312H154.947V657.221H159.796C161.013 657.221 162 658.213 162 659.437V662.096Z" fill="#9863E7"/>
<path d="M14.1061 657.221H7.05306V652.346C7.05306 651.122 8.03986 650.13 9.25714 650.13H11.902C13.1193 650.13 14.1061 651.122 14.1061 652.346V657.221Z" fill="#9863E7"/>
<path fill-rule="evenodd" clip-rule="evenodd" d="M49.3714 584.094C49.3714 585.318 50.3582 586.31 51.5755 586.31H54.2204C55.4377 586.31 56.4245 587.302 56.4245 588.526V591.185C56.4245 592.409 57.4113 593.401 58.6286 593.401H61.2735C62.4907 593.401 63.4776 594.393 63.4776 595.617V598.276C63.4776 599.5 64.4643 600.492 65.6816 600.492H68.3265C69.5438 600.492 70.5306 601.484 70.5306 602.708V605.367C70.5306 606.591 71.5174 607.583 72.7347 607.583H75.3796C76.5969 607.583 77.5837 608.575 77.5837 609.799V647.914C77.5837 649.138 76.5969 650.13 75.3796 650.13H70.5306V645.255C70.5306 644.031 69.5438 643.039 68.3265 643.039H63.4776V647.914C63.4776 649.138 64.4643 650.13 65.6816 650.13H70.5306V655.005C70.5306 656.229 69.5438 657.221 68.3265 657.221H30.4163C29.199 657.221 28.2122 656.229 28.2122 655.005V652.346C28.2122 651.122 27.2254 650.13 26.0082 650.13H23.3633C22.146 650.13 21.1592 649.138 21.1592 647.914V645.255C21.1592 644.031 20.1724 643.039 18.9551 643.039H16.3102C15.0929 643.039 14.1061 642.047 14.1061 640.823V638.164C14.1061 636.94 13.1193 635.948 11.902 635.948H9.25714C8.03986 635.948 7.05306 634.956 7.05306 633.732V631.073C7.05306 629.849 6.06626 628.857 4.84898 628.857H2.20408C0.986801 628.857 0 627.865 0 626.641V623.982C0 622.758 0.986801 621.766 2.20408 621.766H42.3184V626.641C42.3184 627.865 43.3052 628.857 44.5224 628.857H49.3714V623.982C49.3714 622.758 48.3846 621.766 47.1673 621.766H42.3184V581.435C42.3184 580.211 43.3052 579.219 44.5224 579.219H47.1673C48.3846 579.219 49.3714 580.211 49.3714 581.435V584.094ZM56.4245 640.823C56.4245 642.047 57.4113 643.039 58.6286 643.039H63.4776V638.164C63.4776 636.94 62.4907 635.948 61.2735 635.948H56.4245V640.823ZM49.3714 633.732C49.3714 634.956 50.3582 635.948 51.5755 635.948H56.4245V631.073C56.4245 629.849 55.4377 628.857 54.2204 628.857H49.3714V633.732Z" fill="#9863E7"/>
<path fill-rule="evenodd" clip-rule="evenodd" d="M119.902 619.55C119.902 620.773 120.889 621.766 122.106 621.766H159.796C161.013 621.766 162 622.758 162 623.982V626.641C162 627.865 161.013 628.857 159.796 628.857H157.151C155.934 628.857 154.947 629.849 154.947 631.073V633.732C154.947 634.956 153.96 635.948 152.743 635.948H150.098C148.881 635.948 147.894 636.94 147.894 638.164V640.823C147.894 642.047 146.907 643.039 145.69 643.039H143.045C141.828 643.039 140.841 644.031 140.841 645.255V647.914C140.841 649.138 139.854 650.13 138.637 650.13H135.992C134.775 650.13 133.788 651.122 133.788 652.346V655.005C133.788 656.229 132.801 657.221 131.584 657.221H93.6735C92.4562 657.221 91.4694 656.229 91.4694 655.005V652.346C91.4694 651.122 90.4826 650.13 89.2653 650.13H86.8408C85.6235 650.13 84.6367 649.138 84.6367 647.914V609.799C84.6367 608.575 85.6235 607.583 86.8408 607.583H89.4857C90.703 607.583 91.6898 606.591 91.6898 605.367V602.708C91.6898 601.484 92.6766 600.492 93.8939 600.492H96.5388C97.7561 600.492 98.7429 599.5 98.7429 598.276V595.617C98.7429 594.393 99.7297 593.401 100.947 593.401H103.592C104.809 593.401 105.796 592.409 105.796 591.185V588.526C105.796 587.302 106.783 586.31 108 586.31H110.645C111.862 586.31 112.849 585.318 112.849 584.094V581.435C112.849 580.211 113.836 579.219 115.053 579.219H117.698C118.915 579.219 119.902 580.211 119.902 581.435V619.55ZM91.6898 647.914C91.6898 649.138 92.6766 650.13 93.8939 650.13H96.3184C97.5356 650.13 98.5225 649.138 98.5225 647.914V645.255C98.5225 644.031 97.5356 643.039 96.3184 643.039H93.8939C92.6766 643.039 91.6898 644.031 91.6898 645.255V647.914ZM98.7429 640.823C98.7429 642.047 99.7297 643.039 100.947 643.039H103.371C104.589 643.039 105.576 642.047 105.576 640.823V638.164C105.576 636.94 104.589 635.948 103.371 635.948H100.947C99.7297 635.948 98.7429 636.94 98.7429 638.164V640.823ZM105.796 633.732C105.796 634.956 106.783 635.948 108 635.948H110.424C111.642 635.948 112.629 634.956 112.629 633.732V631.073C112.629 629.849 111.642 628.857 110.424 628.857H108C106.783 628.857 105.796 629.849 105.796 631.073V633.732ZM112.849 626.641C112.849 627.865 113.836 628.857 115.053 628.857H117.478C118.695 628.857 119.682 627.865 119.682 626.641V623.982C119.682 622.758 118.695 621.766 117.478 621.766H115.053C113.836 621.766 112.849 622.758 112.849 623.982V626.641Z" fill="#9863E7"/>
<path d="M154.947 657.221H147.894V652.346C147.894 651.122 148.881 650.13 150.098 650.13H152.743C153.96 650.13 154.947 651.122 154.947 652.346V657.221Z" fill="#9863E7"/>
<path d="M21.1592 613.566C21.1592 614.178 20.6658 614.674 20.0571 614.674H15.2082C14.5995 614.674 14.1061 614.178 14.1061 613.566V607.583H21.1592V613.566Z" fill="#9863E7"/>
<path d="M147.894 612.458C147.894 613.682 146.907 614.674 145.69 614.674H143.045C141.828 614.674 140.841 613.682 140.841 612.458V607.583H147.894V612.458Z" fill="#9863E7"/>
<path d="M13.0041 600.492C13.6127 600.492 14.1061 600.988 14.1061 601.6V607.583H8.1551C7.54646 607.583 7.05306 607.087 7.05306 606.475V600.492H13.0041Z" fill="#9863E7"/>
<path d="M28.2122 606.475C28.2122 607.087 27.7188 607.583 27.1102 607.583H21.1592V601.6C21.1592 600.988 21.6526 600.492 22.2612 600.492H28.2122V606.475Z" fill="#9863E7"/>
<path d="M140.841 607.583H135.992C134.775 607.583 133.788 606.591 133.788 605.367V600.492H138.637C139.854 600.492 140.841 601.484 140.841 602.708V607.583Z" fill="#9863E7"/>
<path d="M154.947 605.367C154.947 606.591 153.96 607.583 152.743 607.583H147.894V602.708C147.894 601.484 148.881 600.492 150.098 600.492H154.947V605.367Z" fill="#9863E7"/>
<path d="M84.6367 598.498C84.6367 599.722 83.6499 600.714 82.4327 600.714H79.7878C78.5705 600.714 77.5837 599.722 77.5837 598.498V593.623H84.6367V598.498Z" fill="#9863E7"/>
<path d="M7.05306 600.492H1.10204C0.493401 600.492 0 599.996 0 599.384V594.509C0 593.897 0.493401 593.401 1.10204 593.401H7.05306V600.492Z" fill="#9863E7"/>
<path d="M34.1633 593.401C34.7719 593.401 35.2653 593.897 35.2653 594.509V599.384C35.2653 599.996 34.7719 600.492 34.1633 600.492H28.2122V593.401H34.1633Z" fill="#9863E7"/>
<path d="M133.788 600.492H128.939C127.721 600.492 126.735 599.5 126.735 598.276V595.617C126.735 594.393 127.721 593.401 128.939 593.401H133.788V600.492Z" fill="#9863E7"/>
<path d="M162 598.276C162 599.5 161.013 600.492 159.796 600.492H154.947V593.401H159.796C161.013 593.401 162 594.393 162 595.617V598.276Z" fill="#9863E7"/>
<path d="M77.5837 593.623H72.7347C71.5174 593.623 70.5306 592.631 70.5306 591.407V588.748C70.5306 587.524 71.5174 586.532 72.7347 586.532H77.5837V593.623Z" fill="#9863E7"/>
<path d="M91.6898 591.407C91.6898 592.631 90.703 593.623 89.4857 593.623H84.6367V586.532H89.4857C90.703 586.532 91.6898 587.524 91.6898 588.748V591.407Z" fill="#9863E7"/>
<path d="M14.1061 592.293C14.1061 592.905 13.6127 593.401 13.0041 593.401H7.05306V587.418C7.05306 586.806 7.54646 586.31 8.1551 586.31H14.1061V592.293Z" fill="#9863E7"/>
<path d="M27.1102 586.31C27.7188 586.31 28.2122 586.806 28.2122 587.418V593.401H22.2612C21.6526 593.401 21.1592 592.905 21.1592 592.293V586.31H27.1102Z" fill="#9863E7"/>
<path d="M140.841 591.185C140.841 592.409 139.854 593.401 138.637 593.401H133.788V588.526C133.788 587.302 134.775 586.31 135.992 586.31H140.841V591.185Z" fill="#9863E7"/>
<path d="M154.947 593.401H150.098C148.881 593.401 147.894 592.409 147.894 591.185V586.31H152.743C153.96 586.31 154.947 587.302 154.947 588.526V593.401Z" fill="#9863E7"/>
<path d="M84.6367 586.532H77.5837V581.656C77.5837 580.433 78.5705 579.441 79.7878 579.441H82.4327C83.6499 579.441 84.6367 580.433 84.6367 581.656V586.532Z" fill="#9863E7"/>
<path d="M20.0571 579.219C20.6658 579.219 21.1592 579.715 21.1592 580.327V586.31H14.1061V580.327C14.1061 579.715 14.5995 579.219 15.2082 579.219H20.0571Z" fill="#9863E7"/>
<path d="M147.894 586.31H140.841V581.435C140.841 580.211 141.828 579.219 143.045 579.219H145.69C146.907 579.219 147.894 580.211 147.894 581.435V586.31Z" fill="#9863E7"/>
<path d="M21.1592 548.413C21.1592 549.636 20.1724 550.629 18.9551 550.629H16.3102C15.0929 550.629 14.1061 549.636 14.1061 548.413V543.537H21.1592V548.413Z" fill="#9863E7"/>
<path d="M77.5837 520.048C77.5837 521.272 76.5969 522.264 75.3796 522.264H72.7347C71.5174 522.264 70.5306 523.256 70.5306 524.48V527.139C70.5306 528.363 69.5438 529.355 68.3265 529.355H65.6816C64.4643 529.355 63.4776 530.347 63.4776 531.571V534.23C63.4776 535.454 62.4907 536.446 61.2735 536.446H58.6286C57.4113 536.446 56.4245 537.438 56.4245 538.662V541.321C56.4245 542.545 55.4377 543.537 54.2204 543.537H51.5755C50.3582 543.537 49.3714 544.53 49.3714 545.753V548.413C49.3714 549.636 48.3846 550.629 47.1673 550.629H44.5224C43.3052 550.629 42.3184 549.636 42.3184 548.413V508.082H47.1673C48.3846 508.082 49.3714 507.09 49.3714 505.866V500.991H54.2204C55.4377 500.991 56.4245 499.999 56.4245 498.775V493.9H61.2735C62.4907 493.9 63.4776 492.908 63.4776 491.684V486.809H68.3265C69.5438 486.809 70.5306 485.817 70.5306 484.593V479.717H75.3796C76.5969 479.717 77.5837 480.71 77.5837 481.933V520.048Z" fill="#9863E7"/>
<path d="M84.6367 548.413C84.6367 549.636 83.6499 550.629 82.4327 550.629H79.7878C78.5705 550.629 77.5837 549.636 77.5837 548.413V543.537H84.6367V548.413Z" fill="#9863E7"/>
<path fill-rule="evenodd" clip-rule="evenodd" d="M133.788 477.502C133.788 478.725 134.775 479.717 135.992 479.717H138.637C139.854 479.717 140.841 480.71 140.841 481.933V484.593C140.841 485.817 141.828 486.809 143.045 486.809H145.69C146.907 486.809 147.894 487.801 147.894 489.025V491.684C147.894 492.908 148.881 493.9 150.098 493.9H152.743C153.96 493.9 154.947 494.892 154.947 496.116V498.775C154.947 499.999 155.934 500.991 157.151 500.991H159.796C161.013 500.991 162 501.983 162 503.207V505.866C162 507.09 161.013 508.082 159.796 508.082H122.106C120.889 508.082 119.902 509.074 119.902 510.298V548.413C119.902 549.636 118.915 550.629 117.698 550.629H115.053C113.836 550.629 112.849 549.636 112.849 548.413V545.753C112.849 544.53 111.862 543.537 110.645 543.537H108C106.783 543.537 105.796 542.545 105.796 541.321V538.662C105.796 537.438 104.809 536.446 103.592 536.446H100.947C99.7297 536.446 98.7429 535.454 98.7429 534.23V531.571C98.7429 530.347 97.7561 529.355 96.5388 529.355H93.8939C92.6766 529.355 91.6898 528.363 91.6898 527.139V524.48C91.6898 523.256 90.703 522.264 89.4857 522.264H86.8408C85.6235 522.264 84.6367 521.272 84.6367 520.048V481.933C84.6367 480.71 85.6235 479.717 86.8408 479.717H89.2653C90.4826 479.717 91.4694 478.725 91.4694 477.502V474.842C91.4694 473.619 92.4562 472.626 93.6735 472.626H131.584C132.801 472.626 133.788 473.619 133.788 474.842V477.502ZM112.849 505.866C112.849 507.09 113.836 508.082 115.053 508.082H117.478C118.695 508.082 119.682 507.09 119.682 505.866V503.207C119.682 501.983 118.695 500.991 117.478 500.991H115.053C113.836 500.991 112.849 501.983 112.849 503.207V505.866ZM105.796 498.775C105.796 499.999 106.783 500.991 108 500.991H110.424C111.642 500.991 112.629 499.999 112.629 498.775V496.116C112.629 494.892 111.642 493.9 110.424 493.9H108C106.783 493.9 105.796 494.892 105.796 496.116V498.775ZM98.7429 491.684C98.7429 492.908 99.7297 493.9 100.947 493.9H103.371C104.589 493.9 105.576 492.908 105.576 491.684V489.025C105.576 487.801 104.589 486.809 103.371 486.809H100.947C99.7297 486.809 98.7429 487.801 98.7429 489.025V491.684ZM91.6898 484.593C91.6898 485.817 92.6766 486.809 93.8939 486.809H96.3184C97.5356 486.809 98.5225 485.817 98.5225 484.593V481.933C98.5225 480.71 97.5356 479.717 96.3184 479.717H93.8939C92.6766 479.717 91.6898 480.71 91.6898 481.933V484.593Z" fill="#9863E7"/>
<path d="M147.894 548.413C147.894 549.636 146.907 550.629 145.69 550.629H143.045C141.828 550.629 140.841 549.636 140.841 548.413V543.537H147.894V548.413Z" fill="#9863E7"/>
<path d="M14.1061 543.537H9.25714C8.03986 543.537 7.05306 542.545 7.05306 541.321V536.446H11.902C13.1193 536.446 14.1061 537.438 14.1061 538.662V543.537Z" fill="#9863E7"/>
<path d="M28.2122 541.321C28.2122 542.545 27.2254 543.537 26.0082 543.537H21.1592V538.662C21.1592 537.438 22.146 536.446 23.3633 536.446H28.2122V541.321Z" fill="#9863E7"/>
<path d="M77.5837 543.537H72.7347C71.5174 543.537 70.5306 542.545 70.5306 541.321V538.662C70.5306 537.438 71.5174 536.446 72.7347 536.446H77.5837V543.537Z" fill="#9863E7"/>
<path d="M91.6898 541.321C91.6898 542.545 90.703 543.537 89.4857 543.537H84.6367V536.446H89.4857C90.703 536.446 91.6898 537.438 91.6898 538.662V541.321Z" fill="#9863E7"/>
<path d="M140.841 543.537H135.992C134.775 543.537 133.788 542.545 133.788 541.321V536.446H138.637C139.854 536.446 140.841 537.438 140.841 538.662V543.537Z" fill="#9863E7"/>
<path d="M154.947 541.321C154.947 542.545 153.96 543.537 152.743 543.537H147.894V538.662C147.894 537.438 148.881 536.446 150.098 536.446H154.947V541.321Z" fill="#9863E7"/>
<path d="M7.05306 536.446H2.20408C0.986801 536.446 0 535.454 0 534.23V531.571C0 530.347 0.986801 529.355 2.20408 529.355H7.05306V536.446Z" fill="#9863E7"/>
<path d="M35.2653 534.23C35.2653 535.454 34.2785 536.446 33.0612 536.446H28.2122V529.355H33.0612C34.2785 529.355 35.2653 530.347 35.2653 531.571V534.23Z" fill="#9863E7"/>
<path d="M84.6367 536.446H77.5837V531.571C77.5837 530.347 78.5705 529.355 79.7878 529.355H82.4327C83.6499 529.355 84.6367 530.347 84.6367 531.571V536.446Z" fill="#9863E7"/>
<path d="M133.788 536.446H128.939C127.721 536.446 126.735 535.454 126.735 534.23V531.571C126.735 530.347 127.721 529.355 128.939 529.355H133.788V536.446Z" fill="#9863E7"/>
<path d="M162 534.23C162 535.454 161.013 536.446 159.796 536.446H154.947V529.355H159.796C161.013 529.355 162 530.347 162 531.571V534.23Z" fill="#9863E7"/>
<path d="M14.1061 527.139C14.1061 528.363 13.1193 529.355 11.902 529.355H7.05306V524.48C7.05306 523.256 8.03986 522.264 9.25714 522.264H14.1061V527.139Z" fill="#9863E7"/>
<path d="M28.2122 529.355H23.3633C22.146 529.355 21.1592 528.363 21.1592 527.139V522.264H26.0082C27.2254 522.264 28.2122 523.256 28.2122 524.48V529.355Z" fill="#9863E7"/>
<path d="M140.841 527.139C140.841 528.363 139.854 529.355 138.637 529.355H133.788V524.48C133.788 523.256 134.775 522.264 135.992 522.264H140.841V527.139Z" fill="#9863E7"/>
<path d="M154.947 529.355H150.098C148.881 529.355 147.894 528.363 147.894 527.139V522.264H152.743C153.96 522.264 154.947 523.256 154.947 524.48V529.355Z" fill="#9863E7"/>
<path d="M21.1592 522.264H14.1061V517.389C14.1061 516.165 15.0929 515.173 16.3102 515.173H18.9551C20.1724 515.173 21.1592 516.165 21.1592 517.389V522.264Z" fill="#9863E7"/>
<path d="M147.894 522.264H140.841V517.389C140.841 516.165 141.828 515.173 143.045 515.173H145.69C146.907 515.173 147.894 516.165 147.894 517.389V522.264Z" fill="#9863E7"/>
<path d="M70.5306 479.717H65.6816C64.4643 479.717 63.4776 480.71 63.4776 481.933V486.809H58.6286C57.4113 486.809 56.4245 487.801 56.4245 489.025V493.9H51.5755C50.3582 493.9 49.3714 494.892 49.3714 496.116V500.991H44.5224C43.3052 500.991 42.3184 501.983 42.3184 503.207V508.082H2.20408C0.9868 508.082 0 507.09 0 505.866V503.207C0 501.983 0.986801 500.991 2.20408 500.991H4.84898C6.06626 500.991 7.05306 499.999 7.05306 498.775V496.116C7.05306 494.892 8.03986 493.9 9.25714 493.9H11.902C13.1193 493.9 14.1061 492.908 14.1061 491.684V489.025C14.1061 487.801 15.0929 486.809 16.3102 486.809H18.9551C20.1724 486.809 21.1592 485.817 21.1592 484.593V481.933C21.1592 480.71 22.146 479.717 23.3633 479.717H26.0082C27.2254 479.717 28.2122 478.725 28.2122 477.502V474.842C28.2122 473.619 29.199 472.626 30.4163 472.626H68.3265C69.5438 472.626 70.5306 473.619 70.5306 474.842V479.717Z" fill="#9863E7"/>
<path d="M14.1061 477.502C14.1061 478.725 13.1193 479.717 11.902 479.717H9.25714C8.03986 479.717 7.05306 478.725 7.05306 477.502V472.626H14.1061V477.502Z" fill="#9863E7"/>
<path d="M154.947 477.502C154.947 478.725 153.96 479.717 152.743 479.717H150.098C148.881 479.717 147.894 478.725 147.894 477.502V472.626H154.947V477.502Z" fill="#9863E7"/>
<path d="M7.05306 472.626H2.20408C0.986801 472.626 0 471.634 0 470.41V467.751C0 466.527 0.986801 465.535 2.20408 465.535H7.05306V472.626Z" fill="#9863E7"/>
<path d="M21.1592 470.41C21.1592 471.634 20.1724 472.626 18.9551 472.626H14.1061V465.535H18.9551C20.1724 465.535 21.1592 466.527 21.1592 467.751V470.41Z" fill="#9863E7"/>
<path d="M82.4327 465.535C83.6499 465.535 84.6367 466.527 84.6367 467.751V470.41C84.6367 471.634 83.6499 472.626 82.4327 472.626H79.7878C78.5705 472.626 77.5837 471.634 77.5837 470.41V467.751C77.5837 466.527 78.5705 465.535 79.7878 465.535H82.4327Z" fill="#9863E7"/>
<path d="M147.894 472.626H143.045C141.828 472.626 140.841 471.634 140.841 470.41V467.751C140.841 466.527 141.828 465.535 143.045 465.535H147.894V472.626Z" fill="#9863E7"/>
<path d="M162 470.41C162 471.634 161.013 472.626 159.796 472.626H154.947V465.535H159.796C161.013 465.535 162 466.527 162 467.751V470.41Z" fill="#9863E7"/>
<path d="M14.1061 465.535H7.05306V460.66C7.05306 459.436 8.03986 458.444 9.25714 458.444H11.902C13.1193 458.444 14.1061 459.436 14.1061 460.66V465.535Z" fill="#9863E7"/>
<path fill-rule="evenodd" clip-rule="evenodd" d="M49.3714 392.408C49.3714 393.632 50.3582 394.624 51.5755 394.624H54.2204C55.4377 394.624 56.4245 395.616 56.4245 396.84V399.499C56.4245 400.723 57.4113 401.715 58.6286 401.715H61.2735C62.4907 401.715 63.4776 402.708 63.4776 403.931V406.591C63.4776 407.814 64.4643 408.807 65.6816 408.807H68.3265C69.5438 408.807 70.5306 409.799 70.5306 411.022V413.682C70.5306 414.905 71.5174 415.898 72.7347 415.898H75.3796C76.5969 415.898 77.5837 416.89 77.5837 418.114V456.228C77.5837 457.452 76.5969 458.444 75.3796 458.444H70.5306V453.569C70.5306 452.345 69.5438 451.353 68.3265 451.353H63.4776V456.228C63.4776 457.452 64.4643 458.444 65.6816 458.444H70.5306V463.319C70.5306 464.543 69.5438 465.535 68.3265 465.535H30.4163C29.199 465.535 28.2122 464.543 28.2122 463.319V460.66C28.2122 459.436 27.2254 458.444 26.0082 458.444H23.3633C22.146 458.444 21.1592 457.452 21.1592 456.228V453.569C21.1592 452.345 20.1724 451.353 18.9551 451.353H16.3102C15.0929 451.353 14.1061 450.361 14.1061 449.137V446.478C14.1061 445.254 13.1193 444.262 11.902 444.262H9.25714C8.03986 444.262 7.05306 443.27 7.05306 442.046V439.387C7.05306 438.163 6.06626 437.171 4.84898 437.171H2.20408C0.986801 437.171 0 436.179 0 434.955V432.296C0 431.072 0.986801 430.08 2.20408 430.08H42.3184V434.955C42.3184 436.179 43.3052 437.171 44.5224 437.171H49.3714V432.296C49.3714 431.072 48.3846 430.08 47.1673 430.08H42.3184V389.749C42.3184 388.525 43.3052 387.533 44.5224 387.533H47.1673C48.3846 387.533 49.3714 388.525 49.3714 389.749V392.408ZM56.4245 449.137C56.4245 450.361 57.4113 451.353 58.6286 451.353H63.4776V446.478C63.4776 445.254 62.4907 444.262 61.2735 444.262H56.4245V449.137ZM49.3714 442.046C49.3714 443.27 50.3582 444.262 51.5755 444.262H56.4245V439.387C56.4245 438.163 55.4377 437.171 54.2204 437.171H49.3714V442.046Z" fill="#9863E7"/>
<path fill-rule="evenodd" clip-rule="evenodd" d="M119.902 427.864C119.902 429.088 120.889 430.08 122.106 430.08H159.796C161.013 430.08 162 431.072 162 432.296V434.955C162 436.179 161.013 437.171 159.796 437.171H157.151C155.934 437.171 154.947 438.163 154.947 439.387V442.046C154.947 443.27 153.96 444.262 152.743 444.262H150.098C148.881 444.262 147.894 445.254 147.894 446.478V449.137C147.894 450.361 146.907 451.353 145.69 451.353H143.045C141.828 451.353 140.841 452.345 140.841 453.569V456.228C140.841 457.452 139.854 458.444 138.637 458.444H135.992C134.775 458.444 133.788 459.436 133.788 460.66V463.319C133.788 464.543 132.801 465.535 131.584 465.535H93.6735C92.4562 465.535 91.4694 464.543 91.4694 463.319V460.66C91.4694 459.436 90.4826 458.444 89.2653 458.444H86.8408C85.6235 458.444 84.6367 457.452 84.6367 456.228V418.114C84.6367 416.89 85.6235 415.898 86.8408 415.898H89.4857C90.703 415.898 91.6898 414.905 91.6898 413.682V411.022C91.6898 409.799 92.6766 408.807 93.8939 408.807H96.5388C97.7561 408.807 98.7429 407.814 98.7429 406.591V403.931C98.7429 402.708 99.7297 401.715 100.947 401.715H103.592C104.809 401.715 105.796 400.723 105.796 399.499V396.84C105.796 395.616 106.783 394.624 108 394.624H110.645C111.862 394.624 112.849 393.632 112.849 392.408V389.749C112.849 388.525 113.836 387.533 115.053 387.533H117.698C118.915 387.533 119.902 388.525 119.902 389.749V427.864ZM91.6898 456.228C91.6898 457.452 92.6766 458.444 93.8939 458.444H96.3184C97.5356 458.444 98.5225 457.452 98.5225 456.228V453.569C98.5225 452.345 97.5356 451.353 96.3184 451.353H93.8939C92.6766 451.353 91.6898 452.345 91.6898 453.569V456.228ZM98.7429 449.137C98.7429 450.361 99.7297 451.353 100.947 451.353H103.371C104.589 451.353 105.576 450.361 105.576 449.137V446.478C105.576 445.254 104.589 444.262 103.371 444.262H100.947C99.7297 444.262 98.7429 445.254 98.7429 446.478V449.137ZM105.796 442.046C105.796 443.27 106.783 444.262 108 444.262H110.424C111.642 444.262 112.629 443.27 112.629 442.046V439.387C112.629 438.163 111.642 437.171 110.424 437.171H108C106.783 437.171 105.796 438.163 105.796 439.387V442.046ZM112.849 434.955C112.849 436.179 113.836 437.171 115.053 437.171H117.478C118.695 437.171 119.682 436.179 119.682 434.955V432.296C119.682 431.072 118.695 430.08 117.478 430.08H115.053C113.836 430.08 112.849 431.072 112.849 432.296V434.955Z" fill="#9863E7"/>
<path d="M154.947 465.535H147.894V460.66C147.894 459.436 148.881 458.444 150.098 458.444H152.743C153.96 458.444 154.947 459.436 154.947 460.66V465.535Z" fill="#9863E7"/>
<path d="M21.1592 421.881C21.1592 422.493 20.6658 422.989 20.0571 422.989H15.2082C14.5995 422.989 14.1061 422.493 14.1061 421.881V415.898H21.1592V421.881Z" fill="#9863E7"/>
<path d="M147.894 420.773C147.894 421.997 146.907 422.989 145.69 422.989H143.045C141.828 422.989 140.841 421.997 140.841 420.773V415.898H147.894V420.773Z" fill="#9863E7"/>
<path d="M13.0041 408.807C13.6127 408.807 14.1061 409.303 14.1061 409.915V415.898H8.1551C7.54646 415.898 7.05306 415.402 7.05306 414.79V408.807H13.0041Z" fill="#9863E7"/>
<path d="M28.2122 414.79C28.2122 415.402 27.7188 415.898 27.1102 415.898H21.1592V409.915C21.1592 409.303 21.6526 408.807 22.2612 408.807H28.2122V414.79Z" fill="#9863E7"/>
<path d="M140.841 415.898H135.992C134.775 415.898 133.788 414.905 133.788 413.682V408.807H138.637C139.854 408.807 140.841 409.799 140.841 411.022V415.898Z" fill="#9863E7"/>
<path d="M154.947 413.682C154.947 414.905 153.96 415.898 152.743 415.898H147.894V411.022C147.894 409.799 148.881 408.807 150.098 408.807H154.947V413.682Z" fill="#9863E7"/>
<path d="M84.6367 406.812C84.6367 408.036 83.6499 409.028 82.4327 409.028H79.7878C78.5705 409.028 77.5837 408.036 77.5837 406.812V401.937H84.6367V406.812Z" fill="#9863E7"/>
<path d="M7.05306 408.807H1.10204C0.493401 408.807 0 408.31 0 407.698V402.823C0 402.211 0.493401 401.715 1.10204 401.715H7.05306V408.807Z" fill="#9863E7"/>
<path d="M34.1633 401.715C34.7719 401.715 35.2653 402.211 35.2653 402.823V407.698C35.2653 408.31 34.7719 408.807 34.1633 408.807H28.2122V401.715H34.1633Z" fill="#9863E7"/>
<path d="M133.788 408.807H128.939C127.721 408.807 126.735 407.814 126.735 406.591V403.931C126.735 402.708 127.721 401.715 128.939 401.715H133.788V408.807Z" fill="#9863E7"/>
<path d="M162 406.591C162 407.814 161.013 408.807 159.796 408.807H154.947V401.715H159.796C161.013 401.715 162 402.708 162 403.931V406.591Z" fill="#9863E7"/>
<path d="M77.5837 401.937H72.7347C71.5174 401.937 70.5306 400.945 70.5306 399.721V397.062C70.5306 395.838 71.5174 394.846 72.7347 394.846H77.5837V401.937Z" fill="#9863E7"/>
<path d="M91.6898 399.721C91.6898 400.945 90.703 401.937 89.4857 401.937H84.6367V394.846H89.4857C90.703 394.846 91.6898 395.838 91.6898 397.062V399.721Z" fill="#9863E7"/>
<path d="M14.1061 400.607C14.1061 401.219 13.6127 401.715 13.0041 401.715H7.05306V395.732C7.05306 395.12 7.54646 394.624 8.1551 394.624H14.1061V400.607Z" fill="#9863E7"/>
<path d="M27.1102 394.624C27.7188 394.624 28.2122 395.12 28.2122 395.732V401.715H22.2612C21.6526 401.715 21.1592 401.219 21.1592 400.607V394.624H27.1102Z" fill="#9863E7"/>
<path d="M140.841 399.499C140.841 400.723 139.854 401.715 138.637 401.715H133.788V396.84C133.788 395.616 134.775 394.624 135.992 394.624H140.841V399.499Z" fill="#9863E7"/>
<path d="M154.947 401.715H150.098C148.881 401.715 147.894 400.723 147.894 399.499V394.624H152.743C153.96 394.624 154.947 395.616 154.947 396.84V401.715Z" fill="#9863E7"/>
<path d="M84.6367 394.846H77.5837V389.971C77.5837 388.747 78.5705 387.755 79.7878 387.755H82.4327C83.6499 387.755 84.6367 388.747 84.6367 389.971V394.846Z" fill="#9863E7"/>
<path d="M20.0571 387.533C20.6658 387.533 21.1592 388.029 21.1592 388.641V394.624H14.1061V388.641C14.1061 388.029 14.5995 387.533 15.2082 387.533H20.0571Z" fill="#9863E7"/>
<path d="M147.894 394.624H140.841V389.749C140.841 388.525 141.828 387.533 143.045 387.533H145.69C146.907 387.533 147.894 388.525 147.894 389.749V394.624Z" fill="#9863E7"/>
<path d="M21.1592 93.5651C21.1592 94.7889 20.1724 95.781 18.9551 95.781H16.3102C15.0929 95.781 14.1061 94.7889 14.1061 93.5651V88.6899H21.1592V93.5651Z" fill="#9863E7"/>
<path d="M77.5837 65.2007C77.5837 66.4245 76.5969 67.4166 75.3796 67.4166H72.7347C71.5174 67.4166 70.5306 68.4088 70.5306 69.6326V72.2917C70.5306 73.5156 69.5438 74.5077 68.3265 74.5077H65.6816C64.4643 74.5077 63.4776 75.4999 63.4776 76.7237V79.3828C63.4776 80.6067 62.4907 81.5988 61.2735 81.5988H58.6286C57.4113 81.5988 56.4245 82.5909 56.4245 83.8148V86.474C56.4245 87.6978 55.4377 88.6899 54.2204 88.6899H51.5755C50.3582 88.6899 49.3714 89.682 49.3714 90.9059V93.5651C49.3714 94.7889 48.3846 95.781 47.1673 95.781H44.5224C43.3052 95.781 42.3184 94.7889 42.3184 93.5651V53.2344H47.1673C48.3846 53.2344 49.3714 52.2423 49.3714 51.0185V46.1433H54.2204C55.4377 46.1433 56.4245 45.1512 56.4245 43.9274V39.0522H61.2735C62.4907 39.0522 63.4776 38.0601 63.4776 36.8362V31.9611H68.3265C69.5438 31.9611 70.5306 30.969 70.5306 29.7452V24.87H75.3796C76.5969 24.87 77.5837 25.8622 77.5837 27.086V65.2007Z" fill="#9863E7"/>
<path d="M84.6367 93.5651C84.6367 94.7889 83.6499 95.781 82.4327 95.781H79.7878C78.5705 95.781 77.5837 94.7889 77.5837 93.5651V88.6899H84.6367V93.5651Z" fill="#9863E7"/>
<path fill-rule="evenodd" clip-rule="evenodd" d="M133.788 22.6541C133.788 23.8779 134.775 24.87 135.992 24.87H138.637C139.854 24.87 140.841 25.8622 140.841 27.086V29.7452C140.841 30.969 141.828 31.9611 143.045 31.9611H145.69C146.907 31.9611 147.894 32.9532 147.894 34.1771V36.8362C147.894 38.0601 148.881 39.0522 150.098 39.0522H152.743C153.96 39.0522 154.947 40.0443 154.947 41.2682V43.9274C154.947 45.1512 155.934 46.1433 157.151 46.1433H159.796C161.013 46.1433 162 47.1354 162 48.3593V51.0185C162 52.2423 161.013 53.2344 159.796 53.2344H122.106C120.889 53.2344 119.902 54.2266 119.902 55.4504V93.5651C119.902 94.7889 118.915 95.781 117.698 95.781H115.053C113.836 95.781 112.849 94.7889 112.849 93.5651V90.9059C112.849 89.682 111.862 88.6899 110.645 88.6899H108C106.783 88.6899 105.796 87.6978 105.796 86.474V83.8148C105.796 82.5909 104.809 81.5988 103.592 81.5988H100.947C99.7297 81.5988 98.7429 80.6067 98.7429 79.3828V76.7237C98.7429 75.4999 97.7561 74.5077 96.5388 74.5077H93.8939C92.6766 74.5077 91.6898 73.5156 91.6898 72.2917V69.6326C91.6898 68.4088 90.703 67.4166 89.4857 67.4166H86.8408C85.6235 67.4166 84.6367 66.4245 84.6367 65.2007V27.086C84.6367 25.8622 85.6235 24.87 86.8408 24.87H89.2653C90.4826 24.87 91.4694 23.8779 91.4694 22.6541V19.9949C91.4694 18.7711 92.4562 17.7789 93.6735 17.7789H131.584C132.801 17.7789 133.788 18.7711 133.788 19.9949V22.6541ZM112.849 51.0185C112.849 52.2423 113.836 53.2344 115.053 53.2344H117.478C118.695 53.2344 119.682 52.2423 119.682 51.0185V48.3593C119.682 47.1354 118.695 46.1433 117.478 46.1433H115.053C113.836 46.1433 112.849 47.1354 112.849 48.3593V51.0185ZM105.796 43.9274C105.796 45.1512 106.783 46.1433 108 46.1433H110.424C111.642 46.1433 112.629 45.1512 112.629 43.9274V41.2682C112.629 40.0443 111.642 39.0522 110.424 39.0522H108C106.783 39.0522 105.796 40.0443 105.796 41.2682V43.9274ZM98.7429 36.8362C98.7429 38.0601 99.7297 39.0522 100.947 39.0522H103.371C104.589 39.0522 105.576 38.0601 105.576 36.8362V34.1771C105.576 32.9532 104.589 31.9611 103.371 31.9611H100.947C99.7297 31.9611 98.7429 32.9532 98.7429 34.1771V36.8362ZM91.6898 29.7452C91.6898 30.969 92.6766 31.9611 93.8939 31.9611H96.3184C97.5356 31.9611 98.5225 30.969 98.5225 29.7452V27.086C98.5225 25.8622 97.5356 24.87 96.3184 24.87H93.8939C92.6766 24.87 91.6898 25.8622 91.6898 27.086V29.7452Z" fill="#9863E7"/>
<path d="M147.894 93.5651C147.894 94.7889 146.907 95.781 145.69 95.781H143.045C141.828 95.781 140.841 94.7889 140.841 93.5651V88.6899H147.894V93.5651Z" fill="#9863E7"/>
<path d="M14.1061 88.6899H9.25714C8.03986 88.6899 7.05306 87.6978 7.05306 86.474V81.5988H11.902C13.1193 81.5988 14.1061 82.5909 14.1061 83.8148V88.6899Z" fill="#9863E7"/>
<path d="M28.2122 86.474C28.2122 87.6978 27.2254 88.6899 26.0082 88.6899H21.1592V83.8148C21.1592 82.5909 22.146 81.5988 23.3633 81.5988H28.2122V86.474Z" fill="#9863E7"/>
<path d="M77.5837 88.6899H72.7347C71.5174 88.6899 70.5306 87.6978 70.5306 86.474V83.8148C70.5306 82.5909 71.5174 81.5988 72.7347 81.5988H77.5837V88.6899Z" fill="#9863E7"/>
<path d="M91.6898 86.474C91.6898 87.6978 90.703 88.6899 89.4857 88.6899H84.6367V81.5988H89.4857C90.703 81.5988 91.6898 82.5909 91.6898 83.8148V86.474Z" fill="#9863E7"/>
<path d="M140.841 88.6899H135.992C134.775 88.6899 133.788 87.6978 133.788 86.474V81.5988H138.637C139.854 81.5988 140.841 82.5909 140.841 83.8148V88.6899Z" fill="#9863E7"/>
<path d="M154.947 86.474C154.947 87.6978 153.96 88.6899 152.743 88.6899H147.894V83.8148C147.894 82.5909 148.881 81.5988 150.098 81.5988H154.947V86.474Z" fill="#9863E7"/>
<path d="M7.05306 81.5988H2.20408C0.986801 81.5988 0 80.6067 0 79.3828V76.7237C0 75.4999 0.986801 74.5077 2.20408 74.5077H7.05306V81.5988Z" fill="#9863E7"/>
<path d="M35.2653 79.3828C35.2653 80.6067 34.2785 81.5988 33.0612 81.5988H28.2122V74.5077H33.0612C34.2785 74.5077 35.2653 75.4999 35.2653 76.7237V79.3828Z" fill="#9863E7"/>
<path d="M84.6367 81.5988H77.5837V76.7237C77.5837 75.4999 78.5705 74.5077 79.7878 74.5077H82.4327C83.6499 74.5077 84.6367 75.4999 84.6367 76.7237V81.5988Z" fill="#9863E7"/>
<path d="M133.788 81.5988H128.939C127.721 81.5988 126.735 80.6067 126.735 79.3828V76.7237C126.735 75.4999 127.721 74.5077 128.939 74.5077H133.788V81.5988Z" fill="#9863E7"/>
<path d="M162 79.3828C162 80.6067 161.013 81.5988 159.796 81.5988H154.947V74.5077H159.796C161.013 74.5077 162 75.4999 162 76.7237V79.3828Z" fill="#9863E7"/>
<path d="M14.1061 72.2917C14.1061 73.5156 13.1193 74.5077 11.902 74.5077H7.05306V69.6326C7.05306 68.4088 8.03986 67.4166 9.25714 67.4166H14.1061V72.2917Z" fill="#9863E7"/>
<path d="M28.2122 74.5077H23.3633C22.146 74.5077 21.1592 73.5156 21.1592 72.2917V67.4166H26.0082C27.2254 67.4166 28.2122 68.4088 28.2122 69.6326V74.5077Z" fill="#9863E7"/>
<path d="M140.841 72.2917C140.841 73.5156 139.854 74.5077 138.637 74.5077H133.788V69.6326C133.788 68.4088 134.775 67.4166 135.992 67.4166H140.841V72.2917Z" fill="#9863E7"/>
<path d="M154.947 74.5077H150.098C148.881 74.5077 147.894 73.5156 147.894 72.2917V67.4166H152.743C153.96 67.4166 154.947 68.4088 154.947 69.6326V74.5077Z" fill="#9863E7"/>
<path d="M21.1592 67.4166H14.1061V62.5415C14.1061 61.3177 15.0929 60.3255 16.3102 60.3255H18.9551C20.1724 60.3255 21.1592 61.3177 21.1592 62.5415V67.4166Z" fill="#9863E7"/>
<path d="M147.894 67.4166H140.841V62.5415C140.841 61.3177 141.828 60.3255 143.045 60.3255H145.69C146.907 60.3255 147.894 61.3177 147.894 62.5415V67.4166Z" fill="#9863E7"/>
<path d="M70.5306 24.87H65.6816C64.4643 24.87 63.4776 25.8622 63.4776 27.086V31.9611H58.6286C57.4113 31.9611 56.4245 32.9532 56.4245 34.1771V39.0522H51.5755C50.3582 39.0522 49.3714 40.0443 49.3714 41.2682V46.1433H44.5224C43.3052 46.1433 42.3184 47.1354 42.3184 48.3593V53.2344H2.20408C0.9868 53.2344 0 52.2423 0 51.0185V48.3593C0 47.1354 0.986801 46.1433 2.20408 46.1433H4.84898C6.06626 46.1433 7.05306 45.1512 7.05306 43.9274V41.2682C7.05306 40.0443 8.03986 39.0522 9.25714 39.0522H11.902C13.1193 39.0522 14.1061 38.0601 14.1061 36.8362V34.1771C14.1061 32.9532 15.0929 31.9611 16.3102 31.9611H18.9551C20.1724 31.9611 21.1592 30.969 21.1592 29.7452V27.086C21.1592 25.8622 22.146 24.87 23.3633 24.87H26.0082C27.2254 24.87 28.2122 23.8779 28.2122 22.6541V19.9949C28.2122 18.7711 29.199 17.7789 30.4163 17.7789H68.3265C69.5438 17.7789 70.5306 18.7711 70.5306 19.9949V24.87Z" fill="#9863E7"/>
<path d="M14.1061 22.6541C14.1061 23.8779 13.1193 24.87 11.902 24.87H9.25714C8.03986 24.87 7.05306 23.8779 7.05306 22.6541V17.7789H14.1061V22.6541Z" fill="#9863E7"/>
<path d="M154.947 22.6541C154.947 23.8779 153.96 24.87 152.743 24.87H150.098C148.881 24.87 147.894 23.8779 147.894 22.6541V17.7789H154.947V22.6541Z" fill="#9863E7"/>
<path d="M7.05306 17.7789H2.20408C0.986801 17.7789 0 16.7868 0 15.563V12.9038C0 11.68 0.986801 10.6878 2.20408 10.6878H7.05306V17.7789Z" fill="#9863E7"/>
<path d="M21.1592 15.563C21.1592 16.7868 20.1724 17.7789 18.9551 17.7789H14.1061V10.6878H18.9551C20.1724 10.6878 21.1592 11.68 21.1592 12.9038V15.563Z" fill="#9863E7"/>
<path d="M82.4327 10.6878C83.6499 10.6878 84.6367 11.68 84.6367 12.9038V15.563C84.6367 16.7868 83.6499 17.7789 82.4327 17.7789H79.7878C78.5705 17.7789 77.5837 16.7868 77.5837 15.563V12.9038C77.5837 11.68 78.5705 10.6878 79.7878 10.6878H82.4327Z" fill="#9863E7"/>
<path d="M147.894 17.7789H143.045C141.828 17.7789 140.841 16.7868 140.841 15.563V12.9038C140.841 11.68 141.828 10.6878 143.045 10.6878H147.894V17.7789Z" fill="#9863E7"/>
<path d="M162 15.563C162 16.7868 161.013 17.7789 159.796 17.7789H154.947V10.6878H159.796C161.013 10.6878 162 11.68 162 12.9038V15.563Z" fill="#9863E7"/>
<path d="M14.1061 10.6878H7.05306V5.81268C7.05306 4.58884 8.03986 3.59674 9.25714 3.59674H11.902C13.1193 3.59674 14.1061 4.58884 14.1061 5.81268V10.6878Z" fill="#9863E7"/>
<path fill-rule="evenodd" clip-rule="evenodd" d="M49.3714 -62.4391C49.3714 -61.2153 50.3582 -60.2232 51.5755 -60.2232H54.2204C55.4377 -60.2232 56.4245 -59.231 56.4245 -58.0072V-55.348C56.4245 -54.1242 57.4113 -53.1321 58.6286 -53.1321H61.2735C62.4907 -53.1321 63.4776 -52.1399 63.4776 -50.9161V-48.2569C63.4776 -47.0331 64.4643 -46.041 65.6816 -46.041H68.3265C69.5438 -46.041 70.5306 -45.0489 70.5306 -43.825V-41.1658C70.5306 -39.942 71.5174 -38.9499 72.7347 -38.9499H75.3796C76.5969 -38.9499 77.5837 -37.9577 77.5837 -36.7339V1.38074C77.5837 2.60458 76.5969 3.59674 75.3796 3.59674H70.5306V-1.27841C70.5306 -2.50226 69.5438 -3.49438 68.3265 -3.49438H63.4776V1.38074C63.4776 2.60458 64.4643 3.59674 65.6816 3.59674H70.5306V8.47186C70.5306 9.69571 69.5438 10.6878 68.3265 10.6878H30.4163C29.199 10.6878 28.2122 9.69571 28.2122 8.47186V5.81268C28.2122 4.58884 27.2254 3.59674 26.0082 3.59674H23.3633C22.146 3.59674 21.1592 2.60458 21.1592 1.38074V-1.27841C21.1592 -2.50226 20.1724 -3.49438 18.9551 -3.49438H16.3102C15.0929 -3.49438 14.1061 -4.4865 14.1061 -5.71034V-8.36951C14.1061 -9.59335 13.1193 -10.5855 11.902 -10.5855H9.25714C8.03986 -10.5855 7.05306 -11.5776 7.05306 -12.8014V-15.4606C7.05306 -16.6844 6.06626 -17.6766 4.84898 -17.6766H2.20408C0.986801 -17.6766 0 -18.6687 0 -19.8925V-22.5517C0 -23.7756 0.986801 -24.7677 2.20408 -24.7677H42.3184V-19.8925C42.3184 -18.6687 43.3052 -17.6766 44.5224 -17.6766H49.3714V-22.5517C49.3714 -23.7756 48.3846 -24.7677 47.1673 -24.7677H42.3184V-65.0983C42.3184 -66.3221 43.3052 -67.3143 44.5224 -67.3143H47.1673C48.3846 -67.3143 49.3714 -66.3221 49.3714 -65.0983V-62.4391ZM56.4245 -5.71034C56.4245 -4.4865 57.4113 -3.49438 58.6286 -3.49438H63.4776V-8.36951C63.4776 -9.59335 62.4907 -10.5855 61.2735 -10.5855H56.4245V-5.71034ZM49.3714 -12.8014C49.3714 -11.5776 50.3582 -10.5855 51.5755 -10.5855H56.4245V-15.4606C56.4245 -16.6844 55.4377 -17.6766 54.2204 -17.6766H49.3714V-12.8014Z" fill="#9863E7"/>
<path fill-rule="evenodd" clip-rule="evenodd" d="M119.902 -26.9836C119.902 -25.7598 120.889 -24.7677 122.106 -24.7677H159.796C161.013 -24.7677 162 -23.7756 162 -22.5517V-19.8925C162 -18.6687 161.013 -17.6766 159.796 -17.6766H157.151C155.934 -17.6766 154.947 -16.6844 154.947 -15.4606V-12.8014C154.947 -11.5776 153.96 -10.5855 152.743 -10.5855H150.098C148.881 -10.5855 147.894 -9.59335 147.894 -8.36951V-5.71034C147.894 -4.4865 146.907 -3.49438 145.69 -3.49438H143.045C141.828 -3.49438 140.841 -2.50226 140.841 -1.27841V1.38074C140.841 2.60458 139.854 3.59674 138.637 3.59674H135.992C134.775 3.59674 133.788 4.58884 133.788 5.81268V8.47186C133.788 9.69571 132.801 10.6878 131.584 10.6878H93.6735C92.4562 10.6878 91.4694 9.69571 91.4694 8.47186V5.81268C91.4694 4.58884 90.4826 3.59674 89.2653 3.59674H86.8408C85.6235 3.59674 84.6367 2.60458 84.6367 1.38074V-36.7339C84.6367 -37.9577 85.6235 -38.9499 86.8408 -38.9499H89.4857C90.703 -38.9499 91.6898 -39.942 91.6898 -41.1658V-43.825C91.6898 -45.0489 92.6766 -46.041 93.8939 -46.041H96.5388C97.7561 -46.041 98.7429 -47.0331 98.7429 -48.2569V-50.9161C98.7429 -52.1399 99.7297 -53.1321 100.947 -53.1321H103.592C104.809 -53.1321 105.796 -54.1242 105.796 -55.348V-58.0072C105.796 -59.231 106.783 -60.2232 108 -60.2232H110.645C111.862 -60.2232 112.849 -61.2153 112.849 -62.4391V-65.0983C112.849 -66.3221 113.836 -67.3143 115.053 -67.3143H117.698C118.915 -67.3143 119.902 -66.3221 119.902 -65.0983V-26.9836ZM91.6898 1.38074C91.6898 2.60458 92.6766 3.59674 93.8939 3.59674H96.3184C97.5356 3.59674 98.5225 2.60458 98.5225 1.38074V-1.27841C98.5225 -2.50226 97.5356 -3.49438 96.3184 -3.49438H93.8939C92.6766 -3.49438 91.6898 -2.50226 91.6898 -1.27841V1.38074ZM98.7429 -5.71034C98.7429 -4.4865 99.7297 -3.49438 100.947 -3.49438H103.371C104.589 -3.49438 105.576 -4.4865 105.576 -5.71034V-8.36951C105.576 -9.59335 104.589 -10.5855 103.371 -10.5855H100.947C99.7297 -10.5855 98.7429 -9.59335 98.7429 -8.36951V-5.71034ZM105.796 -12.8014C105.796 -11.5776 106.783 -10.5855 108 -10.5855H110.424C111.642 -10.5855 112.629 -11.5776 112.629 -12.8014V-15.4606C112.629 -16.6844 111.642 -17.6766 110.424 -17.6766H108C106.783 -17.6766 105.796 -16.6844 105.796 -15.4606V-12.8014ZM112.849 -19.8925C112.849 -18.6687 113.836 -17.6766 115.053 -17.6766H117.478C118.695 -17.6766 119.682 -18.6687 119.682 -19.8925V-22.5517C119.682 -23.7756 118.695 -24.7677 117.478 -24.7677H115.053C113.836 -24.7677 112.849 -23.7756 112.849 -22.5517V-19.8925Z" fill="#9863E7"/>
<path d="M154.947 10.6878H147.894V5.81268C147.894 4.58884 148.881 3.59674 150.098 3.59674H152.743C153.96 3.59674 154.947 4.58884 154.947 5.81268V10.6878Z" fill="#9863E7"/>
<path d="M21.1592 -32.9668C21.1592 -32.3548 20.6658 -31.8588 20.0571 -31.8588H15.2082C14.5995 -31.8588 14.1061 -32.3548 14.1061 -32.9668V-38.9499H21.1592V-32.9668Z" fill="#9863E7"/>
<path d="M147.894 -34.0748C147.894 -32.8509 146.907 -31.8588 145.69 -31.8588H143.045C141.828 -31.8588 140.841 -32.8509 140.841 -34.0748V-38.9499H147.894V-34.0748Z" fill="#9863E7"/>
<path d="M13.0041 -46.041C13.6127 -46.041 14.1061 -45.5449 14.1061 -44.933V-38.9499H8.1551C7.54646 -38.9499 7.05306 -39.4459 7.05306 -40.0578V-46.041H13.0041Z" fill="#9863E7"/>
<path d="M28.2122 -40.0578C28.2122 -39.4459 27.7188 -38.9499 27.1102 -38.9499H21.1592V-44.933C21.1592 -45.5449 21.6526 -46.041 22.2612 -46.041H28.2122V-40.0578Z" fill="#9863E7"/>
<path d="M140.841 -38.9499H135.992C134.775 -38.9499 133.788 -39.942 133.788 -41.1658V-46.041H138.637C139.854 -46.041 140.841 -45.0489 140.841 -43.825V-38.9499Z" fill="#9863E7"/>
<path d="M154.947 -41.1658C154.947 -39.942 153.96 -38.9499 152.743 -38.9499H147.894V-43.825C147.894 -45.0489 148.881 -46.041 150.098 -46.041H154.947V-41.1658Z" fill="#9863E7"/>
<path d="M84.6367 -48.0354C84.6367 -46.8115 83.6499 -45.8194 82.4327 -45.8194H79.7878C78.5705 -45.8194 77.5837 -46.8115 77.5837 -48.0354V-52.9105H84.6367V-48.0354Z" fill="#9863E7"/>
<path d="M7.05306 -46.041H1.10204C0.493401 -46.041 0 -46.537 0 -47.149V-52.0241C0 -52.636 0.493401 -53.1321 1.10204 -53.1321H7.05306V-46.041Z" fill="#9863E7"/>
<path d="M34.1633 -53.1321C34.7719 -53.1321 35.2653 -52.636 35.2653 -52.0241V-47.149C35.2653 -46.537 34.7719 -46.041 34.1633 -46.041H28.2122V-53.1321H34.1633Z" fill="#9863E7"/>
<path d="M133.788 -46.041H128.939C127.721 -46.041 126.735 -47.0331 126.735 -48.2569V-50.9161C126.735 -52.1399 127.721 -53.1321 128.939 -53.1321H133.788V-46.041Z" fill="#9863E7"/>
<path d="M162 -48.2569C162 -47.0331 161.013 -46.041 159.796 -46.041H154.947V-53.1321H159.796C161.013 -53.1321 162 -52.1399 162 -50.9161V-48.2569Z" fill="#9863E7"/>
<path d="M77.5837 -52.9105H72.7347C71.5174 -52.9105 70.5306 -53.9026 70.5306 -55.1264V-57.7856C70.5306 -59.0095 71.5174 -60.0016 72.7347 -60.0016H77.5837V-52.9105Z" fill="#9863E7"/>
<path d="M91.6898 -55.1264C91.6898 -53.9026 90.703 -52.9105 89.4857 -52.9105H84.6367V-60.0016H89.4857C90.703 -60.0016 91.6898 -59.0095 91.6898 -57.7856V-55.1264Z" fill="#9863E7"/>
<path d="M14.1061 -54.2401C14.1061 -53.6281 13.6127 -53.1321 13.0041 -53.1321H7.05306V-59.1152C7.05306 -59.7271 7.54646 -60.2232 8.1551 -60.2232H14.1061V-54.2401Z" fill="#9863E7"/>
<path d="M27.1102 -60.2232C27.7188 -60.2232 28.2122 -59.7271 28.2122 -59.1152V-53.1321H22.2612C21.6526 -53.1321 21.1592 -53.6281 21.1592 -54.2401V-60.2232H27.1102Z" fill="#9863E7"/>
<path d="M140.841 -55.348C140.841 -54.1242 139.854 -53.1321 138.637 -53.1321H133.788V-58.0072C133.788 -59.231 134.775 -60.2232 135.992 -60.2232H140.841V-55.348Z" fill="#9863E7"/>
<path d="M154.947 -53.1321H150.098C148.881 -53.1321 147.894 -54.1242 147.894 -55.348V-60.2232H152.743C153.96 -60.2232 154.947 -59.231 154.947 -58.0072V-53.1321Z" fill="#9863E7"/>
<path d="M84.6367 -60.0016H77.5837V-64.8767C77.5837 -66.1005 78.5705 -67.0927 79.7878 -67.0927H82.4327C83.6499 -67.0927 84.6367 -66.1005 84.6367 -64.8767V-60.0016Z" fill="#9863E7"/>
<path d="M20.0571 -67.3143C20.6658 -67.3143 21.1592 -66.8182 21.1592 -66.2063V-60.2232H14.1061V-66.2063C14.1061 -66.8182 14.5995 -67.3143 15.2082 -67.3143H20.0571Z" fill="#9863E7"/>
<path d="M147.894 -60.2232H140.841V-65.0983C140.841 -66.3221 141.828 -67.3143 143.045 -67.3143H145.69C146.907 -67.3143 147.894 -66.3221 147.894 -65.0983V-60.2232Z" fill="#9863E7"/>
<path d="M21.1592 -98.1207C21.1592 -96.8968 20.1724 -95.9047 18.9551 -95.9047H16.3102C15.0929 -95.9047 14.1061 -96.8968 14.1061 -98.1207V-102.996H21.1592V-98.1207Z" fill="#9863E7"/>
<path d="M77.5837 -126.485C77.5837 -125.261 76.5969 -124.269 75.3796 -124.269H72.7347C71.5174 -124.269 70.5306 -123.277 70.5306 -122.053V-119.394C70.5306 -118.17 69.5438 -117.178 68.3265 -117.178H65.6816C64.4643 -117.178 63.4776 -116.186 63.4776 -114.962V-112.303C63.4776 -111.079 62.4907 -110.087 61.2735 -110.087H58.6286C57.4113 -110.087 56.4245 -109.095 56.4245 -107.871V-105.212C56.4245 -103.988 55.4377 -102.996 54.2204 -102.996H51.5755C50.3582 -102.996 49.3714 -102.004 49.3714 -100.78V-98.1207C49.3714 -96.8968 48.3846 -95.9047 47.1673 -95.9047H44.5224C43.3052 -95.9047 42.3184 -96.8968 42.3184 -98.1207V-138.451H47.1673C48.3846 -138.451 49.3714 -139.443 49.3714 -140.667V-145.542H54.2204C55.4377 -145.542 56.4245 -146.535 56.4245 -147.758V-152.633H61.2735C62.4907 -152.633 63.4776 -153.626 63.4776 -154.849V-159.725H68.3265C69.5438 -159.725 70.5306 -160.717 70.5306 -161.941V-166.816H75.3796C76.5969 -166.816 77.5837 -165.824 77.5837 -164.6V-126.485Z" fill="#9863E7"/>
<path d="M84.6367 -98.1207C84.6367 -96.8968 83.6499 -95.9047 82.4327 -95.9047H79.7878C78.5705 -95.9047 77.5837 -96.8968 77.5837 -98.1207V-102.996H84.6367V-98.1207Z" fill="#9863E7"/>
<path fill-rule="evenodd" clip-rule="evenodd" d="M133.788 -169.032C133.788 -167.808 134.775 -166.816 135.992 -166.816H138.637C139.854 -166.816 140.841 -165.824 140.841 -164.6V-161.941C140.841 -160.717 141.828 -159.725 143.045 -159.725H145.69C146.907 -159.725 147.894 -158.732 147.894 -157.509V-154.849C147.894 -153.626 148.881 -152.633 150.098 -152.633H152.743C153.96 -152.633 154.947 -151.641 154.947 -150.418V-147.758C154.947 -146.535 155.934 -145.542 157.151 -145.542H159.796C161.013 -145.542 162 -144.55 162 -143.326V-140.667C162 -139.443 161.013 -138.451 159.796 -138.451H122.106C120.889 -138.451 119.902 -137.459 119.902 -136.235V-98.1207C119.902 -96.8968 118.915 -95.9047 117.698 -95.9047H115.053C113.836 -95.9047 112.849 -96.8968 112.849 -98.1207V-100.78C112.849 -102.004 111.862 -102.996 110.645 -102.996H108C106.783 -102.996 105.796 -103.988 105.796 -105.212V-107.871C105.796 -109.095 104.809 -110.087 103.592 -110.087H100.947C99.7297 -110.087 98.7429 -111.079 98.7429 -112.303V-114.962C98.7429 -116.186 97.7561 -117.178 96.5388 -117.178H93.8939C92.6766 -117.178 91.6898 -118.17 91.6898 -119.394V-122.053C91.6898 -123.277 90.703 -124.269 89.4857 -124.269H86.8408C85.6235 -124.269 84.6367 -125.261 84.6367 -126.485V-164.6C84.6367 -165.824 85.6235 -166.816 86.8408 -166.816H89.2653C90.4826 -166.816 91.4694 -167.808 91.4694 -169.032V-171.691C91.4694 -172.915 92.4562 -173.907 93.6735 -173.907H131.584C132.801 -173.907 133.788 -172.915 133.788 -171.691V-169.032ZM112.849 -140.667C112.849 -139.443 113.836 -138.451 115.053 -138.451H117.478C118.695 -138.451 119.682 -139.443 119.682 -140.667V-143.326C119.682 -144.55 118.695 -145.542 117.478 -145.542H115.053C113.836 -145.542 112.849 -144.55 112.849 -143.326V-140.667ZM105.796 -147.758C105.796 -146.535 106.783 -145.542 108 -145.542H110.424C111.642 -145.542 112.629 -146.535 112.629 -147.758V-150.418C112.629 -151.641 111.642 -152.633 110.424 -152.633H108C106.783 -152.633 105.796 -151.641 105.796 -150.418V-147.758ZM98.7429 -154.849C98.7429 -153.626 99.7297 -152.633 100.947 -152.633H103.371C104.589 -152.633 105.576 -153.626 105.576 -154.849V-157.509C105.576 -158.732 104.589 -159.725 103.371 -159.725H100.947C99.7297 -159.725 98.7429 -158.732 98.7429 -157.509V-154.849ZM91.6898 -161.941C91.6898 -160.717 92.6766 -159.725 93.8939 -159.725H96.3184C97.5356 -159.725 98.5225 -160.717 98.5225 -161.941V-164.6C98.5225 -165.824 97.5356 -166.816 96.3184 -166.816H93.8939C92.6766 -166.816 91.6898 -165.824 91.6898 -164.6V-161.941Z" fill="#9863E7"/>
<path d="M147.894 -98.1207C147.894 -96.8968 146.907 -95.9047 145.69 -95.9047H143.045C141.828 -95.9047 140.841 -96.8968 140.841 -98.1207V-102.996H147.894V-98.1207Z" fill="#9863E7"/>
<path d="M14.1061 -102.996H9.25714C8.03986 -102.996 7.05306 -103.988 7.05306 -105.212V-110.087H11.902C13.1193 -110.087 14.1061 -109.095 14.1061 -107.871V-102.996Z" fill="#9863E7"/>
<path d="M28.2122 -105.212C28.2122 -103.988 27.2254 -102.996 26.0082 -102.996H21.1592V-107.871C21.1592 -109.095 22.146 -110.087 23.3633 -110.087H28.2122V-105.212Z" fill="#9863E7"/>
<path d="M77.5837 -102.996H72.7347C71.5174 -102.996 70.5306 -103.988 70.5306 -105.212V-107.871C70.5306 -109.095 71.5174 -110.087 72.7347 -110.087H77.5837V-102.996Z" fill="#9863E7"/>
<path d="M91.6898 -105.212C91.6898 -103.988 90.703 -102.996 89.4857 -102.996H84.6367V-110.087H89.4857C90.703 -110.087 91.6898 -109.095 91.6898 -107.871V-105.212Z" fill="#9863E7"/>
<path d="M140.841 -102.996H135.992C134.775 -102.996 133.788 -103.988 133.788 -105.212V-110.087H138.637C139.854 -110.087 140.841 -109.095 140.841 -107.871V-102.996Z" fill="#9863E7"/>
<path d="M154.947 -105.212C154.947 -103.988 153.96 -102.996 152.743 -102.996H147.894V-107.871C147.894 -109.095 148.881 -110.087 150.098 -110.087H154.947V-105.212Z" fill="#9863E7"/>
<path d="M7.05306 -110.087H2.20408C0.986801 -110.087 0 -111.079 0 -112.303V-114.962C0 -116.186 0.986801 -117.178 2.20408 -117.178H7.05306V-110.087Z" fill="#9863E7"/>
<path d="M35.2653 -112.303C35.2653 -111.079 34.2785 -110.087 33.0612 -110.087H28.2122V-117.178H33.0612C34.2785 -117.178 35.2653 -116.186 35.2653 -114.962V-112.303Z" fill="#9863E7"/>
<path d="M84.6367 -110.087H77.5837V-114.962C77.5837 -116.186 78.5705 -117.178 79.7878 -117.178H82.4327C83.6499 -117.178 84.6367 -116.186 84.6367 -114.962V-110.087Z" fill="#9863E7"/>
<path d="M133.788 -110.087H128.939C127.721 -110.087 126.735 -111.079 126.735 -112.303V-114.962C126.735 -116.186 127.721 -117.178 128.939 -117.178H133.788V-110.087Z" fill="#9863E7"/>
<path d="M162 -112.303C162 -111.079 161.013 -110.087 159.796 -110.087H154.947V-117.178H159.796C161.013 -117.178 162 -116.186 162 -114.962V-112.303Z" fill="#9863E7"/>
<path d="M14.1061 -119.394C14.1061 -118.17 13.1193 -117.178 11.902 -117.178H7.05306V-122.053C7.05306 -123.277 8.03986 -124.269 9.25714 -124.269H14.1061V-119.394Z" fill="#9863E7"/>
<path d="M28.2122 -117.178H23.3633C22.146 -117.178 21.1592 -118.17 21.1592 -119.394V-124.269H26.0082C27.2254 -124.269 28.2122 -123.277 28.2122 -122.053V-117.178Z" fill="#9863E7"/>
<path d="M140.841 -119.394C140.841 -118.17 139.854 -117.178 138.637 -117.178H133.788V-122.053C133.788 -123.277 134.775 -124.269 135.992 -124.269H140.841V-119.394Z" fill="#9863E7"/>
<path d="M154.947 -117.178H150.098C148.881 -117.178 147.894 -118.17 147.894 -119.394V-124.269H152.743C153.96 -124.269 154.947 -123.277 154.947 -122.053V-117.178Z" fill="#9863E7"/>
<path d="M21.1592 -124.269H14.1061V-129.144C14.1061 -130.368 15.0929 -131.36 16.3102 -131.36H18.9551C20.1724 -131.36 21.1592 -130.368 21.1592 -129.144V-124.269Z" fill="#9863E7"/>
<path d="M147.894 -124.269H140.841V-129.144C140.841 -130.368 141.828 -131.36 143.045 -131.36H145.69C146.907 -131.36 147.894 -130.368 147.894 -129.144V-124.269Z" fill="#9863E7"/>
<path d="M70.5306 -166.816H65.6816C64.4643 -166.816 63.4776 -165.824 63.4776 -164.6V-159.725H58.6286C57.4113 -159.725 56.4245 -158.732 56.4245 -157.509V-152.633H51.5755C50.3582 -152.633 49.3714 -151.641 49.3714 -150.418V-145.542H44.5224C43.3052 -145.542 42.3184 -144.55 42.3184 -143.326V-138.451H2.20408C0.9868 -138.451 0 -139.443 0 -140.667V-143.326C0 -144.55 0.986801 -145.542 2.20408 -145.542H4.84898C6.06626 -145.542 7.05306 -146.535 7.05306 -147.758V-150.418C7.05306 -151.641 8.03986 -152.633 9.25714 -152.633H11.902C13.1193 -152.633 14.1061 -153.626 14.1061 -154.849V-157.509C14.1061 -158.732 15.0929 -159.725 16.3102 -159.725H18.9551C20.1724 -159.725 21.1592 -160.717 21.1592 -161.941V-164.6C21.1592 -165.824 22.146 -166.816 23.3633 -166.816H26.0082C27.2254 -166.816 28.2122 -167.808 28.2122 -169.032V-171.691C28.2122 -172.915 29.199 -173.907 30.4163 -173.907H68.3265C69.5438 -173.907 70.5306 -172.915 70.5306 -171.691V-166.816Z" fill="#9863E7"/>
<path d="M14.1061 -169.032C14.1061 -167.808 13.1193 -166.816 11.902 -166.816H9.25714C8.03986 -166.816 7.05306 -167.808 7.05306 -169.032V-173.907H14.1061V-169.032Z" fill="#9863E7"/>
<path d="M154.947 -169.032C154.947 -167.808 153.96 -166.816 152.743 -166.816H150.098C148.881 -166.816 147.894 -167.808 147.894 -169.032V-173.907H154.947V-169.032Z" fill="#9863E7"/>
<path d="M7.05306 -173.907H2.20408C0.986801 -173.907 0 -174.899 0 -176.123V-178.782C0 -180.006 0.986801 -180.998 2.20408 -180.998H7.05306V-173.907Z" fill="#9863E7"/>
<path d="M21.1592 -176.123C21.1592 -174.899 20.1724 -173.907 18.9551 -173.907H14.1061V-180.998H18.9551C20.1724 -180.998 21.1592 -180.006 21.1592 -178.782V-176.123Z" fill="#9863E7"/>
<path d="M82.4327 -180.998C83.6499 -180.998 84.6367 -180.006 84.6367 -178.782V-176.123C84.6367 -174.899 83.6499 -173.907 82.4327 -173.907H79.7878C78.5705 -173.907 77.5837 -174.899 77.5837 -176.123V-178.782C77.5837 -180.006 78.5705 -180.998 79.7878 -180.998H82.4327Z" fill="#9863E7"/>
<path d="M147.894 -173.907H143.045C141.828 -173.907 140.841 -174.899 140.841 -176.123V-178.782C140.841 -180.006 141.828 -180.998 143.045 -180.998H147.894V-173.907Z" fill="#9863E7"/>
<path d="M162 -176.123C162 -174.899 161.013 -173.907 159.796 -173.907H154.947V-180.998H159.796C161.013 -180.998 162 -180.006 162 -178.782V-176.123Z" fill="#9863E7"/>
<path d="M14.1061 -180.998H7.05306V-185.873C7.05306 -187.097 8.03986 -188.089 9.25714 -188.089H11.902C13.1193 -188.089 14.1061 -187.097 14.1061 -185.873V-180.998Z" fill="#9863E7"/>
<path fill-rule="evenodd" clip-rule="evenodd" d="M49.3714 -254.125C49.3714 -252.901 50.3582 -251.909 51.5755 -251.909H54.2204C55.4377 -251.909 56.4245 -250.917 56.4245 -249.693V-247.034C56.4245 -245.81 57.4113 -244.818 58.6286 -244.818H61.2735C62.4907 -244.818 63.4776 -243.826 63.4776 -242.602V-239.943C63.4776 -238.719 64.4643 -237.727 65.6816 -237.727H68.3265C69.5438 -237.727 70.5306 -236.735 70.5306 -235.511V-232.852C70.5306 -231.628 71.5174 -230.636 72.7347 -230.636H75.3796C76.5969 -230.636 77.5837 -229.643 77.5837 -228.42V-190.305C77.5837 -189.081 76.5969 -188.089 75.3796 -188.089H70.5306V-192.964C70.5306 -194.188 69.5438 -195.18 68.3265 -195.18H63.4776V-190.305C63.4776 -189.081 64.4643 -188.089 65.6816 -188.089H70.5306V-183.214C70.5306 -181.99 69.5438 -180.998 68.3265 -180.998H30.4163C29.199 -180.998 28.2122 -181.99 28.2122 -183.214V-185.873C28.2122 -187.097 27.2254 -188.089 26.0082 -188.089H23.3633C22.146 -188.089 21.1592 -189.081 21.1592 -190.305V-192.964C21.1592 -194.188 20.1724 -195.18 18.9551 -195.18H16.3102C15.0929 -195.18 14.1061 -196.172 14.1061 -197.396V-200.055C14.1061 -201.279 13.1193 -202.271 11.902 -202.271H9.25714C8.03986 -202.271 7.05306 -203.263 7.05306 -204.487V-207.146C7.05306 -208.37 6.06626 -209.362 4.84898 -209.362H2.20408C0.986801 -209.362 0 -210.354 0 -211.578V-214.237C0 -215.461 0.986801 -216.453 2.20408 -216.453H42.3184V-211.578C42.3184 -210.354 43.3052 -209.362 44.5224 -209.362H49.3714V-214.237C49.3714 -215.461 48.3846 -216.453 47.1673 -216.453H42.3184V-256.784C42.3184 -258.008 43.3052 -259 44.5224 -259H47.1673C48.3846 -259 49.3714 -258.008 49.3714 -256.784V-254.125ZM56.4245 -197.396C56.4245 -196.172 57.4113 -195.18 58.6286 -195.18H63.4776V-200.055C63.4776 -201.279 62.4907 -202.271 61.2735 -202.271H56.4245V-197.396ZM49.3714 -204.487C49.3714 -203.263 50.3582 -202.271 51.5755 -202.271H56.4245V-207.146C56.4245 -208.37 55.4377 -209.362 54.2204 -209.362H49.3714V-204.487Z" fill="#9863E7"/>
<path fill-rule="evenodd" clip-rule="evenodd" d="M119.902 -218.669C119.902 -217.446 120.889 -216.453 122.106 -216.453H159.796C161.013 -216.453 162 -215.461 162 -214.237V-211.578C162 -210.354 161.013 -209.362 159.796 -209.362H157.151C155.934 -209.362 154.947 -208.37 154.947 -207.146V-204.487C154.947 -203.263 153.96 -202.271 152.743 -202.271H150.098C148.881 -202.271 147.894 -201.279 147.894 -200.055V-197.396C147.894 -196.172 146.907 -195.18 145.69 -195.18H143.045C141.828 -195.18 140.841 -194.188 140.841 -192.964V-190.305C140.841 -189.081 139.854 -188.089 138.637 -188.089H135.992C134.775 -188.089 133.788 -187.097 133.788 -185.873V-183.214C133.788 -181.99 132.801 -180.998 131.584 -180.998H93.6735C92.4562 -180.998 91.4694 -181.99 91.4694 -183.214V-185.873C91.4694 -187.097 90.4826 -188.089 89.2653 -188.089H86.8408C85.6235 -188.089 84.6367 -189.081 84.6367 -190.305V-228.42C84.6367 -229.643 85.6235 -230.636 86.8408 -230.636H89.4857C90.703 -230.636 91.6898 -231.628 91.6898 -232.852V-235.511C91.6898 -236.735 92.6766 -237.727 93.8939 -237.727H96.5388C97.7561 -237.727 98.7429 -238.719 98.7429 -239.943V-242.602C98.7429 -243.826 99.7297 -244.818 100.947 -244.818H103.592C104.809 -244.818 105.796 -245.81 105.796 -247.034V-249.693C105.796 -250.917 106.783 -251.909 108 -251.909H110.645C111.862 -251.909 112.849 -252.901 112.849 -254.125V-256.784C112.849 -258.008 113.836 -259 115.053 -259H117.698C118.915 -259 119.902 -258.008 119.902 -256.784V-218.669ZM91.6898 -190.305C91.6898 -189.081 92.6766 -188.089 93.8939 -188.089H96.3184C97.5356 -188.089 98.5225 -189.081 98.5225 -190.305V-192.964C98.5225 -194.188 97.5356 -195.18 96.3184 -195.18H93.8939C92.6766 -195.18 91.6898 -194.188 91.6898 -192.964V-190.305ZM98.7429 -197.396C98.7429 -196.172 99.7297 -195.18 100.947 -195.18H103.371C104.589 -195.18 105.576 -196.172 105.576 -197.396V-200.055C105.576 -201.279 104.589 -202.271 103.371 -202.271H100.947C99.7297 -202.271 98.7429 -201.279 98.7429 -200.055V-197.396ZM105.796 -204.487C105.796 -203.263 106.783 -202.271 108 -202.271H110.424C111.642 -202.271 112.629 -203.263 112.629 -204.487V-207.146C112.629 -208.37 111.642 -209.362 110.424 -209.362H108C106.783 -209.362 105.796 -208.37 105.796 -207.146V-204.487ZM112.849 -211.578C112.849 -210.354 113.836 -209.362 115.053 -209.362H117.478C118.695 -209.362 119.682 -210.354 119.682 -211.578V-214.237C119.682 -215.461 118.695 -216.453 117.478 -216.453H115.053C113.836 -216.453 112.849 -215.461 112.849 -214.237V-211.578Z" fill="#9863E7"/>
<path d="M154.947 -180.998H147.894V-185.873C147.894 -187.097 148.881 -188.089 150.098 -188.089H152.743C153.96 -188.089 154.947 -187.097 154.947 -185.873V-180.998Z" fill="#9863E7"/>
<path d="M21.1592 -224.652C21.1592 -224.041 20.6658 -223.544 20.0571 -223.544H15.2082C14.5995 -223.544 14.1061 -224.041 14.1061 -224.652V-230.636H21.1592V-224.652Z" fill="#9863E7"/>
<path d="M147.894 -225.76C147.894 -224.537 146.907 -223.544 145.69 -223.544H143.045C141.828 -223.544 140.841 -224.537 140.841 -225.76V-230.636H147.894V-225.76Z" fill="#9863E7"/>
<path d="M13.0041 -237.727C13.6127 -237.727 14.1061 -237.231 14.1061 -236.619V-230.636H8.1551C7.54646 -230.636 7.05306 -231.132 7.05306 -231.744V-237.727H13.0041Z" fill="#9863E7"/>
<path d="M28.2122 -231.744C28.2122 -231.132 27.7188 -230.636 27.1102 -230.636H21.1592V-236.619C21.1592 -237.231 21.6526 -237.727 22.2612 -237.727H28.2122V-231.744Z" fill="#9863E7"/>
<path d="M140.841 -230.636H135.992C134.775 -230.636 133.788 -231.628 133.788 -232.852V-237.727H138.637C139.854 -237.727 140.841 -236.735 140.841 -235.511V-230.636Z" fill="#9863E7"/>
<path d="M154.947 -232.852C154.947 -231.628 153.96 -230.636 152.743 -230.636H147.894V-235.511C147.894 -236.735 148.881 -237.727 150.098 -237.727H154.947V-232.852Z" fill="#9863E7"/>
<path d="M84.6367 -239.721C84.6367 -238.497 83.6499 -237.505 82.4327 -237.505H79.7878C78.5705 -237.505 77.5837 -238.497 77.5837 -239.721V-244.596H84.6367V-239.721Z" fill="#9863E7"/>
<path d="M7.05306 -237.727H1.10204C0.493401 -237.727 0 -238.223 0 -238.835V-243.71C0 -244.322 0.493401 -244.818 1.10204 -244.818H7.05306V-237.727Z" fill="#9863E7"/>
<path d="M34.1633 -244.818C34.7719 -244.818 35.2653 -244.322 35.2653 -243.71V-238.835C35.2653 -238.223 34.7719 -237.727 34.1633 -237.727H28.2122V-244.818H34.1633Z" fill="#9863E7"/>
<path d="M133.788 -237.727H128.939C127.721 -237.727 126.735 -238.719 126.735 -239.943V-242.602C126.735 -243.826 127.721 -244.818 128.939 -244.818H133.788V-237.727Z" fill="#9863E7"/>
<path d="M162 -239.943C162 -238.719 161.013 -237.727 159.796 -237.727H154.947V-244.818H159.796C161.013 -244.818 162 -243.826 162 -242.602V-239.943Z" fill="#9863E7"/>
<path d="M77.5837 -244.596H72.7347C71.5174 -244.596 70.5306 -245.588 70.5306 -246.812V-249.471C70.5306 -250.695 71.5174 -251.687 72.7347 -251.687H77.5837V-244.596Z" fill="#9863E7"/>
<path d="M91.6898 -246.812C91.6898 -245.588 90.703 -244.596 89.4857 -244.596H84.6367V-251.687H89.4857C90.703 -251.687 91.6898 -250.695 91.6898 -249.471V-246.812Z" fill="#9863E7"/>
<path d="M14.1061 -245.926C14.1061 -245.314 13.6127 -244.818 13.0041 -244.818H7.05306V-250.801C7.05306 -251.413 7.54646 -251.909 8.1551 -251.909H14.1061V-245.926Z" fill="#9863E7"/>
<path d="M27.1102 -251.909C27.7188 -251.909 28.2122 -251.413 28.2122 -250.801V-244.818H22.2612C21.6526 -244.818 21.1592 -245.314 21.1592 -245.926V-251.909H27.1102Z" fill="#9863E7"/>
<path d="M140.841 -247.034C140.841 -245.81 139.854 -244.818 138.637 -244.818H133.788V-249.693C133.788 -250.917 134.775 -251.909 135.992 -251.909H140.841V-247.034Z" fill="#9863E7"/>
<path d="M154.947 -244.818H150.098C148.881 -244.818 147.894 -245.81 147.894 -247.034V-251.909H152.743C153.96 -251.909 154.947 -250.917 154.947 -249.693V-244.818Z" fill="#9863E7"/>
<path d="M84.6367 -251.687H77.5837V-256.562C77.5837 -257.786 78.5705 -258.778 79.7878 -258.778H82.4327C83.6499 -258.778 84.6367 -257.786 84.6367 -256.562V-251.687Z" fill="#9863E7"/>
<path d="M20.0571 -259C20.6658 -259 21.1592 -258.504 21.1592 -257.892V-251.909H14.1061V-257.892C14.1061 -258.504 14.5995 -259 15.2082 -259H20.0571Z" fill="#9863E7"/>
<path d="M147.894 -251.909H140.841V-256.784C140.841 -258.008 141.828 -259 143.045 -259H145.69C146.907 -259 147.894 -258.008 147.894 -256.784V-251.909Z" fill="#9863E7"/>
<path d="M159.756 160.39H145.845C144.605 160.39 143.601 161.397 143.601 162.641V176.148C143.601 177.392 142.597 178.399 141.357 178.399H127.895C126.655 178.399 125.651 179.407 125.651 180.651V187.404C125.651 192.379 121.635 196.409 116.676 196.409H110.393C109.154 196.409 108.15 195.401 108.15 194.158V144.632C108.15 143.388 107.145 142.381 105.906 142.381H98.9501C94.1148 142.381 90.1994 138.452 90.1994 133.601V126.623C90.1994 125.379 89.1954 124.371 87.9557 124.371H74.0443C72.8046 124.371 71.8006 125.379 71.8006 126.623V133.601C71.8006 138.452 67.8852 142.381 63.0499 142.381H56.0942C54.8545 142.381 53.8504 143.388 53.8504 144.632V194.158C53.8504 195.401 52.8463 196.409 51.6066 196.409H45.3241C40.3654 196.409 36.349 192.379 36.349 187.404V180.651C36.349 179.407 35.3449 178.399 34.1053 178.399H20.6427C19.403 178.399 18.3989 177.392 18.3989 176.148V162.641C18.3989 161.397 17.3948 160.39 16.1551 160.39H2.24377C1.00409 160.39 0 161.397 0 162.641V302.664C0 303.907 1.00409 304.915 2.24377 304.915H15.7064C16.9461 304.915 17.9501 305.922 17.9501 307.166V320.673C17.9501 321.917 18.9542 322.924 20.1939 322.924H51.6066C52.8463 322.924 53.8504 323.932 53.8504 325.175V338.682C53.8504 339.926 54.8545 340.933 56.0942 340.933H69.5568C70.7965 340.933 71.8006 341.941 71.8006 343.185V356.692C71.8006 357.935 72.8046 358.943 74.0443 358.943H87.9557C89.1954 358.943 90.1994 357.935 90.1994 356.692V343.185C90.1994 341.941 91.2035 340.933 92.4432 340.933H105.906C107.145 340.933 108.15 339.926 108.15 338.682V325.175C108.15 323.932 109.154 322.924 110.393 322.924H141.806C143.046 322.924 144.05 321.917 144.05 320.673V307.166C144.05 305.922 145.054 304.915 146.294 304.915H159.756C160.996 304.915 162 303.907 162 302.664V162.641C162 161.397 160.996 160.39 159.756 160.39ZM56.5429 196.859H63.0499C67.8852 196.859 71.8006 200.787 71.8006 205.638V263.944C71.8006 266.431 69.7924 268.446 67.313 268.446H56.5429C55.3032 268.446 54.2992 267.439 54.2992 266.195V252.688C54.2992 251.444 53.2951 250.437 52.0554 250.437H45.3241C40.3654 250.437 36.349 246.407 36.349 241.432V235.129C36.349 233.885 37.3531 232.878 38.5928 232.878H52.0554C53.2951 232.878 54.2992 231.87 54.2992 230.626V199.11C54.2992 197.866 55.3032 196.859 56.5429 196.859ZM105.457 304.465H92.4432C91.2035 304.465 90.1994 303.457 90.1994 302.213V291.408C90.1994 288.92 92.2076 286.906 94.687 286.906H105.457C106.697 286.906 107.701 287.913 107.701 289.157V302.213C107.701 303.457 106.697 304.465 105.457 304.465ZM56.5429 286.906H67.313C69.7924 286.906 71.8006 288.92 71.8006 291.408V302.213C71.8006 303.457 70.7965 304.465 69.5568 304.465H56.5429C55.3032 304.465 54.2992 303.457 54.2992 302.213V289.157C54.2992 287.913 55.3032 286.906 56.5429 286.906ZM126.1 230.176V205.864C126.1 200.889 130.116 196.859 135.075 196.859H141.357C142.597 196.859 143.601 197.866 143.601 199.11V230.176C143.601 231.42 142.597 232.427 141.357 232.427H128.343C127.104 232.427 126.1 231.42 126.1 230.176ZM125.651 235.129V241.432C125.651 246.407 121.635 250.437 116.676 250.437H109.945C108.705 250.437 107.701 251.444 107.701 252.688V266.195C107.701 267.439 106.697 268.446 105.457 268.446H94.687C92.2076 268.446 90.1994 266.431 90.1994 263.944V205.638C90.1994 200.787 94.1148 196.859 98.9501 196.859H105.457C106.697 196.859 107.701 197.866 107.701 199.11V230.626C107.701 231.87 108.705 232.878 109.945 232.878H123.407C124.647 232.878 125.651 233.885 125.651 235.129ZM81 196.409C76.1647 196.409 72.2493 192.48 72.2493 187.629V151.611C72.2493 146.759 76.1647 142.831 81 142.831C85.8353 142.831 89.7507 146.759 89.7507 151.611V187.629C89.7507 192.48 85.8353 196.409 81 196.409ZM33.6565 232.427H20.6427C19.403 232.427 18.3989 231.42 18.3989 230.176V199.11C18.3989 197.866 19.403 196.859 20.6427 196.859H26.9252C31.8839 196.859 35.9003 200.889 35.9003 205.864V230.176C35.9003 231.42 34.8962 232.427 33.6565 232.427ZM20.6427 250.887H26.9252C31.8839 250.887 35.9003 254.917 35.9003 259.892V266.645C35.9003 267.889 36.9044 268.896 38.144 268.896H51.6066C52.8463 268.896 53.8504 269.904 53.8504 271.147V284.204C53.8504 285.448 52.8463 286.455 51.6066 286.455H38.144C36.9044 286.455 35.9003 287.463 35.9003 288.706V302.213C35.9003 303.457 34.8962 304.465 33.6565 304.465H20.6427C19.403 304.465 18.3989 303.457 18.3989 302.213V253.138C18.3989 251.894 19.403 250.887 20.6427 250.887ZM74.4931 322.924H87.5069C88.7466 322.924 89.7507 323.932 89.7507 325.175V338.232C89.7507 339.476 88.7466 340.483 87.5069 340.483H74.4931C73.2534 340.483 72.2493 339.476 72.2493 338.232V325.175C72.2493 323.932 73.2534 322.924 74.4931 322.924ZM108.15 284.204V271.147C108.15 269.904 109.154 268.896 110.393 268.896H123.856C125.096 268.896 126.1 267.889 126.1 266.645V259.892C126.1 254.917 130.116 250.887 135.075 250.887H141.357C142.597 250.887 143.601 251.894 143.601 253.138V302.213C143.601 303.457 142.597 304.465 141.357 304.465H128.343C127.104 304.465 126.1 303.457 126.1 302.213V288.706C126.1 287.463 125.096 286.455 123.856 286.455H110.393C109.154 286.455 108.15 285.448 108.15 284.204Z" fill="#9863E7"/>
<rect width="162" height="884" rx="41" fill="url(#paint0_linear_883_7)"/>
</g>
<defs>
<linearGradient id="paint0_linear_883_7" x1="81.1149" y1="-3.7255e-10" x2="80.9422" y2="860" gradientUnits="userSpaceOnUse">
<stop stop-color="#09021C"/>
<stop offset="0.110577" stop-color="#09021C" stop-opacity="0.01"/>
<stop offset="0.836538" stop-color="#09021C" stop-opacity="0.01"/>
<stop offset="1" stop-color="#09021C"/>
</linearGradient>
<clipPath id="clip0_883_7">
<rect width="162" height="884" rx="41" fill="white"/>
</clipPath>
</defs>
</svg>
