<svg width="25" height="21" viewBox="0 0 25 21" fill="none" xmlns="http://www.w3.org/2000/svg">
<path d="M25 17.1875C25 18.9111 23.5986 20.3125 21.875 20.3125H3.125C1.40137 20.3125 0 18.9111 0 17.1875V3.125C0 1.40137 1.40137 0 3.125 0H9.89746C10.5713 0 11.2305 0.219727 11.7725 0.625L13.6475 2.03125C13.916 2.23633 14.248 2.34375 14.585 2.34375H21.875C23.5986 2.34375 25 3.74512 25 5.46875V17.1875ZM12.5 6.25C11.8506 6.25 11.3281 6.77246 11.3281 7.42188V9.76562H8.98438C8.33496 9.76562 7.8125 10.2881 7.8125 10.9375C7.8125 11.5869 8.33496 12.1094 8.98438 12.1094H11.3281V14.4531C11.3281 15.1025 11.8506 15.625 12.5 15.625C13.1494 15.625 13.6719 15.1025 13.6719 14.4531V12.1094H16.0156C16.665 12.1094 17.1875 11.5869 17.1875 10.9375C17.1875 10.2881 16.665 9.76562 16.0156 9.76562H13.6719V7.42188C13.6719 6.77246 13.1494 6.25 12.5 6.25Z" fill="white"/>
</svg>
