<svg width="42" height="42" viewBox="0 0 42 42" fill="none" xmlns="http://www.w3.org/2000/svg">
<path d="M3.01172 17.4125C3.01172 17.9755 3.12262 18.5331 3.33809 19.0533C3.55355 19.5734 3.86937 20.0461 4.2675 20.4442C4.66563 20.8424 5.13828 21.1582 5.65846 21.3736C6.17865 21.5891 6.73618 21.7 7.29922 21.7C7.86226 21.7 8.41979 21.5891 8.93997 21.3736C9.46016 21.1582 9.93281 20.8424 10.3309 20.4442C10.7291 20.0461 11.0449 19.5734 11.2604 19.0533C11.4758 18.5331 11.5867 17.9755 11.5867 17.4125C11.5867 16.8495 11.4758 16.2919 11.2604 15.7717C11.0449 15.2516 10.7291 14.7789 10.3309 14.3808C9.93281 13.9826 9.46016 13.6668 8.93997 13.4514C8.41979 13.2359 7.86226 13.125 7.29922 13.125C6.73618 13.125 6.17865 13.2359 5.65846 13.4514C5.13828 13.6668 4.66563 13.9826 4.2675 14.3808C3.86937 14.7789 3.55355 15.2516 3.33809 15.7717C3.12262 16.2919 3.01172 16.8495 3.01172 17.4125ZM30.4167 17.4125C30.4167 18.5496 30.8684 19.6402 31.6725 20.4442C32.4766 21.2483 33.5671 21.7 34.7042 21.7C35.8413 21.7 36.9319 21.2483 37.7359 20.4442C38.54 19.6402 38.9917 18.5496 38.9917 17.4125C38.9917 16.8495 38.8808 16.2919 38.6654 15.7717C38.4499 15.2516 38.1341 14.7789 37.7359 14.3808C37.3378 13.9826 36.8652 13.6668 36.345 13.4514C35.8248 13.2359 35.2673 13.125 34.7042 13.125C34.1412 13.125 33.5836 13.2359 33.0635 13.4514C32.5433 13.6668 32.0706 13.9826 31.6725 14.3808C31.2744 14.7789 30.9586 15.2516 30.7431 15.7717C30.5276 16.2919 30.4167 16.8495 30.4167 17.4125ZM20.1267 7.875C19.6626 7.875 19.2175 7.69063 18.8893 7.36244C18.5611 7.03425 18.3767 6.58913 18.3767 6.125V2.625C18.3767 2.16087 18.5611 1.71575 18.8893 1.38756C19.2175 1.05937 19.6626 0.875 20.1267 0.875C20.5908 0.875 21.036 1.05937 21.3642 1.38756C21.6923 1.71575 21.8767 2.16087 21.8767 2.625V6.125C21.8767 6.58913 21.6923 7.03425 21.3642 7.36244C21.036 7.69063 20.5908 7.875 20.1267 7.875ZM30.3992 5.04C30.0713 4.71406 29.6278 4.53111 29.1655 4.53111C28.7031 4.53111 28.2596 4.71406 27.9317 5.04L25.4467 7.5075C25.2827 7.67019 25.1525 7.86374 25.0637 8.07699C24.9748 8.29024 24.9291 8.51898 24.9291 8.75C24.9291 8.98102 24.9748 9.20976 25.0637 9.42301C25.1525 9.63626 25.2827 9.82981 25.4467 9.9925C25.6094 10.1565 25.803 10.2867 26.0162 10.3756C26.2295 10.4644 26.4582 10.5101 26.6892 10.5101C26.9202 10.5101 27.149 10.4644 27.3622 10.3756C27.5755 10.2867 27.769 10.1565 27.9317 9.9925L30.3992 7.5075C30.7252 7.17962 30.9081 6.73607 30.9081 6.27375C30.9081 5.81143 30.7252 5.36788 30.3992 5.04ZM13.5642 10.5C13.3222 10.5108 13.0806 10.4713 12.8547 10.384C12.6288 10.2966 12.4235 10.1633 12.2517 9.9925L9.85422 7.5075C9.61861 7.17397 9.50705 6.76855 9.53887 6.36144C9.57068 5.95433 9.74387 5.57116 10.0284 5.27828C10.313 4.98541 10.691 4.80127 11.0971 4.75775C11.5031 4.71424 11.9116 4.81408 12.2517 5.04L14.8067 7.5075C14.9707 7.67019 15.1009 7.86374 15.1898 8.07699C15.2786 8.29024 15.3244 8.51898 15.3244 8.75C15.3244 8.98102 15.2786 9.20976 15.1898 9.42301C15.1009 9.63626 14.9707 9.82981 14.8067 9.9925C14.6432 10.1547 14.4493 10.283 14.2361 10.3701C14.0228 10.4572 13.7945 10.5013 13.5642 10.5Z" fill="#BB8EFF"/>
<path d="M30.6997 41.125C29.5951 41.125 28.6997 40.2295 28.6997 39.125V29.3475C26.5624 29.1354 24.5324 28.3084 22.8553 26.9667C21.1782 25.625 19.9258 23.8261 19.2497 21.7875L17.7797 17.36C17.6574 17.0097 17.6128 16.637 17.6491 16.2677C17.6854 15.8985 17.8017 15.5416 17.9899 15.2218C18.1781 14.902 18.4337 14.6271 18.7389 14.4161C19.0441 14.2051 19.3916 14.0631 19.7572 14C20.3778 13.9193 21.0068 14.0614 21.5324 14.4011C22.058 14.7408 22.4459 15.256 22.6272 15.855L24.0622 20.1425C24.4541 21.3409 25.2156 22.3844 26.2374 23.1233C27.2592 23.8621 28.4888 24.2583 29.7497 24.255H37.2747C38.2029 24.255 39.0932 24.6237 39.7496 25.2801C40.4059 25.9365 40.7747 26.8267 40.7747 27.755V39.125C40.7747 40.2295 39.8793 41.125 38.7747 41.125H30.6997ZM16.6947 22.61V22.3825C16.1255 22.9876 15.436 23.4668 14.6704 23.7893C13.9049 24.1118 13.0803 24.2705 12.2497 24.255H4.74219C3.81393 24.255 2.92369 24.6237 2.26731 25.2801C1.61094 25.9365 1.24219 26.8267 1.24219 27.755V39.125C1.24219 40.2295 2.13762 41.125 3.24219 41.125H11.2997C12.4043 41.125 13.2997 40.2295 13.2997 39.125V29.3475C15.425 29.1457 17.4476 28.3378 19.1272 27.02C18.0498 25.7136 17.225 24.2181 16.6947 22.61Z" fill="#BB8EFF"/>
</svg>
