<svg width="25" height="27" viewBox="0 0 25 27" fill="none" xmlns="http://www.w3.org/2000/svg">
<path d="M14.2857 1.75C14.2857 0.782031 13.4877 0 12.5 0C11.5123 0 10.7143 0.782031 10.7143 1.75V13.2727L8.40402 11.0086C7.70647 10.325 6.57366 10.325 5.87612 11.0086C5.17857 11.6922 5.17857 12.8023 5.87612 13.4859L11.2333 18.7359C11.9308 19.4195 13.0636 19.4195 13.7612 18.7359L19.1183 13.4859C19.8158 12.8023 19.8158 11.6922 19.1183 11.0086C18.4208 10.325 17.2879 10.325 16.5904 11.0086L14.2857 13.2727V1.75ZM3.57143 17.5C1.60156 17.5 0 19.0695 0 21V22.75C0 24.6805 1.60156 26.25 3.57143 26.25H21.4286C23.3984 26.25 25 24.6805 25 22.75V21C25 19.0695 23.3984 17.5 21.4286 17.5H18.8114L15.6529 20.5953C13.9118 22.3016 11.0826 22.3016 9.34152 20.5953L6.18862 17.5H3.57143ZM20.5357 20.5625C20.7116 20.5625 20.8857 20.5964 21.0482 20.6624C21.2107 20.7284 21.3584 20.825 21.4827 20.9469C21.6071 21.0688 21.7057 21.2135 21.7731 21.3727C21.8404 21.532 21.875 21.7026 21.875 21.875C21.875 22.0474 21.8404 22.218 21.7731 22.3773C21.7057 22.5365 21.6071 22.6812 21.4827 22.8031C21.3584 22.925 21.2107 23.0216 21.0482 23.0876C20.8857 23.1536 20.7116 23.1875 20.5357 23.1875C20.3598 23.1875 20.1857 23.1536 20.0232 23.0876C19.8607 23.0216 19.7131 22.925 19.5887 22.8031C19.4643 22.6812 19.3657 22.5365 19.2984 22.3773C19.2311 22.218 19.1964 22.0474 19.1964 21.875C19.1964 21.7026 19.2311 21.532 19.2984 21.3727C19.3657 21.2135 19.4643 21.0688 19.5887 20.9469C19.7131 20.825 19.8607 20.7284 20.0232 20.6624C20.1857 20.5964 20.3598 20.5625 20.5357 20.5625Z" fill="white"/>
</svg>
