<svg width="25" height="25" viewBox="0 0 25 25" fill="none" xmlns="http://www.w3.org/2000/svg">
<path d="M0 5.20833C0 2.33185 2.33185 0 5.20833 0H19.7917C22.6681 0 25 2.33185 25 5.20833V19.7917C25 22.6681 22.6681 25 19.7917 25H5.20833C2.33185 25 0 22.6681 0 19.7917V5.20833Z" fill="white"/>
<path d="M13.5579 4.03646C14.4707 6.19075 10.2852 7.51042 9.89583 9.30599C9.53971 10.9538 12.3757 12.8867 12.3783 12.8867C11.9453 12.2051 11.6302 11.6302 11.1979 10.5671C10.4655 8.77148 15.6608 7.15169 13.5579 4.03646ZM16.3249 7.02734C16.3249 7.02734 12.6654 7.25846 12.4798 9.65169C12.3952 10.7174 13.446 11.2767 13.4766 12.0527C13.5026 12.6855 12.8457 13.2116 12.8457 13.2116C12.8457 13.2116 14.0234 12.9987 14.3919 12.0319C14.7988 10.959 13.599 10.2266 13.7207 9.36654C13.8379 8.54557 16.3249 7.02734 16.3249 7.02734ZM17.2201 12.5404C16.8359 12.5228 16.4036 12.6654 16.0195 12.9473C16.7773 12.7799 17.4238 13.2552 17.4238 13.8021C17.4238 15.028 15.6738 16.1823 15.6738 16.1823C15.6738 16.1823 18.3796 15.8796 18.3796 13.8633C18.3796 13.0312 17.8587 12.571 17.2201 12.5404ZM10.0384 12.5612C9.0944 12.5938 7.21029 12.7493 7.21029 13.4766C7.21029 14.4889 11.5996 14.5677 14.7383 13.9447C14.7383 13.9447 15.5924 13.3496 15.8164 13.1309C13.7591 13.5579 9.06185 13.6243 9.06185 13.2526C9.06185 12.9121 10.5671 12.5612 10.5671 12.5612C10.5671 12.5612 10.3535 12.5508 10.0384 12.5612ZM9.75325 14.4329C9.23698 14.4329 8.47135 14.8346 8.47135 15.2259C8.47135 16.0143 12.3581 16.6198 15.2266 15.4701L14.2292 14.86C12.2839 15.4961 8.6901 15.2845 9.75325 14.4329ZM10.2415 16.2025C9.53711 16.2025 9.08203 16.6478 9.08203 16.9759C9.08203 17.985 13.291 18.0846 14.9616 17.0573L13.9036 16.3652C12.6576 16.9023 9.52213 16.9811 10.2415 16.2025ZM7.88151 17.1185C6.73242 17.0957 5.98958 17.6165 5.98958 18.0534C5.98958 20.3802 17.7695 20.2689 17.7695 17.8906C17.7695 17.4967 17.304 17.3086 17.1387 17.2194C18.1003 19.4928 7.51562 19.3151 7.51562 17.972C7.51562 17.6673 8.29883 17.362 9.02083 17.5046L8.41081 17.1582C8.23549 17.1328 8.05865 17.1199 7.88151 17.1185ZM19.0104 18.6849C17.2201 20.4167 12.6888 21.0371 8.12565 19.9668C12.6882 21.8743 18.9876 20.8132 19.0104 18.6849Z" fill="#1C152E"/>
</svg>
