<svg width="35" height="35" viewBox="0 0 35 35" fill="none" xmlns="http://www.w3.org/2000/svg">
<path d="M26.956 24.4518C24.9627 24.9305 22.8818 24.9073 20.8997 24.3843C18.9176 23.8614 17.0961 22.8551 15.5983 21.4554C14.1005 20.0558 12.9733 18.3065 12.3174 16.3643C11.6616 14.4221 11.4977 12.3475 11.8404 10.3264C11.7891 10.3776 11.734 10.4249 11.6756 10.4679C11.2673 10.7785 10.7569 10.8937 9.73602 11.1241L8.80998 11.3341C5.22248 12.1464 3.42873 12.5518 3.00144 13.9241C2.5756 15.295 3.79769 16.7256 6.24331 19.5854L6.87623 20.3247C7.57039 21.137 7.91894 21.5439 8.07498 22.0456C8.23102 22.5487 8.17852 23.0912 8.07352 24.1748L7.97727 25.162C7.60831 28.9785 7.4231 30.886 8.54019 31.7333C9.65727 32.5806 11.3373 31.8091 14.6944 30.2618L15.565 29.8622C16.5187 29.4218 16.9956 29.2031 17.5016 29.2031C18.0077 29.2031 18.4846 29.4218 19.4398 29.8622L20.3075 30.2618C23.666 31.8077 25.346 32.5806 26.4616 31.7348C27.5802 30.886 27.395 28.9785 27.026 25.162L26.956 24.4518Z" fill="#BB8EFF"/>
<path opacity="0.5" d="M13.3479 7.88663L12.8696 8.74413C12.3446 9.68621 12.0821 10.1573 11.6738 10.4679C11.7321 10.4241 11.787 10.377 11.8386 10.3264C11.4958 12.3477 11.6597 14.4224 12.3156 16.3648C12.9715 18.3071 14.0989 20.0565 15.5968 21.4562C17.0948 22.8559 18.9165 23.8622 20.8988 24.385C22.8812 24.9078 24.9622 24.9308 26.9556 24.4518L26.9265 24.1748C26.8229 23.0912 26.7704 22.5487 26.9265 22.0456C27.0825 21.5439 27.4296 21.137 28.1252 20.3248L28.7581 19.5854C31.2038 16.727 32.4258 15.2964 31.9986 13.9241C31.5727 12.5518 29.779 12.145 26.1915 11.3341L25.264 11.1241C24.2446 10.8937 23.7342 10.7785 23.3244 10.4679C22.9161 10.1573 22.6536 9.68621 22.1286 8.74413L21.6517 7.88663C19.804 4.57329 18.8808 2.91663 17.4998 2.91663C16.1188 2.91663 15.1956 4.57329 13.3479 7.88663Z" fill="#BB8EFF"/>
</svg>
