<svg width="25" height="22" viewBox="0 0 25 22" fill="none" xmlns="http://www.w3.org/2000/svg">
<path d="M3.125 0C1.40137 0 0 1.40137 0 3.125V6.25C0 7.97363 1.40137 9.375 3.125 9.375H21.875C23.5986 9.375 25 7.97363 25 6.25V3.125C25 1.40137 23.5986 0 21.875 0H3.125ZM16.7969 3.51562C17.1077 3.51562 17.4057 3.63909 17.6255 3.85886C17.8453 4.07863 17.9688 4.3767 17.9688 4.6875C17.9688 4.9983 17.8453 5.29637 17.6255 5.51614C17.4057 5.73591 17.1077 5.85938 16.7969 5.85938C16.4861 5.85938 16.188 5.73591 15.9682 5.51614C15.7485 5.29637 15.625 4.9983 15.625 4.6875C15.625 4.3767 15.7485 4.07863 15.9682 3.85886C16.188 3.63909 16.4861 3.51562 16.7969 3.51562ZM19.1406 4.6875C19.1406 4.3767 19.2641 4.07863 19.4839 3.85886C19.7036 3.63909 20.0017 3.51562 20.3125 3.51562C20.6233 3.51562 20.9214 3.63909 21.1411 3.85886C21.3609 4.07863 21.4844 4.3767 21.4844 4.6875C21.4844 4.9983 21.3609 5.29637 21.1411 5.51614C20.9214 5.73591 20.6233 5.85938 20.3125 5.85938C20.0017 5.85938 19.7036 5.73591 19.4839 5.51614C19.2641 5.29637 19.1406 4.9983 19.1406 4.6875ZM3.125 12.5C1.40137 12.5 0 13.9014 0 15.625V18.75C0 20.4736 1.40137 21.875 3.125 21.875H21.875C23.5986 21.875 25 20.4736 25 18.75V15.625C25 13.9014 23.5986 12.5 21.875 12.5H3.125ZM16.7969 16.0156C17.1077 16.0156 17.4057 16.1391 17.6255 16.3589C17.8453 16.5786 17.9688 16.8767 17.9688 17.1875C17.9688 17.4983 17.8453 17.7964 17.6255 18.0161C17.4057 18.2359 17.1077 18.3594 16.7969 18.3594C16.4861 18.3594 16.188 18.2359 15.9682 18.0161C15.7485 17.7964 15.625 17.4983 15.625 17.1875C15.625 16.8767 15.7485 16.5786 15.9682 16.3589C16.188 16.1391 16.4861 16.0156 16.7969 16.0156ZM19.5312 17.1875C19.5312 16.8767 19.6547 16.5786 19.8745 16.3589C20.0943 16.1391 20.3923 16.0156 20.7031 16.0156C21.0139 16.0156 21.312 16.1391 21.5318 16.3589C21.7515 16.5786 21.875 16.8767 21.875 17.1875C21.875 17.4983 21.7515 17.7964 21.5318 18.0161C21.312 18.2359 21.0139 18.3594 20.7031 18.3594C20.3923 18.3594 20.0943 18.2359 19.8745 18.0161C19.6547 17.7964 19.5312 17.4983 19.5312 17.1875Z" fill="#1C152E"/>
</svg>
