<svg width="24" height="19" viewBox="0 0 24 19" fill="none" xmlns="http://www.w3.org/2000/svg">
<path d="M10.5 18.6667H1.16667C0.836115 18.6667 0.559226 18.5547 0.336004 18.3307C0.112782 18.1067 0.000781801 17.8298 4.02298e-06 17.5C-0.000773755 17.1702 0.111226 16.8933 0.336004 16.6693C0.560782 16.4453 0.837671 16.3333 1.16667 16.3333H10.5C10.8306 16.3333 11.1078 16.4453 11.3318 16.6693C11.5558 16.8933 11.6674 17.1702 11.6667 17.5C11.6659 17.8298 11.5539 18.1071 11.3307 18.3318C11.1074 18.5566 10.8306 18.6682 10.5 18.6667ZM3.5 15.1667C2.85834 15.1667 2.30923 14.9384 1.85267 14.4818C1.39612 14.0253 1.16745 13.4758 1.16667 12.8333V2.33333C1.16667 1.69167 1.39534 1.14256 1.85267 0.686C2.31 0.229444 2.85911 0.000777778 3.5 0H19.8333C20.475 0 21.0245 0.228666 21.4818 0.686C21.9392 1.14333 22.1674 1.69244 22.1667 2.33333H15.75C14.6222 2.33333 13.6597 2.73194 12.8625 3.52917C12.0653 4.32639 11.6667 5.28889 11.6667 6.41667V14C11.6667 14.3306 11.5547 14.6078 11.3307 14.8318C11.1067 15.0558 10.8298 15.1674 10.5 15.1667H3.5ZM15.75 18.6667C15.2639 18.6667 14.8509 18.4967 14.511 18.1568C14.1711 17.8169 14.0008 17.4036 14 16.9167V6.41667C14 5.93056 14.1703 5.51756 14.511 5.17767C14.8517 4.83778 15.2647 4.66744 15.75 4.66667H21.5833C22.0694 4.66667 22.4828 4.837 22.8235 5.17767C23.1642 5.51833 23.3341 5.93133 23.3333 6.41667V16.9167C23.3333 17.4028 23.1634 17.8162 22.8235 18.1568C22.4836 18.4975 22.0702 18.6674 21.5833 18.6667H15.75ZM18.6667 9.91667C18.9194 9.91667 19.1287 9.82917 19.2943 9.65417C19.46 9.47917 19.5424 9.275 19.5417 9.04167C19.5417 8.78889 19.4588 8.58006 19.2932 8.41517C19.1275 8.25028 18.9187 8.16745 18.6667 8.16667C18.4333 8.16667 18.2292 8.2495 18.0542 8.41517C17.8792 8.58083 17.7917 8.78967 17.7917 9.04167C17.7917 9.275 17.8792 9.47917 18.0542 9.65417C18.2292 9.82917 18.4333 9.91667 18.6667 9.91667Z" fill="#1C152E"/>
</svg>
