<svg width="25" height="22" viewBox="0 0 25 22" fill="none" xmlns="http://www.w3.org/2000/svg">
<path d="M2.77778 0C1.24566 0 0 1.2332 0 2.75V15.125C0 16.6418 1.24566 17.875 2.77778 17.875H10.4167L9.95226 19.25H6.94444C6.17622 19.25 5.55556 19.8645 5.55556 20.625C5.55556 21.3855 6.17622 22 6.94444 22H18.0556C18.8238 22 19.4444 21.3855 19.4444 20.625C19.4444 19.8645 18.8238 19.25 18.0556 19.25H15.0477L14.5833 17.875H22.2222C23.7543 17.875 25 16.6418 25 15.125V2.75C25 1.2332 23.7543 0 22.2222 0H2.77778ZM22.2222 2.75V12.375H2.77778V2.75H22.2222Z" fill="#1C152E"/>
</svg>
