<svg width="25" height="22" viewBox="0 0 25 22" fill="none" xmlns="http://www.w3.org/2000/svg">
<path d="M20.855 0.442578L11.2457 6.78906C9.98264 7.62266 9.17969 8.97617 9.04948 10.4543C11.7535 11.0043 13.8845 13.1141 14.4444 15.7953C15.9418 15.6664 17.3047 14.8715 18.1467 13.6211L24.553 4.10352C24.8438 3.66953 25 3.1625 25 2.63828C25 1.18164 23.8064 0 22.3351 0C21.8099 0 21.2934 0.154688 20.855 0.442578ZM12.5 17.1875C12.5 14.5277 10.3255 12.375 7.63889 12.375C4.95226 12.375 2.77778 14.5277 2.77778 17.1875C2.77778 17.3551 2.78646 17.5227 2.80382 17.6859C2.88194 18.4379 2.36111 19.25 1.59722 19.25H1.38889C0.62066 19.25 0 19.8645 0 20.625C0 21.3855 0.62066 22 1.38889 22H7.63889C10.3255 22 12.5 19.8473 12.5 17.1875Z" fill="white"/>
</svg>
