<svg width="40" height="40" viewBox="0 0 40 40" fill="none" xmlns="http://www.w3.org/2000/svg">
<path d="M33.2576 9.23823C29.8076 5.80892 25.16 3.85458 20.2961 3.7879C15.4322 3.72122 10.7327 5.54741 7.19011 8.88086C3.64749 12.2143 1.539 16.7941 1.30989 21.653C1.08078 26.512 2.74899 31.2698 5.96225 34.9218L5.97631 34.9375C6.00209 34.9648 6.02631 34.9929 6.05443 35.0195C6.11225 35.0851 6.17787 35.1593 6.25522 35.2367C6.55854 35.5591 6.92514 35.8154 7.33208 35.9896C7.73902 36.1638 8.17754 36.2521 8.62019 36.249C9.06283 36.2459 9.50008 36.1515 9.90455 35.9717C10.309 35.7918 10.672 35.5304 10.9708 35.2039C12.1206 33.9543 13.517 32.9569 15.072 32.2746C16.6269 31.5923 18.3064 31.2401 20.0044 31.2401C21.7024 31.2401 23.382 31.5923 24.9369 32.2746C26.4918 32.9569 27.8883 33.9543 29.038 35.2039C29.3391 35.5322 29.705 35.7944 30.1126 35.9739C30.5202 36.1534 30.9607 36.2464 31.4061 36.2468C31.8516 36.2473 32.2922 36.1552 32.7002 35.9765C33.1082 35.7978 33.4746 35.5363 33.7763 35.2085L34.0271 34.9351L34.0412 34.9195C37.2072 31.3444 38.8893 26.6956 38.7441 21.9224C38.599 17.1491 36.6374 12.6112 33.2599 9.2351L33.2576 9.23823ZM18.7497 9.99995C18.7497 9.66843 18.8814 9.35048 19.1159 9.11606C19.3503 8.88164 19.6682 8.74995 19.9997 8.74995C20.3313 8.74995 20.6492 8.88164 20.8836 9.11606C21.1181 9.35048 21.2497 9.66843 21.2497 9.99995V12.4999C21.2497 12.8315 21.1181 13.1494 20.8836 13.3838C20.6492 13.6182 20.3313 13.7499 19.9997 13.7499C19.6682 13.7499 19.3503 13.6182 19.1159 13.3838C18.8814 13.1494 18.7497 12.8315 18.7497 12.4999V9.99995ZM9.99975 23.7499H7.49975C7.16823 23.7499 6.85028 23.6183 6.61586 23.3838C6.38144 23.1494 6.24975 22.8315 6.24975 22.4999C6.24975 22.1684 6.38144 21.8505 6.61586 21.6161C6.85028 21.3816 7.16823 21.2499 7.49975 21.2499H9.99975C10.3313 21.2499 10.6492 21.3816 10.8836 21.6161C11.118 21.8505 11.2497 22.1684 11.2497 22.4999C11.2497 22.8315 11.118 23.1494 10.8836 23.3838C10.6492 23.6183 10.3313 23.7499 9.99975 23.7499ZM13.8122 16.3124C13.5778 16.5467 13.26 16.6783 12.9287 16.6783C12.5973 16.6783 12.2795 16.5467 12.0451 16.3124L10.2771 14.5453C10.0426 14.3108 9.91093 13.9928 9.91093 13.6613C9.91093 13.3297 10.0426 13.0117 10.2771 12.7773C10.5115 12.5428 10.8295 12.4111 11.1611 12.4111C11.4926 12.4111 11.8106 12.5428 12.0451 12.7773L13.8122 14.5453C14.0465 14.7797 14.1781 15.0975 14.1781 15.4289C14.1781 15.7602 14.0465 16.0781 13.8122 16.3124ZM25.4763 18.1171L21.7654 24.0156C21.6136 24.226 21.4289 24.4106 21.2185 24.5624C20.7105 24.9168 20.0833 25.0565 19.473 24.9513C18.8626 24.8461 18.3184 24.5044 17.9584 24.0005C17.5984 23.4965 17.4517 22.8708 17.5501 22.2594C17.6486 21.6479 17.9842 21.0999 18.4841 20.7343L24.3826 17.0234C24.5166 16.9299 24.6762 16.8798 24.8396 16.8798C25.003 16.8798 25.1625 16.9299 25.2966 17.0234C25.465 17.145 25.5784 17.3282 25.6121 17.5332C25.6458 17.7381 25.597 17.9481 25.4763 18.1171ZM27.9544 16.3124C27.7181 16.537 27.4034 16.6603 27.0775 16.6561C26.7515 16.6519 26.4401 16.5206 26.2096 16.2901C25.9791 16.0596 25.8477 15.7482 25.8436 15.4222C25.8394 15.0963 25.9627 14.7816 26.1872 14.5453L27.9544 12.7773C28.1889 12.5428 28.5069 12.4111 28.8384 12.4111C29.17 12.4111 29.488 12.5428 29.7224 12.7773C29.9569 13.0117 30.0886 13.3297 30.0886 13.6613C30.0886 13.9928 29.9569 14.3108 29.7224 14.5453L27.9544 16.3124ZM32.4997 23.7499H29.9997C29.6682 23.7499 29.3503 23.6183 29.1159 23.3838C28.8814 23.1494 28.7497 22.8315 28.7497 22.4999C28.7497 22.1684 28.8814 21.8505 29.1159 21.6161C29.3503 21.3816 29.6682 21.2499 29.9997 21.2499H32.4997C32.8313 21.2499 33.1492 21.3816 33.3836 21.6161C33.6181 21.8505 33.7497 22.1684 33.7497 22.4999C33.7497 22.8315 33.6181 23.1494 33.3836 23.3838C33.1492 23.6183 32.8313 23.7499 32.4997 23.7499Z" fill="#BB8EFF"/>
</svg>
