<svg width="31" height="31" viewBox="0 0 31 31" fill="none" xmlns="http://www.w3.org/2000/svg">
<g clip-path="url(#clip0_315_4433)">
<path d="M2.22266 12.8521C2.22266 13.2677 2.30451 13.6792 2.46355 14.0632C2.62258 14.4471 2.85568 14.796 3.14954 15.0898C3.4434 15.3837 3.79226 15.6168 4.17621 15.7758C4.56015 15.9349 4.97166 16.0167 5.38724 16.0167C5.80282 16.0167 6.21433 15.9349 6.59827 15.7758C6.98222 15.6168 7.33108 15.3837 7.62494 15.0898C7.9188 14.796 8.1519 14.4471 8.31093 14.0632C8.46997 13.6792 8.55182 13.2677 8.55182 12.8521C8.55182 12.4365 8.46997 12.025 8.31093 11.6411C8.1519 11.2571 7.9188 10.9083 7.62494 10.6144C7.33108 10.3206 6.98222 10.0875 6.59827 9.92843C6.21433 9.76939 5.80282 9.68754 5.38724 9.68754C4.97166 9.68754 4.56015 9.76939 4.17621 9.92843C3.79226 10.0875 3.4434 10.3206 3.14954 10.6144C2.85568 10.9083 2.62258 11.2571 2.46355 11.6411C2.30451 12.025 2.22266 12.4365 2.22266 12.8521ZM22.4502 12.8521C22.4502 13.6914 22.7836 14.4963 23.377 15.0898C23.9705 15.6833 24.7754 16.0167 25.6147 16.0167C26.454 16.0167 27.259 15.6833 27.8524 15.0898C28.4459 14.4963 28.7793 13.6914 28.7793 12.8521C28.7793 12.4365 28.6975 12.025 28.5384 11.6411C28.3794 11.2571 28.1463 10.9083 27.8524 10.6144C27.5586 10.3206 27.2097 10.0875 26.8258 9.92843C26.4418 9.76939 26.0303 9.68754 25.6147 9.68754C25.1992 9.68754 24.7877 9.76939 24.4037 9.92843C24.0198 10.0875 23.6709 10.3206 23.377 10.6144C23.0832 10.9083 22.8501 11.2571 22.691 11.6411C22.532 12.025 22.4502 12.4365 22.4502 12.8521ZM14.8552 5.81254C14.5126 5.81254 14.184 5.67645 13.9418 5.43422C13.6996 5.19199 13.5635 4.86345 13.5635 4.52087V1.93754C13.5635 1.59497 13.6996 1.26643 13.9418 1.02419C14.184 0.78196 14.5126 0.645874 14.8552 0.645874C15.1977 0.645874 15.5263 0.78196 15.7685 1.02419C16.0107 1.26643 16.1468 1.59497 16.1468 1.93754V4.52087C16.1468 4.86345 16.0107 5.19199 15.7685 5.43422C15.5263 5.67645 15.1977 5.81254 14.8552 5.81254ZM22.4372 3.72004C22.1952 3.47947 21.8679 3.34443 21.5266 3.34443C21.1854 3.34443 20.858 3.47947 20.616 3.72004L18.7818 5.54129C18.6608 5.66137 18.5647 5.80423 18.4991 5.96163C18.4335 6.11903 18.3998 6.28786 18.3998 6.45837C18.3998 6.62889 18.4335 6.79772 18.4991 6.95512C18.5647 7.11252 18.6608 7.25538 18.7818 7.37546C18.9019 7.49652 19.0448 7.59262 19.2022 7.65819C19.3596 7.72377 19.5284 7.75753 19.6989 7.75753C19.8694 7.75753 20.0382 7.72377 20.1957 7.65819C20.3531 7.59262 20.4959 7.49652 20.616 7.37546L22.4372 5.54129C22.6778 5.29928 22.8128 4.97191 22.8128 4.63067C22.8128 4.28943 22.6778 3.96205 22.4372 3.72004ZM10.0114 7.75004C9.8328 7.75805 9.65448 7.72889 9.48772 7.66441C9.32097 7.59993 9.16941 7.50154 9.04266 7.37546L7.27307 5.54129C7.09917 5.29512 7.01683 4.99588 7.04031 4.69539C7.0638 4.3949 7.19163 4.11208 7.40166 3.89592C7.6117 3.67975 7.89072 3.54383 8.19041 3.51171C8.49009 3.4796 8.79158 3.55329 9.04266 3.72004L10.9285 5.54129C11.0496 5.66137 11.1456 5.80423 11.2112 5.96163C11.2768 6.11903 11.3106 6.28786 11.3106 6.45837C11.3106 6.62889 11.2768 6.79772 11.2112 6.95512C11.1456 7.11252 11.0496 7.25538 10.9285 7.37546C10.8078 7.49517 10.6647 7.58988 10.5073 7.65416C10.3499 7.71844 10.1814 7.75102 10.0114 7.75004Z" fill="#BB8EFF"/>
<path d="M21.1842 30.3541V21.6612C19.6067 21.5047 18.1084 20.8943 16.8705 19.904C15.6326 18.9137 14.7083 17.5859 14.2092 16.0812L13.1242 12.8133C13.0339 12.5548 13.0011 12.2797 13.0279 12.0071C13.0547 11.7346 13.1405 11.4711 13.2794 11.2351C13.4183 10.9991 13.6069 10.7962 13.8322 10.6404C14.0575 10.4847 14.3139 10.3799 14.5838 10.3333C15.0418 10.2737 15.5062 10.3787 15.8941 10.6294C16.282 10.8801 16.5683 11.2604 16.7021 11.7025L17.7613 14.8671C18.0506 15.7516 18.6127 16.5218 19.3668 17.0672C20.121 17.6125 21.0285 17.9049 21.9592 17.9025H27.5134C28.1985 17.9025 28.8556 18.1746 29.3401 18.6591C29.8246 19.1436 30.0967 19.8007 30.0967 20.4858V30.3541H21.1842ZM12.3234 16.6883V16.5204C11.9033 16.967 11.3944 17.3207 10.8293 17.5588C10.2642 17.7968 9.6556 17.9139 9.04255 17.9025H3.5013C2.81616 17.9025 2.15908 18.1746 1.67461 18.6591C1.19014 19.1436 0.917969 19.8007 0.917969 20.4858V30.3541H9.81755V21.6612C11.3862 21.5123 12.8791 20.916 14.1188 19.9433C13.3236 18.9791 12.7148 17.8753 12.3234 16.6883Z" fill="#BB8EFF"/>
</g>
<defs>
<clipPath id="clip0_315_4433">
<rect width="31" height="31" fill="white"/>
</clipPath>
</defs>
</svg>
