<svg width="28" height="27" viewBox="0 0 28 27" fill="none" xmlns="http://www.w3.org/2000/svg">
<path fill-rule="evenodd" clip-rule="evenodd" d="M17.6805 0.437603C19.425 -0.712897 21.75 0.539603 21.75 2.6291V24.0581C21.75 26.1491 19.425 27.4001 17.6805 26.2496L8.6805 20.3171C8.61961 20.2765 8.54818 20.2546 8.475 20.2541H4.125C3.03098 20.2541 1.98177 19.8195 1.20818 19.0459C0.434597 18.2723 0 17.2231 0 16.1291V10.5581C0 9.46408 0.434597 8.41488 1.20818 7.64129C1.98177 6.8677 3.03098 6.4331 4.125 6.4331H8.475C8.54854 6.43334 8.62052 6.41196 8.682 6.3716L17.6805 0.437603ZM26.625 7.7186C26.9234 7.7186 27.2095 7.83713 27.4205 8.04811C27.6315 8.25909 27.75 8.54523 27.75 8.8436V17.8436C27.75 18.142 27.6315 18.4281 27.4205 18.6391C27.2095 18.8501 26.9234 18.9686 26.625 18.9686C26.3266 18.9686 26.0405 18.8501 25.8295 18.6391C25.6185 18.4281 25.5 18.142 25.5 17.8436V8.8436C25.5 8.54523 25.6185 8.25909 25.8295 8.04811C26.0405 7.83713 26.3266 7.7186 26.625 7.7186Z" fill="#BB8EFF"/>
</svg>
