<svg width="30" height="30" viewBox="0 0 30 30" fill="none" xmlns="http://www.w3.org/2000/svg">
<path fill-rule="evenodd" clip-rule="evenodd" d="M15.0013 8.4375C15.001 7.4125 15.2409 6.40169 15.7016 5.48607C16.1623 4.57045 16.8311 3.77548 17.6544 3.16486C18.4776 2.55424 19.4325 2.14496 20.4424 1.96981C21.4523 1.79466 22.4892 1.85851 23.47 2.15625C23.6251 2.20321 23.7653 2.28954 23.877 2.40681C23.9887 2.52409 24.0682 2.66831 24.1076 2.82542C24.147 2.98253 24.145 3.14717 24.1018 3.3033C24.0587 3.45942 23.9758 3.60169 23.8613 3.71625L19.7113 7.865C19.7919 8.48 20.0735 9.05111 20.5123 9.48946C20.9511 9.92782 21.5225 10.2088 22.1375 10.2888L26.285 6.14C26.3996 6.02549 26.5419 5.94262 26.698 5.89946C26.8541 5.85629 27.0188 5.85432 27.1759 5.89372C27.333 5.93313 27.4772 6.01256 27.5945 6.12429C27.7118 6.23602 27.7981 6.37623 27.845 6.53125C28.1566 7.55732 28.2119 8.64409 28.0062 9.6965C27.8005 10.7489 27.3401 11.7349 26.6652 12.5681C25.9903 13.4014 25.1215 14.0566 24.1347 14.4764C23.148 14.8962 22.0734 15.0678 21.005 14.9763C19.7325 14.8688 18.6675 15.1013 18.1188 15.7688L9.1813 26.625C8.81535 27.0672 8.36109 27.4281 7.8476 27.6846C7.33412 27.9411 6.77273 28.0876 6.19937 28.1146C5.62602 28.1416 5.05335 28.0486 4.51801 27.8415C3.98268 27.6345 3.49649 27.3179 3.09058 26.912C2.68466 26.5062 2.36797 26.0201 2.16077 25.4848C1.95358 24.9495 1.86044 24.3769 1.88734 23.8035C1.91424 23.2301 2.06057 22.6687 2.31697 22.1552C2.57336 21.6416 2.93418 21.1873 3.3763 20.8213L14.2313 11.8825C14.8975 11.3325 15.1313 10.2688 15.0238 8.99625C15.008 8.81043 15.0005 8.62399 15.0013 8.4375ZM5.14755 23.9063C5.14755 23.6576 5.24632 23.4192 5.42214 23.2433C5.59795 23.0675 5.83641 22.9688 6.08505 22.9688H6.09505C6.34369 22.9688 6.58215 23.0675 6.75796 23.2433C6.93378 23.4192 7.03255 23.6576 7.03255 23.9063V23.9163C7.03255 24.1649 6.93378 24.4034 6.75796 24.5792C6.58215 24.755 6.34369 24.8538 6.09505 24.8538H6.08505C5.83641 24.8538 5.59795 24.755 5.42214 24.5792C5.24632 24.4034 5.14755 24.1649 5.14755 23.9163V23.9063Z" fill="#BB8EFF"/>
<path d="M12.5947 10.8001L9.84341 8.05005V6.09255C9.8434 5.9307 9.80149 5.77161 9.72175 5.63076C9.64202 5.48991 9.52718 5.3721 9.38841 5.2888L4.70091 2.4763C4.52162 2.36883 4.31157 2.32436 4.10411 2.34995C3.89665 2.37554 3.7037 2.46973 3.55591 2.61755L2.61841 3.55505C2.47059 3.70284 2.3764 3.8958 2.3508 4.10325C2.32521 4.31071 2.36969 4.52077 2.47716 4.70005L5.28966 9.38755C5.37296 9.52632 5.49077 9.64116 5.63161 9.7209C5.77246 9.80063 5.93156 9.84254 6.09341 9.84255H8.04841L10.6259 12.4201L12.5947 10.8001Z" fill="#BB8EFF"/>
<path fill-rule="evenodd" clip-rule="evenodd" d="M15.6953 21.6613L20.9241 26.8888C21.3158 27.2805 21.7809 27.5913 22.2927 27.8033C22.8046 28.0153 23.3532 28.1244 23.9072 28.1244C24.4612 28.1244 25.0098 28.0153 25.5216 27.8033C26.0335 27.5913 26.4986 27.2805 26.8903 26.8888C27.2821 26.497 27.5928 26.0319 27.8048 25.5201C28.0168 25.0082 28.126 24.4597 28.126 23.9056C28.126 23.3516 28.0168 22.803 27.8048 22.2912C27.5928 21.7793 27.2821 21.3143 26.8903 20.9225L22.7578 16.7913C22.1244 16.8811 21.4828 16.8991 20.8453 16.845C20.3528 16.8025 19.9928 16.8375 19.7616 16.8975C19.6884 16.9132 19.6181 16.9397 19.5528 16.9763L15.6953 21.6613ZM19.9628 19.9613C20.1386 19.7857 20.3769 19.6871 20.6253 19.6871C20.8738 19.6871 21.112 19.7857 21.2878 19.9613L23.6316 22.3063C23.7237 22.3921 23.7975 22.4956 23.8488 22.6106C23.9 22.7256 23.9276 22.8497 23.9298 22.9756C23.932 23.1015 23.9089 23.2265 23.8617 23.3433C23.8146 23.46 23.7444 23.566 23.6554 23.6551C23.5663 23.7441 23.4603 23.8143 23.3436 23.8614C23.2268 23.9086 23.1018 23.9317 22.9759 23.9295C22.85 23.9273 22.7259 23.8997 22.6109 23.8485C22.4959 23.7972 22.3924 23.7234 22.3066 23.6313L19.9628 21.2875C19.7873 21.1117 19.6886 20.8734 19.6886 20.625C19.6886 20.3766 19.7873 20.1383 19.9628 19.9625" fill="#BB8EFF"/>
</svg>
